<?xml version="1.0" standalone="no"?>
<!DOCTYPE svg PUBLIC "-//W3C//DTD SVG 1.1//EN" "http://www.w3.org/Graphics/SVG/1.1/DTD/svg11.dtd" >
<svg xmlns="http://www.w3.org/2000/svg" xmlns:xlink="http://www.w3.org/1999/xlink" version="1.1">
<metadata>
Created by FontForge 20170731 at Thu Feb 18 21:03:50 2016
 By Aleksey,,,
Created by Fabian De Smet
</metadata>
<defs>
<font id="Butler-Light" horiz-adv-x="473" >
  <font-face 
    font-family="Butler"
    font-weight="300"
    font-stretch="normal"
    units-per-em="1000"
    panose-1="2 7 8 3 8 7 6 2 3 3"
    ascent="735"
    descent="-265"
    x-height="462"
    cap-height="704"
    bbox="-147 -265 1055 976"
    underline-thickness="50"
    underline-position="-200"
    unicode-range="U+0020-FB02"
  />
<missing-glyph horiz-adv-x="507" 
d="M278 352l186 -272v544zM67 661l186 -271l185 271h-371zM-1 704h508v-704h-508v704zM226 352l-185 272v-544zM253 314l-186 -272h371z" />
    <glyph glyph-name="f_i" unicode="fi" horiz-adv-x="491" 
d="M453 9v-9h-149v9q28 8 34 18t6 49v318q0 28 -11 42.5t-39 14.5h-142v-379q0 -38 11 -49t41 -15v-8h-160v8q28 5 33.5 15t5.5 49v379h-64l-1 11h65v6q0 156 51 216.5t152 60.5q46 0 82 -22.5t41 -69.5q2 -32 -15 -48q-14 -13 -32.5 -12t-30.5 14q-13 14 -12 32t15 31
q14 14 31 11q9 -1 9 7q-2 18 -30 34q-25 13 -58 13q-19 0 -33.5 -3t-35 -18t-33.5 -41t-22.5 -77t-9.5 -122v-12h142h118v-386q0 -40 6.5 -50t34.5 -17z" />
    <glyph glyph-name="f_l" unicode="fl" horiz-adv-x="475" 
d="M464 11v-11h-150v11q29 8 34.5 17.5t5.5 47.5v578q0 66 -86 73q-18 1 -33 -2.5t-33 -18.5t-30 -41.5t-20.5 -76t-8.5 -116.5v-10h107l-2 -11h-105v-379q0 -38 10.5 -48t41.5 -14v-10h-160v10q28 5 33.5 14t5.5 48v379h-64l-1 11h65v20q0 263 166 263q61 0 96 -22l87 23
v-670q0 -40 6.5 -49t34.5 -16z" />
    <glyph glyph-name=".notdef" horiz-adv-x="507" 
d="M278 352l186 -272v544zM67 661l186 -271l185 271h-371zM-1 704h508v-704h-508v704zM226 352l-185 272v-544zM253 314l-186 -272h371z" />
    <glyph glyph-name=".null" horiz-adv-x="0" 
 />
    <glyph glyph-name="nonmarkingreturn" horiz-adv-x="333" 
 />
    <glyph glyph-name="space" unicode=" " horiz-adv-x="242" 
 />
    <glyph glyph-name="exclam" unicode="!" horiz-adv-x="285" 
d="M159 171h-40l-17 574h74zM189 42q0 21 -15 35.5t-36 14.5t-36 -14.5t-15 -35.5t15 -36t36 -15t36 15t15 36z" />
    <glyph glyph-name="quotedbl" unicode="&#x22;" horiz-adv-x="444" 
d="M298 376l-21 328h79l-20 -328h-38zM121 376l-20 328h77l-18 -328h-39z" />
    <glyph glyph-name="numbersign" unicode="#" horiz-adv-x="692" 
d="M445 486h-172l-43 -193h171zM642 486h-148l-44 -193h129v-45h-139l-56 -248h-49l56 248h-172l-56 -248h-49l56 248h-136v45h147l43 193h-127v44h137l50 216h49l-50 -216h172l50 216h49l-50 -216h138v-44z" />
    <glyph glyph-name="dollar" unicode="$" horiz-adv-x="512" 
d="M269 2q62 3 98.5 34t41.5 71.5t-14 84t-59 71.5l-67 44v-305zM235 422v280q-32 -1 -62 -16.5t-47.5 -41.5t-22.5 -57t16 -66.5t66 -65.5zM356 343q48 -32 78 -69.5t38.5 -73.5t4 -68t-20.5 -59q-1 -1 -6 -7t-9 -10.5t-13 -12.5t-18.5 -14t-24.5 -13t-31 -12t-38 -8.5
t-47 -4.5v-122h-34v122q-57 3 -105 16.5t-68 25.5l-19 12v192h8q4 -116 43 -171.5t141 -63.5v327l-70 47q-27 19 -46.5 34.5t-43 42.5t-34 52.5t-8 60t23.5 69.5q2 3 6 8.5t19.5 18.5t34.5 23.5t50.5 19t67.5 8.5v122h34v-122q50 -3 95.5 -14.5t65.5 -21.5l20 -10v-168h-9
q-4 95 -39.5 145.5t-132.5 56.5v-301z" />
    <glyph glyph-name="percent" unicode="%" horiz-adv-x="959" 
d="M692 36q40 0 60.5 33.5t20.5 131.5t-22 135t-59 37q-38 0 -59 -37t-21 -135q0 -97 21 -131t59 -34zM692 384q39 0 66.5 -17t41 -45.5t19 -58t5.5 -62.5q0 -176 -132 -176q-131 0 -131 176q0 34 5.5 63t18.5 57.5t40.5 45.5t66.5 17zM192 495q0 -97 21 -131t59 -34
q40 0 60.5 34t20.5 131q0 173 -81 173q-38 0 -59 -37.5t-21 -135.5zM404 495q0 -176 -132 -176q-131 0 -131 176q0 34 5.5 63t18.5 58t40.5 46t66.5 17t66.5 -17t41 -46t19 -58t5.5 -63zM733 704l-456 -704h-47l456 704h47z" />
    <glyph glyph-name="ampersand" unicode="&#x26;" horiz-adv-x="764" 
d="M280 723q-51 -19 -55.5 -79t33.5 -112l70 -102q64 39 90.5 89.5t19.5 94.5t-36 80q-22 24 -55.5 32.5t-66.5 -3.5zM169 86q35 -41 89 -51t106 18t78 90l-170 243l-61 -37q-25 -16 -45.5 -43.5t-33 -62.5t-4.5 -77.5t41 -79.5zM700 87h10q-1 -45 -28.5 -69.5t-60.5 -26.5
q-8 -1 -21 -0.5t-42.5 13t-46.5 37.5l-61 91q-12 -42 -51.5 -77.5t-88.5 -53t-104.5 -6t-94.5 58.5q-38 45 -42.5 94.5t18 89.5t53 70.5t63.5 49.5l62 38l-47 68q-50 66 -57.5 127.5t22.5 100.5t86 49q94 16 143 -40q19 -22 29.5 -53t9 -69t-31 -80.5t-84.5 -77.5l143 -210
q39 108 122 128q36 7 57 -10q13 -10 15.5 -27t-10.5 -34q-12 -14 -30 -15.5t-32 10.5q-15 12 -16 29q0 14 -21 8q-37 -10 -62 -62l-15 -37l79 -113q14 -21 33 -33t31 -13l12 -2q23 0 40.5 11.5t18.5 35.5z" />
    <glyph glyph-name="quotesingle" unicode="'" horiz-adv-x="225" 
d="M96 376l-21 328h78l-19 -328h-38z" />
    <glyph glyph-name="parenleft" unicode="(" horiz-adv-x="314" 
d="M303 745l11 -10q-163 -193 -163 -484q0 -27 0.5 -44t8 -79t22.5 -109.5t48.5 -109t80.5 -103.5l-10 -12q-25 14 -60 53t-72.5 97.5t-63.5 142t-26 167.5t26 171t64 150.5t73.5 108t60.5 61.5z" />
    <glyph glyph-name="parenright" unicode=")" horiz-adv-x="314" 
d="M-2 735l11 10q25 -17 60.5 -61.5t73.5 -108t64 -150.5t26 -171t-26 -167.5t-63.5 -142t-72.5 -97.5t-60 -53l-10 12q47 42 80.5 103.5t48.5 109t22.5 109.5t8 79t0.5 44q0 291 -163 484z" />
    <glyph glyph-name="asterisk" unicode="*" horiz-adv-x="545" 
d="M474 531l-185 -39l127 -139l-53 -40l-94 165l-94 -165l-53 40l127 139l-185 39l21 63l172 -79l-21 189h66l-21 -189l173 79z" />
    <glyph glyph-name="plus" unicode="+" horiz-adv-x="715" 
d="M657 338v-55h-273v-283h-55v283h-273v55h273v281h55v-281h273z" />
    <glyph glyph-name="comma" unicode="," horiz-adv-x="208" 
d="M69 -124l-5 6q33 22 46 48.5t9 43t-13 18.5q-21 4 -32 14q-14 14 -14 32.5t13 32.5q14 14 33.5 14t32.5 -14q20 -23 18 -60.5t-22 -70.5q-24 -42 -66 -64z" />
    <glyph glyph-name="hyphen" unicode="-" horiz-adv-x="444" 
d="M379 227h-315v55h315v-55z" />
    <glyph glyph-name="period" unicode="." horiz-adv-x="202" 
d="M101 -5q-19 0 -32.5 13.5t-13.5 32.5q0 20 13 33.5t33 13.5q19 0 32.5 -13.5t13.5 -33.5q0 -19 -13.5 -32.5t-32.5 -13.5z" />
    <glyph glyph-name="slash" unicode="/" horiz-adv-x="408" 
d="M383 725l-308 -746h-61l308 746h61z" />
    <glyph glyph-name="zero" unicode="0" horiz-adv-x="602" 
d="M480 346q0 102 -15.5 175t-43 110.5t-57.5 54t-65 16.5q-29 0 -54 -9.5t-49 -34t-41 -63.5t-27.5 -102.5t-10.5 -146.5q0 -344 182 -344q181 0 181 344zM563 346q0 -52 -6 -98t-24 -94.5t-46 -83.5t-76.5 -57t-111.5 -22q-64 0 -112.5 22t-76.5 57t-46 83.5t-24 94.5
t-6 98q0 53 6 100t24 97.5t46 86.5t76.5 59.5t112.5 23.5q63 0 111.5 -23.5t76.5 -59.5t46 -86.5t24 -97.5t6 -100z" />
    <glyph glyph-name="one" unicode="1" horiz-adv-x="365" 
d="M293 10v-10h-219v10q19 0 30 2t23.5 9t18 23.5t5.5 43.5v498q0 24 -6.5 34t-19.5 7.5t-28.5 -12t-38.5 -27.5l-6 9l134 116h32v-625q0 -27 6 -44t19 -24t23 -8.5t27 -1.5z" />
    <glyph glyph-name="two" unicode="2" horiz-adv-x="466" 
d="M420 124h10l-34 -124h-357l217 332q101 147 57 243q-27 60 -95 72q-70 13 -119 -32q-38 -35 -44 -93l-14 3q1 40 11.5 72t26.5 51t35.5 33t38.5 20t34.5 9t25.5 3h10q74 0 123 -49t49 -118q0 -42 -23 -83t-81 -122l-6 -7.5t-5 -7t-6 -8.5q-21 -29 -63 -91.5t-73 -110.5
l-32 -49h220q63 0 94 57z" />
    <glyph glyph-name="three" unicode="3" horiz-adv-x="495" 
d="M51 51q-16 22 -2 48q8 16 26.5 21.5t34.5 -3.5q17 -9 22 -26.5t-4 -34.5q-8 -17 -25 -20q-4 -1 7 -9t39 -16.5t64 -8.5q167 0 153 183q-2 29 -12.5 56t-31.5 52.5t-59.5 41.5t-89.5 18v13q70 6 112 54t39 109t-52 104q-27 23 -63.5 27.5t-69 -7.5t-56.5 -39.5t-26 -63.5
l-14 1q2 46 20.5 79t40 48.5t52.5 24t45 9.5t29 1q49 0 89 -26.5t57 -68t16.5 -86.5t-32.5 -87t-89 -65q79 -15 124.5 -66.5t46.5 -113.5q1 -50 -14 -88t-38.5 -60.5t-56 -36.5t-61.5 -19t-59 -5q-58 0 -101 18t-61 42z" />
    <glyph glyph-name="four" unicode="4" horiz-adv-x="521" 
d="M314 251v368l-225 -333q-17 -26 -14 -30.5t27 -4.5h212zM483 208h-93v-99q0 -46 10 -68t22 -26t38 -4v-11h-216v11q19 0 29 2t21 11t15.5 28.5t4.5 51.5v104h-284v13l327 486l33 -3v-453h93v-43z" />
    <glyph glyph-name="five" unicode="5" horiz-adv-x="535" 
d="M482 255q9 -69 -11.5 -122t-61 -83t-87 -44.5t-96.5 -14.5q-47 0 -86.5 14t-55.5 26.5t-24 22.5q-19 25 -7 51q8 17 26 24t36 -1q17 -7 24 -26t-1 -36q-8 -16 -28 -22q-9 -2 10 -15q39 -27 106 -27q61 0 111.5 29t74 84t3.5 122q-16 52 -61.5 85t-120.5 42.5t-178 -17.5
l53 357h346l-18 -73h-324l-31 -211q163 46 275 -7t126 -158z" />
    <glyph glyph-name="six" unicode="6" horiz-adv-x="527" 
d="M406 202q0 108 -37 153t-90 45q-72 0 -115 -43t-43 -96q0 -136 36 -197.5t110 -61.5q139 0 139 200zM481 218q0 -227 -214 -227q-121 0 -173 84t-52 243q0 105 29.5 194t88 145t134.5 56q107 0 132 -64q11 -27 -9 -49q-14 -14 -33 -14t-33 13t-14 32t13 33q15 15 31 14
l2 1q-2 10 -34 17l-33 5q-90 6 -142 -93.5t-53 -305.5q41 128 173 128q67 0 111 -33.5t60 -79t16 -99.5z" />
    <glyph glyph-name="seven" unicode="7" horiz-adv-x="549" 
d="M63 704h451l-40 -66q-185 -330 -185 -638h-85q14 160 70.5 306t186.5 332h-320q-38 0 -54 -12.5t-30 -45.5h-11z" />
    <glyph glyph-name="eight" unicode="8" horiz-adv-x="532" 
d="M395 550q-4 152 -133 152q-50 0 -89 -32t-39 -84q0 -71 38 -110t122 -73q32 8 67 50t34 97zM272 -9q-235 0 -235 172q0 62 50.5 115.5t124.5 79.5q-78 45 -106.5 85t-28.5 102q0 79 53.5 123.5t131.5 44.5q88 0 135.5 -44t47.5 -117q0 -44 -42 -93.5t-95 -63.5
q89 -44 138 -93t49 -119q0 -97 -61 -144.5t-162 -47.5zM258 333q-6 3 -12.5 6t-10.5 5.5t-11 6.5q-126 -54 -126 -186q0 -86 50 -124.5t124 -38.5q23 0 48 7t51 22t42 47t15 75q-1 53 -37 91t-133 89z" />
    <glyph glyph-name="nine" unicode="9" horiz-adv-x="514" 
d="M113 506q0 -108 37 -153.5t90 -45.5q72 0 112.5 42t40.5 96q0 136 -34.5 196.5t-107.5 60.5q-61 0 -99.5 -48t-38.5 -148zM37 490q0 109 55 166t159 57q122 0 171.5 -77.5t49.5 -234.5q0 -410 -240 -410q-109 0 -141 68q-1 2 -1 3q-11 28 10 49q13 14 32.5 14.5
t33.5 -12.5q13 -13 13.5 -32.5t-12.5 -32.5q-15 -15 -32 -14l-1 -2q6 -13 39 -23q16 -5 36 -6q67 -5 106 30t58.5 124t19.5 246q-21 -63 -61 -94.5t-108 -31.5q-51 0 -89 19t-58.5 51t-30 67.5t-9.5 75.5z" />
    <glyph glyph-name="colon" unicode=":" horiz-adv-x="197" 
d="M101 314q-20 0 -33.5 13.5t-13.5 32.5q0 20 13.5 34t33.5 14q19 0 33 -14t14 -34q0 -19 -14 -32.5t-33 -13.5zM101 55q-20 0 -33.5 13.5t-13.5 32.5q0 20 13.5 34t33.5 14q19 0 33 -14t14 -34q0 -19 -14 -32.5t-33 -13.5z" />
    <glyph glyph-name="semicolon" unicode=";" horiz-adv-x="201" 
d="M101 313q-20 0 -33.5 13.5t-13.5 32.5q0 20 13.5 34t33.5 14q19 0 33 -14t14 -34q0 -19 -14 -32.5t-33 -13.5zM64 -61q42 22 66 64q20 33 22 70.5t-18 60.5q-13 14 -32.5 14t-33.5 -14q-13 -14 -13 -32.5t14 -32.5q11 -10 32 -14q9 -2 13 -18.5t-9 -43t-46 -48.5z" />
    <glyph glyph-name="less" unicode="&#x3c;" horiz-adv-x="600" 
d="M119 266l434 -226v-56l-507 260v43l507 260v-58z" />
    <glyph glyph-name="equal" unicode="=" horiz-adv-x="613" 
d="M567 353h-511v53h511v-53zM567 128h-511v53h511v-53z" />
    <glyph glyph-name="greater" unicode="&#x3e;" horiz-adv-x="600" 
d="M47 40l434 226l-434 223v58l507 -260v-43l-507 -260v56z" />
    <glyph glyph-name="question" unicode="?" horiz-adv-x="566" 
d="M315 48q0 -22 -15.5 -37.5t-37.5 -15.5t-37.5 15.5t-15.5 37.5t15.5 37t37.5 15t37.5 -15t15.5 -37zM326 322q-71 -33 -63 -134l-17 -3q-15 100 52 156q46 39 60 58q44 58 36 151q-5 61 -29.5 100t-59.5 52t-71 12t-71 -15q-39 -15 -40 -37q0 -11 9 -12q17 0 28 -18
q11 -15 7.5 -34t-18.5 -29t-33.5 -6.5t-29.5 18.5q-13 19 -5 47q5 18 24.5 42t50.5 37q120 54 220 8t106 -161q2 -41 -9 -77t-26.5 -59.5t-40.5 -44.5t-41.5 -30.5t-38.5 -20.5z" />
    <glyph glyph-name="at" unicode="@" horiz-adv-x="857" 
d="M520 69q38 156 44 193q0 11 1 34t-15.5 46.5t-47.5 23.5q-50 0 -90 -46t-53 -125q-14 -84 11.5 -123.5t70.5 -44.5q24 -2 43.5 8.5t27.5 22.5zM522 595q137 -6 221 -102t62 -255q-10 -73 -38 -125t-64 -76.5t-67 -35t-60 -10.5q-33 0 -48.5 14.5t-11.5 42.5
q-10 -18 -40 -37.5t-74 -19.5q-57 0 -90.5 45.5t-29.5 112.5q6 90 63 160.5t145 69.5q32 0 55 -9.5t30 -18.5l7 -9l8 26h55q-58 -263 -66 -299q-11 -53 31 -53q19 0 42 9.5t50 32t49.5 70t31.5 112.5q3 37 2.5 77.5t-17.5 81.5t-44 75t-77 57.5t-116 28.5q-113 9 -203.5 -38
t-143 -133t-66.5 -198q-1 -7 -2.5 -20t-0.5 -50t8 -71t27.5 -76.5t52 -75t88 -57.5t129.5 -31t133.5 15t88.5 42l6 -8q-3 -3 -8.5 -7.5t-27 -16.5t-46 -21t-66.5 -16.5t-88 -7.5q-47 0 -96.5 11t-102.5 39.5t-93 71t-63 111t-18 153.5q9 136 80.5 234.5t176.5 144t226 40.5z
" />
    <glyph glyph-name="A" unicode="A" horiz-adv-x="674" 
d="M175 233h263l-136 351zM660 11v-11h-199v11q67 0 17 116l-36 95h-270q-11 -31 -15.5 -44t-12 -39t-8.5 -37.5t-1.5 -30t6 -27t16.5 -18t27.5 -12.5t41.5 -3v-11h-212v11q26 0 41.5 11.5t42.5 64t66 162.5l165 455h7l243 -607q15 -38 29.5 -57.5t24 -23.5t27.5 -5z" />
    <glyph glyph-name="B" unicode="B" horiz-adv-x="560" 
d="M223 693h-47v-331h71q28 0 48 5.5t39.5 22t29.5 52.5t10 91q0 52 -13 86t-37.5 49t-47 20t-53.5 5zM513 179q0 -42 -9 -73t-30.5 -50.5t-43.5 -31t-61.5 -16.5t-70.5 -6.5t-83 -1.5h-178v9q31 0 44.5 24.5t13.5 77.5v485q0 99 -58 99v9h178q48 0 80.5 -2.5t67.5 -12.5
t55.5 -28.5t34 -50.5t13.5 -78q0 -44 -15 -78t-35.5 -51t-45.5 -27t-40 -12.5t-25 -2.5q25 0 47.5 -2.5t53.5 -13.5t53 -29t38 -53.5t16 -83.5zM419 183q0 47 -11 80t-26 50t-41.5 26t-45 10.5t-48.5 1.5h-71v-340h47q30 0 43 0.5t39 3.5t38 9t29.5 18.5t25.5 30.5t14.5 46
t6.5 64z" />
    <glyph glyph-name="C" unicode="C" horiz-adv-x="660" 
d="M597 206h11l10 -153q-55 -37 -102.5 -49.5t-128.5 -12.5q-157 0 -252 94.5t-95 266.5q0 174 94.5 267.5t252.5 93.5q83 0 134.5 -12.5t96.5 -48.5l-10 -153h-11q-4 51 -21.5 90t-39.5 59.5t-51.5 33.5t-52 16.5t-45.5 3.5q-36 0 -65 -5.5t-64.5 -27t-59 -57.5t-40 -102.5
t-16.5 -157.5q0 -67 8.5 -121t22.5 -90t35 -62.5t41.5 -40.5t46.5 -22.5t46.5 -11t44.5 -2.5q28 0 58.5 8t66 28t59.5 63.5t26 104.5z" />
    <glyph glyph-name="D" unicode="D" horiz-adv-x="670" 
d="M526 351q0 68 -10.5 122.5t-26.5 89.5t-42 60.5t-49 38.5t-56 20.5t-55 9t-53 1.5h-44v-682h44q27 0 40 0.5t41.5 3.5t44.5 8.5t41 17t40.5 28t33.5 42.5t27.5 59t16.5 79t7 102zM620 351q0 -89 -22 -154.5t-56 -102.5t-87 -59t-103.5 -28.5t-117.5 -6.5h-191v11
q64 0 64 99v486q0 97 -64 97v11h191q65 0 117.5 -8.5t104 -32t86.5 -61.5t56.5 -102t21.5 -149z" />
    <glyph glyph-name="E" unicode="E" horiz-adv-x="578" 
d="M492 203h11v-203h-472v11q30 0 40.5 21.5t10.5 74.5v506q0 48 -9.5 64t-41.5 16v11h459v-175h-11q-1 34 -9.5 60t-20.5 43.5t-33 29t-38.5 18t-47.5 9.5t-49 3.5t-53 0.5h-64v-332h80q17 0 28.5 0.5t32 6t33 15t22.5 29.5t11 48h11v-210h-11q-1 28 -11.5 48t-23 30
t-32.5 15.5t-31.5 6t-28.5 0.5h-80v-339h51h13h43.5t40.5 2t40.5 5t35.5 9.5t33 16t26.5 24t22.5 33.5t14 45t8 57z" />
    <glyph glyph-name="F" unicode="F" horiz-adv-x="507" 
d="M30 704h461v-175h-11q-1 27 -7.5 49.5t-13.5 38.5t-22.5 28.5t-26 20.5t-33 13.5t-34.5 8t-39 4t-38 1.5h-40h-63v-332h79q18 0 29 0.5t31.5 6t33.5 15t23.5 29.5t11.5 48h11v-210h-11q-1 28 -11.5 48.5t-23.5 30t-33.5 15t-31.5 6t-29 0.5h-79v-237q0 -63 16.5 -82.5
t54.5 -19.5v-11h-204v11q30 0 40.5 21.5t10.5 74.5v506q0 48 -9.5 64t-41.5 16v11z" />
    <glyph glyph-name="G" unicode="G" horiz-adv-x="698" 
d="M461 280h212v-11q-46 0 -55.5 -33t-9.5 -203q-108 -42 -250 -42q-155 0 -237.5 101.5t-82.5 259.5t82.5 259.5t237.5 101.5q93 0 148 -13.5t103 -45.5l-9 -157h-16q-3 62 -21 104t-51 63.5t-69 29.5t-85 8q-219 0 -219 -350q0 -99 18 -170t50 -109t69 -54.5t82 -16.5
q90 0 135.5 25.5t45.5 81.5q0 43 -0.5 67t-4.5 44t-7 28.5t-14.5 14t-21 6t-30.5 0.5v11z" />
    <glyph glyph-name="H" unicode="H" horiz-adv-x="594" 
d="M521 568v-432q0 -39 0.5 -53.5t5.5 -33t15.5 -26t29.5 -12.5v-11h-160v11q20 7 25.5 30.5t5.5 94.5v194h-291v-194q0 -44 1 -65.5t5 -35t9 -17t17 -7.5v-11h-162v11q39 10 46 28t7 97v432q0 74 -9 96.5t-44 29.5v10h162v-10q-15 -5 -21 -14t-8.5 -32.5t-2.5 -79.5v-222
h291v222q0 80 -5 99.5t-26 26.5v10h160v-10q-25 -5 -34.5 -14.5t-13 -32t-3.5 -79.5z" />
    <glyph glyph-name="I" unicode="I" horiz-adv-x="292" 
d="M49 704h206v-10q-34 0 -48 -15t-14 -59v-520q0 -50 14.5 -69.5t47.5 -19.5v-11h-206v11q33 0 48 19.5t15 69.5v520q0 45 -14 59.5t-49 14.5v10z" />
    <glyph glyph-name="J" unicode="J" horiz-adv-x="364" 
d="M98 704h227v-10q-35 0 -55.5 -23t-20.5 -69v-420q0 -166 -60.5 -248.5t-185.5 -100.5l-3 10q36 13 63.5 33.5t53 56t39 94t13.5 136.5v317q0 147 -10 180.5t-61 33.5v10z" />
    <glyph glyph-name="K" unicode="K" horiz-adv-x="679" 
d="M664 11v-11h-82q-33 0 -56 5.5t-40.5 13.5t-41 34.5t-41 49.5t-55.5 78l-116 160l120 146q42 48 62.5 76t38.5 63t2 51.5t-64 16.5v10h248v-10q-41 0 -76 -20.5t-95 -86t-169 -205.5l238 -320q40 -51 127 -51zM40 704h215v-10q-21 0 -31 -1.5t-22 -8t-17 -22.5t-5 -42
v-523q0 -49 15 -67.5t49 -18.5v-11h-204v11q33 0 46.5 18.5t13.5 67.5v523q0 45 -13 59.5t-47 14.5v10z" />
    <glyph glyph-name="L" unicode="L" horiz-adv-x="592" 
d="M502 217h10v-217h-464v11q30 0 38.5 23t8.5 80v497q0 47 -11.5 65t-43.5 18v10h198v-10q-34 0 -49 -18.5t-15 -70.5v-594h36q44 0 67 0.5t59 4t54.5 11t42.5 22.5t36 37t21.5 55t11.5 76z" />
    <glyph glyph-name="M" unicode="M" horiz-adv-x="866" 
d="M759 115q0 -60 22 -82t60 -22v-11h-233v11q36 0 54 21.5t18 82.5v555l-229 -679h-11l-278 618v-362q0 -133 26 -184.5t99 -51.5v-11h-273v11q80 0 108.5 52.5t28.5 183.5v381q-13 22 -28.5 36.5t-33 20t-26 6.5t-23.5 2v11h173l268 -596l199 596h156v-11
q-36 0 -56.5 -19.5t-20.5 -68.5v-490z" />
    <glyph glyph-name="N" unicode="N" horiz-adv-x="771" 
d="M478 704h277v-10q-23 0 -42 -4t-32.5 -9t-24 -18t-17 -21t-11 -29.5t-7 -31t-3.5 -38.5t-1 -39.5v-45.5v-458h-21l-420 548v-300q0 -44 0.5 -65t4 -54.5t11.5 -50t22 -34.5t37 -25.5t54 -7.5v-11h-282v11q34 0 59 7t40.5 25t24.5 35t12.5 50t4.5 55t1 65v313l-42 55
q-9 12 -18 21.5t-16 17t-15 13.5t-13 9.5t-12 6.5t-10 4.5t-10 3t-8.5 1.5t-8.5 0.5t-8 0.5v10h155l447 -588v342q0 34 -0.5 50.5t-1.5 44.5t-4.5 41.5t-9.5 33t-15.5 29t-22.5 19.5t-31.5 14t-42.5 4v10z" />
    <glyph glyph-name="O" unicode="O" horiz-adv-x="726" 
d="M583 347q0 99 -18.5 170.5t-51.5 110.5t-71.5 56.5t-85.5 17.5t-86 -17.5t-72.5 -56.5t-52 -110.5t-18.5 -170.5q0 -345 229 -345q227 0 227 345zM671 347q0 -159 -79 -257.5t-236 -98.5t-236 98.5t-79 257.5q0 103 32 183.5t104.5 131.5t178.5 51t178.5 -51
t104.5 -131.5t32 -183.5z" />
    <glyph glyph-name="P" unicode="P" horiz-adv-x="550" 
d="M173 313h9q38 0 57 0.5t50 4t47 10.5t37 20.5t30.5 33.5t17 50t7.5 70t-7.5 71t-17.5 51t-30.5 34t-36 21t-46 10.5t-48 4t-53.5 0.5h-7h-9v-381zM173 302v-165q0 -48 3 -72.5t15.5 -37t26 -14.5t45.5 -2v-11h-231v11q40 0 53 21.5t13 100.5v477q0 55 -10.5 69.5
t-50.5 14.5v10h145q67 0 111.5 -3.5t89 -15t70 -33t41.5 -59t16 -91.5q0 -53 -16 -90.5t-41 -58.5t-70.5 -32.5t-89.5 -15t-111 -3.5h-9z" />
    <glyph glyph-name="Q" unicode="Q" horiz-adv-x="727" 
d="M583 347q0 99 -18.5 170.5t-51.5 110.5t-71.5 56.5t-85.5 17.5t-86 -17.5t-72.5 -56.5t-52 -110.5t-18.5 -170.5q0 -345 229 -345q227 0 227 345zM671 347q0 -159 -79 -257.5t-236 -98.5t-236 98.5t-79 257.5q0 103 32 183.5t104.5 131.5t178.5 51t178.5 -51
t104.5 -131.5t32 -183.5zM389 -84l141 -51q77 -25 143 24l8 -8l-60 -47q-38 -29 -75 -33t-80 9.5t-131 52.5l-73 32q-27 12 -60.5 7t-57 -13.5t-38.5 -18.5l-10 9q36 30 79.5 44.5t80 14.5t67.5 -4.5t49 -11.5z" />
    <glyph glyph-name="R" unicode="R" horiz-adv-x="585" 
d="M395 513q0 38 -6 67t-14 48t-25 32t-29.5 19.5t-38 9.5t-40.5 3.5t-45 0.5h-12h-31v-358h31h2h39t35.5 1.5t33.5 5t28 9.5t25.5 14.5t19 22t15.5 31t8.5 41.5t3.5 53zM584 11v-11h-68q-34 0 -47.5 1.5t-28.5 9t-21.5 26t-15 48t-20.5 80.5q-7 34 -12 53q-25 106 -170 106
h-47v-228q0 -50 13.5 -67.5t46.5 -17.5v-11h-191v11q34 0 45.5 19t11.5 86v507q0 45 -11.5 57.5t-45.5 12.5v11h162q65 0 108 -4t81.5 -15.5t60 -32.5t33.5 -55t12 -84q0 -99 -48.5 -140t-133.5 -44q53 -6 69 -13q61 -27 101 -168q6 -24 13 -53q17 -77 103 -84z" />
    <glyph glyph-name="S" unicode="S" horiz-adv-x="544" 
d="M459 73q-2 -3 -5.5 -8.5t-19 -20t-35 -25t-55 -19.5t-78.5 -9q-65 0 -120 13.5t-78 27.5l-22 13v192h10q4 -123 48 -179t162 -56q62 0 100 29.5t45.5 70.5t-11.5 86.5t-61 74.5l-171 113q-28 19 -47 34.5t-42.5 42.5t-34 52t-8 60t23.5 70q2 3 6 8.5t19.5 19t34 23.5
t51 18.5t68.5 8.5q59 0 112.5 -11.5t77.5 -23.5l24 -12v-168h-12q-2 51 -10 84.5t-28.5 62.5t-61 43t-102.5 14q-40 0 -75.5 -24.5t-51.5 -60t1.5 -80.5t74.5 -82l171 -112q48 -32 78 -69.5t38.5 -73.5t4 -68t-20.5 -59z" />
    <glyph glyph-name="T" unicode="T" horiz-adv-x="627" 
d="M19 704h589v-164h-11q-1 43 -17 74.5t-36 46t-47.5 23t-40.5 9.5t-26 1h-79v-609q0 -45 15.5 -59.5t50.5 -14.5v-11h-208v11q35 0 50.5 14.5t15.5 59.5v609h-79q-21 0 -35.5 -1t-41.5 -9.5t-44.5 -23t-31 -46t-14.5 -74.5h-10v164z" />
    <glyph glyph-name="U" unicode="U" horiz-adv-x="684" 
d="M308 -9q-99 0 -161.5 64t-62.5 182v370q0 51 -15.5 68.5t-50.5 17.5v11h215v-11q-38 0 -55.5 -16t-17.5 -72v-377q0 -95 51 -147.5t139 -52.5q87 0 137.5 54.5t50.5 151.5v259q0 50 -1.5 76t-7 54.5t-17 41t-32 20.5t-52.5 8v11h238v-11q-22 0 -38.5 -2t-29 -9t-21 -12.5
t-14 -20.5t-8.5 -25t-4.5 -33.5t-1.5 -37.5v-47v-13v-259q1 -118 -65 -180.5t-176 -62.5z" />
    <glyph glyph-name="V" unicode="V" horiz-adv-x="720" 
d="M467 704h231v-11q-24 0 -34 -1t-26 -8t-24.5 -20t-24 -41.5t-30.5 -67.5t-37 -101l-169 -454h-12q-27 66 -86 222t-104 279l-45 123q-12 32 -28.5 48t-29 18.5t-36.5 2.5v11h243v-11q-28 0 -45 -10t-21 -24t-3.5 -24t2.5 -16l190 -525l133 362q3 8 8 23q9 25 13 37
t10.5 33.5t8.5 32t5 27t1 25t-4.5 20t-10 17.5t-17.5 12t-24.5 8t-33.5 2v11z" />
    <glyph glyph-name="W" unicode="W" horiz-adv-x="1019" 
d="M772 704h234v-11q-20 0 -33.5 -2.5t-25.5 -6.5t-22.5 -18t-19.5 -27t-21.5 -44.5t-23 -59t-29.5 -81.5l-160 -454h-12l-160 451l-147 -451h-13l-229 616q-18 47 -41 62t-57 15v11h245v-11q-25 0 -41 -6.5t-22 -15.5t-7.5 -20t-0.5 -17.5t3 -11.5l186 -520l118 365
l-50 149q-18 47 -41 62t-56 15v11h244v-11q-31 0 -48.5 -9t-20 -23.5t-2 -22.5t2.5 -16l175 -523l122 357q37 124 39 158q4 66 -54 76q-14 3 -32 3v11z" />
    <glyph glyph-name="X" unicode="X" horiz-adv-x="682" 
d="M537 102q26 -43 46 -62.5t33.5 -23.5t41.5 -6v-10h-221v10q24 1 33 12.5t3 31t-13.5 34.5t-20.5 35l-119 200l-55 -86q-71 -134 -80 -161q-17 -48 17 -60q16 -6 48 -6v-10h-237v10q21 0 31 1t27 8t31 21t37 40.5t50.5 66.5t65.5 99l57 88l-171 265q-40 62 -63.5 78
t-57.5 16v11h236v-11q-81 0 -9 -116l106 -179l49 78q36 66 51 98t22 64t-11.5 43.5t-61.5 11.5v11h253v-11q-36 0 -52.5 -3.5t-45 -25t-60.5 -66.5t-85 -130l-51 -81z" />
    <glyph glyph-name="Y" unicode="Y" horiz-adv-x="652" 
d="M403 704h236v-11q-25 0 -37.5 -3.5t-35 -23t-50.5 -66t-68 -126.5l-83 -167v-199q0 -60 17.5 -78.5t54.5 -18.5v-11h-209v11q36 0 53 18t17 79v186l-185 322q-13 22 -25 37t-19.5 22.5t-20.5 12t-17 5t-21 1.5v10h225v-10q-14 0 -21.5 -0.5t-19 -6.5t-13.5 -16.5t5 -33.5
t26 -56l150 -258l81 165q18 36 28.5 61.5t17 54.5t0.5 47t-27 30t-59 12v11z" />
    <glyph glyph-name="Z" unicode="Z" horiz-adv-x="504" 
d="M126 12h12q122 0 185 19t94 64.5t45 138.5h15l-24 -234h-429l371 693h-50q-164 0 -221 -35t-76 -156h-16l17 202h427z" />
    <glyph glyph-name="bracketleft" unicode="[" horiz-adv-x="297" 
d="M113 735h168v-12q-26 0 -40 -1.5t-32 -9t-26 -26t-8 -48.5v-696q0 -26 8.5 -42.5t26 -23t32.5 -8.5t39 -2v-12h-168v881z" />
    <glyph glyph-name="backslash" unicode="\" horiz-adv-x="402" 
d="M323 -16l-308 748h58l308 -748h-58z" />
    <glyph glyph-name="bracketright" unicode="]" horiz-adv-x="298" 
d="M11 735h168v-881h-168v12q24 0 39 2t32.5 8.5t26 23t8.5 42.5v696q0 30 -8 48.5t-26 26t-32 9t-40 1.5v12z" />
    <glyph glyph-name="asciicircum" unicode="^" horiz-adv-x="559" 
d="M288 704l177 -328h-22l-167 231l-164 -231h-23l176 328h23z" />
    <glyph glyph-name="underscore" unicode="_" horiz-adv-x="560" 
d="M0 -81h560v-38h-560v38z" />
    <glyph glyph-name="grave" unicode="`" horiz-adv-x="313" 
d="M69 718l181 -161h-15l-231 142z" />
    <glyph glyph-name="a" unicode="a" horiz-adv-x="466" 
d="M295 251q-185 -44 -185 -138q0 -35 22 -60t64 -25q68 0 99 68v155zM410 31q25 0 32 31l10 -4q-5 -26 -26.5 -46.5t-53.5 -20.5q-3 0 -8 0.5t-18 4.5t-23 12t-18.5 26t-9.5 43q-11 -38 -50 -62t-91 -24q-5 0 -12.5 0.5t-27 6t-34.5 15.5t-27 31.5t-12 50.5q0 66 55.5 98
t198.5 69v56q0 80 -36 117t-98 9q-20 -9 -32 -19.5t-12.5 -15.5t0.5 -7q18 -4 27 -15q11 -14 9 -31t-16 -28q-13 -11 -30 -9t-27 16q-16 21 -6 43q18 41 78 74q19 9 41.5 14t35.5 5h13q69 0 97 -51.5t28 -148.5v-180q0 -7 1 -17t11.5 -26.5t30.5 -16.5z" />
    <glyph glyph-name="b" unicode="b" horiz-adv-x="544" 
d="M403 212q0 113 -40 172t-110 59q-55 0 -87.5 -35.5t-32.5 -95.5v-164q0 -68 34 -107t90 -39q26 0 50 10.5t46.5 33t36 65.5t13.5 101zM488 228q0 -111 -63.5 -174t-164.5 -63q-81 0 -137 49q-30 -35 -51 -40q-7 -1 -7 5v644q0 27 -10.5 38t-40.5 14v11l119 22v-340
q21 36 63 56.5t84 20.5q102 0 155 -70t53 -173z" />
    <glyph glyph-name="c" unicode="c" 
d="M431 127l8 -3q-9 -48 -53 -90.5t-125 -42.5q-84 0 -150 62.5t-66 175.5q0 99 65.5 170.5t169.5 71.5q39 0 68 -8t43 -20.5t20 -22t8 -18.5q8 -24 -8 -40q-11 -11 -27.5 -11.5t-27.5 9.5q-12 12 -12.5 28t11.5 27q14 14 26 11l2 1q-2 10 -32 21q-30 12 -71 12
q-20 0 -43 -8.5t-51 -30t-46 -69.5t-18 -115q0 -101 46.5 -152.5t108.5 -54.5q58 -3 99 27.5t55 69.5z" />
    <glyph glyph-name="d" unicode="d" horiz-adv-x="522" 
d="M391 134v192q0 59 -36 96.5t-85 37.5q-26 0 -50 -9.5t-47 -31.5t-36.5 -64.5t-13.5 -101.5q0 -115 40 -175.5t109 -60.5q50 0 84.5 33t34.5 84zM510 19v-10l-91 -17q-12 -2 -19 2.5t-8 9.5l-1 6v51q-21 -33 -62 -51.5t-82 -18.5q-102 0 -155.5 70t-53.5 175q0 111 64 173
t165 62q71 0 124 -40v216q0 27 -10.5 39t-40.5 15v11l119 22v-665q0 -35 9.5 -43.5t41.5 -6.5z" />
    <glyph glyph-name="e" unicode="e" 
d="M113 252h252q0 104 -39.5 156t-81.5 52q-49 0 -90 -55.5t-41 -152.5zM409 120l8 -3q-7 -43 -52 -84.5t-119 -41.5q-91 0 -150.5 65.5t-59.5 169.5q0 111 60 178t149 67q82 0 135 -59t53 -172h-320q3 -206 151 -213q47 -2 90 26t55 67z" />
    <glyph glyph-name="f" unicode="f" horiz-adv-x="287" 
d="M319 663q-6 -17 -22.5 -24.5t-33.5 -1.5q-17 7 -24.5 22.5t-0.5 33.5q6 17 21 22q8 3 -6 11q-12 7 -27 7q-28 0 -44.5 -19.5t-26 -80.5t-9.5 -171h114l-2 -11h-112v-379q0 -36 10.5 -46.5t41.5 -15.5v-10h-160v10q28 5 33.5 15t5.5 47v379h-64l-1 11h65q0 158 32.5 219.5
t116.5 61.5q28 0 52 -10.5t32 -21.5q17 -23 9 -48z" />
    <glyph glyph-name="g" unicode="g" horiz-adv-x="528" 
d="M360 317q0 75 -36 109t-78 34q-45 0 -78.5 -33.5t-33.5 -109.5q0 -75 35 -110t77 -35q43 0 78.5 34.5t35.5 110.5zM507 405q-13 -10 -29 -8.5t-27 14.5q-10 16 -6 30q1 3 -3 3q-18 5 -39 -15q-6 -5 -10 -12q39 -37 39 -100t-52 -109.5t-134 -46.5q-56 0 -97 18
q-29 -3 -47.5 -32.5t-2.5 -58t73 -28.5h110q85 0 115 -9q71 -22 60 -103q0 -3 -1 -8.5t-7 -21.5t-16.5 -31.5t-32.5 -35.5t-51 -37q-102 -55 -195.5 -48.5t-126.5 63.5q-26 50 -6 97.5t74 81.5q-41 20 -41 73v8.5t4 21t11.5 28t26 26t43.5 19.5q-38 17 -57.5 53.5
t-19.5 79.5q0 63 51.5 108.5t132.5 45.5q89 0 140 -48q17 25 42.5 39t45.5 15q28 2 41 -16q10 -14 8 -30t-16 -26zM87 -153q35 -41 112 -51t144 28q37 24 56.5 53t20.5 46l1 17q0 2 -0.5 5.5t-6 12.5t-14 15.5t-27.5 12t-45 5.5h-140q-52 0 -82 11q-20 -14 -31.5 -30
t-14.5 -31t-1 -30t6.5 -26t10 -20.5t8.5 -13.5z" />
    <glyph glyph-name="h" unicode="h" horiz-adv-x="485" 
d="M471 10v-10h-149v10q28 8 34 19t6 50v224q0 61 -29 95t-85 34q-40 0 -70 -29t-43 -61v-263q0 -40 6.5 -50.5t34.5 -17.5v-11h-150v11q28 8 34 18.5t6 49.5v569q0 27 -9.5 38t-40.5 14v11l119 23v-379q11 45 56 80.5t95 35.5q144 0 144 -164v-228q0 -40 7 -51t34 -18z" />
    <glyph glyph-name="i" unicode="i" horiz-adv-x="226" 
d="M103 556q-18 0 -30 12.5t-12 29.5q0 18 12 30.5t30 12.5q17 0 30 -12.5t13 -30.5q0 -17 -13 -29.5t-30 -12.5zM188 11v-11h-149v11q28 8 34 18t6 49v306q0 27 -10 38.5t-40 15.5v10l118 23v-393q0 -40 6.5 -50t34.5 -17z" />
    <glyph glyph-name="j" unicode="j" horiz-adv-x="225" 
d="M102 556q-18 0 -30 12.5t-12 29.5q0 19 12 31t30 12t30.5 -12.5t12.5 -30.5q0 -17 -13 -29.5t-30 -12.5zM77 27v352q0 28 -9.5 41.5t-39.5 17.5v10l118 23v-421q0 -134 -39.5 -196t-119.5 -82v10q90 30 90 245z" />
    <glyph glyph-name="k" unicode="k" horiz-adv-x="493" 
d="M476 11v-11h-63q-51 0 -81 21.5t-87 96.5l-86 103l94 96l10.5 10.5t23.5 24.5t25.5 33.5t12.5 31.5t-10 25.5t-46 9.5v10h217v-10q-34 -1 -59.5 -12t-75 -53.5t-136.5 -133.5q16 -23 62 -75t83 -92l38 -40q31 -35 78 -35zM170 11v-11h-150v11q28 8 34 18t6 49v570
q0 27 -10 38.5t-40 14.5v11l119 22v-656q0 -40 6.5 -50t34.5 -17z" />
    <glyph glyph-name="l" unicode="l" horiz-adv-x="211" 
d="M183 11v-11h-150v11q28 8 34 18t6 49v570q0 27 -10 38.5t-40 14.5v11l119 22v-656q0 -40 6.5 -50t34.5 -17z" />
    <glyph glyph-name="m" unicode="m" horiz-adv-x="721" 
d="M707 10v-10h-149v10q28 8 34 18.5t6 49.5v226q0 129 -100 129q-39 0 -64.5 -28.5t-35.5 -61.5v-37v-228q0 -40 7 -50.5t34 -17.5v-10h-149v10q28 8 34 18.5t6 49.5v226q0 129 -99 129q-39 0 -65.5 -28t-36.5 -60v-267q0 -40 6.5 -50t34.5 -17v-11h-150v11q28 8 34 18
t6 49v304q0 28 -10 40t-40 16v10l119 23v-102q15 43 53 72.5t84 29.5q110 0 128 -108q14 45 52.5 76.5t85.5 31.5q65 0 99.5 -38t34.5 -125v-230q0 -40 6.5 -50.5t34.5 -17.5z" />
    <glyph glyph-name="n" unicode="n" horiz-adv-x="486" 
d="M462 10v-10h-149v10q28 8 34 18.5t6 49.5v226q0 60 -29.5 94.5t-84.5 34.5q-39 0 -69 -28.5t-41 -59.5v-267q0 -40 6.5 -50t34.5 -17v-11h-150v11q28 8 34 18t6 49v305q0 27 -10 39t-40 16v10l119 23v-103q15 42 58 72.5t90 30.5q66 0 105 -39t39 -124v-230
q0 -40 6.5 -50.5t34.5 -17.5z" />
    <glyph glyph-name="o" unicode="o" horiz-adv-x="534" 
d="M414 231q0 229 -146 229q-147 0 -147 -229t147 -229q146 0 146 229zM495 231q0 -104 -58.5 -172t-168.5 -68q-109 0 -168 68t-59 172t59 172t168 68q110 0 168.5 -67.5t58.5 -172.5z" />
    <glyph glyph-name="p" unicode="p" horiz-adv-x="547" 
d="M405 210q0 115 -40.5 174.5t-109.5 59.5q-53 0 -85 -32.5t-35 -87.5v-191q3 -61 36.5 -96t86.5 -35q59 0 103 48.5t44 159.5zM490 227q0 -112 -63.5 -174t-164.5 -62q-75 0 -127 41v-221q0 -40 6.5 -49t34.5 -16v-11h-150v11q29 8 34.5 17.5t5.5 47.5v575q0 27 -9.5 38
t-40.5 14v10l119 23v-76q21 36 62.5 56t83.5 20q102 0 155.5 -70t53.5 -174z" />
    <glyph glyph-name="q" unicode="q" horiz-adv-x="530" 
d="M389 122v214q-4 57 -38 90.5t-81 33.5q-58 0 -102 -47.5t-44 -159.5q0 -115 40 -177t109 -62q47 0 79.5 30t36.5 78zM499 -254v-11h-150v11q29 8 34.5 17.5t5.5 47.5v243q-23 -30 -61.5 -46.5t-76.5 -16.5q-102 0 -155.5 70.5t-53.5 175.5q0 111 63.5 172.5t164.5 61.5
q76 0 129 -42q18 26 45 34q14 5 14 -4v-648q0 -40 6.5 -49t34.5 -16z" />
    <glyph glyph-name="r" unicode="r" horiz-adv-x="336" 
d="M276 469q29 0 45 -22q11 -16 6.5 -35t-20.5 -29q-16 -11 -35 -6.5t-30 20.5q-10 16 -5 33q1 6 -6 6q-22 1 -57 -30q-28 -26 -41 -57v-271q0 -40 6.5 -50t34.5 -17v-11h-150v11q28 8 34 18t6 49v306q0 27 -10 38.5t-40 15.5v10l119 23v-100q21 43 63 70.5t80 27.5z" />
    <glyph glyph-name="s" unicode="s" horiz-adv-x="417" 
d="M338 38q-4 -5 -11.5 -13t-38.5 -21t-70 -13q-54 0 -97 9.5t-59 18.5l-16 9v141h10q2 -35 8.5 -60.5t22.5 -52t49 -40.5t82 -14q58 0 76.5 31t1 70t-56.5 64l-101 61q-71 49 -89 91t7 91q1 2 3.5 6.5t12.5 15t23 18.5t36.5 14.5t52.5 6.5q51 0 92 -8t56 -16l15 -8v-127
h-10q-8 148 -153 148q-52 0 -72.5 -27.5t-5 -65t58.5 -64.5l101 -63q68 -42 87.5 -97t-15.5 -105z" />
    <glyph glyph-name="t" unicode="t" horiz-adv-x="298" 
d="M276 75l8 -4q-9 -33 -36.5 -56.5t-65.5 -23.5q-56 0 -84.5 33.5t-28.5 119.5v307h-50l-2 11h52v147l69 9v-156h118l-2 -11h-116v-304q0 -65 20 -91.5t57 -26.5q21 0 38 13.5t23 32.5z" />
    <glyph glyph-name="u" unicode="u" horiz-adv-x="501" 
d="M484 18v-10l-97 -16q-10 -2 -16 1t-7 7v5v83q-11 -40 -50.5 -68.5t-89.5 -28.5q-151 0 -151 150v230q0 51 -7.5 61t-48.5 10v11l123 18v-327q0 -59 32 -87t81 -28q42 0 70.5 23.5t40.5 59.5v264q0 47 -6 56t-41 10v11l116 18v-392q0 -35 9.5 -46t41.5 -15z" />
    <glyph glyph-name="v" unicode="v" horiz-adv-x="515" 
d="M324 462h192v-10q-21 0 -31.5 -2t-25 -12.5t-28.5 -35t-31 -66.5l-126 -345h-8l-192 411q-4 8 -8.5 14.5t-9 11.5t-8 8.5t-8.5 6l-8 4t-8.5 2.5t-7 1.5t-6.5 1t-6 0.5v10h193v-10q-20 0 -31.5 -7t-13 -16.5t0 -19.5t4.5 -17l3 -7l137 -300l88 242q2 5 4.5 13.5t5 30
t-1 38t-21 30t-48.5 13.5v10z" />
    <glyph glyph-name="w" unicode="w" horiz-adv-x="716" 
d="M540 462h169v-10q-18 0 -31 -5t-31.5 -30t-34.5 -73l-118 -353h-7l-126 305l-104 -305h-8l-167 403q-22 52 -66 58v10h170v-10q-24 0 -31.5 -14.5t-2.5 -29.5l5 -14l122 -304l76 222l-35 82q-22 53 -60 58v10h171v-10q-29 0 -38 -15.5t-3 -30.5l6 -16l121 -300l85 260
q1 4 3 11t2.5 24.5t-4 31t-20.5 24.5t-43 11v10z" />
    <glyph glyph-name="x" unicode="x" horiz-adv-x="504" 
d="M405 66q6 -9 12.5 -16.5t13 -12.5t11.5 -9.5t12 -7t11 -4.5t10.5 -3t9 -1.5t8 -1t6.5 -0.5v-10h-181v10q18 0 22 11t-2 24.5t-13 24.5l-7 11l-80 116l-34 -48q-29 -44 -41 -65t-16.5 -41t9.5 -26.5t46 -6.5v-10h-191v10q21 0 31 2t34 13.5t53 44t67 86.5l35 50l-131 190
q-29 36 -44.5 45.5t-40.5 10.5v10h185v-10q-14 0 -22.5 -5.5t-6 -23t21.5 -45.5l76 -111l32 45q47 75 51 96q8 38 -42 43q-9 1 -21 1v10h207v-10q-21 0 -28 -1t-27.5 -8t-36 -21.5t-40.5 -44t-55 -73.5l-34 -47z" />
    <glyph glyph-name="y" unicode="y" horiz-adv-x="531" 
d="M323 462h192v-10q-24 0 -39.5 -8.5t-38 -45t-48.5 -108.5l-156 -433q-18 -53 -55 -84q-24 -18 -51 -6q-17 8 -23.5 25.5t0.5 33.5q8 17 25.5 24t33.5 -1q18 -7 23 -27q4 -14 19 4q10 13 18 33l49 139l-186 397q-23 50 -75 57v10h193v-10q-20 0 -30.5 -8t-11.5 -20
t1 -23.5t5 -19.5l4 -8l133 -286l73 205l3 9t6 22.5t6 32t0 34t-8.5 31.5t-22 22t-39.5 9v10z" />
    <glyph glyph-name="z" unicode="z" horiz-adv-x="397" 
d="M368 462l-249 -452q117 0 170 29.5t62 112.5h12l-9 -152h-325l258 452q-45 0 -76 -2.5t-62.5 -9.5t-51 -20t-33 -35.5t-17.5 -54.5h-12l5 132h328z" />
    <glyph glyph-name="braceleft" unicode="{" horiz-adv-x="319" 
d="M263 -157l-1 -7q-64 9 -99 47.5t-35 119.5v117q0 24 -1 43.5t-4.5 34t-6 25.5t-8.5 18.5t-9.5 12.5t-11.5 9t-12 5.5t-13 4t-13 3.5v7q2 1 14.5 5t15 5t12.5 7.5t13 13t9.5 19t8.5 28t4 38.5t2 52v117q0 81 35 119.5t99 47.5l1 -7q-75 -27 -75 -160v-144
q0 -73 -34 -108.5t-68 -35.5q35 0 68.5 -30.5t33.5 -102.5v-144q0 -134 75 -160z" />
    <glyph glyph-name="bar" unicode="|" horiz-adv-x="194" 
d="M73 -164v899h49v-899h-49z" />
    <glyph glyph-name="braceright" unicode="}" horiz-adv-x="320" 
d="M53 -164l-1 7q75 26 75 160v144q0 72 33.5 102.5t68.5 30.5q-34 0 -68 35.5t-34 108.5v144q0 133 -75 160l1 7q64 -9 99 -47.5t35 -119.5v-117q0 -29 2 -52t4 -38.5t8.5 -28t9.5 -19t13 -13t12.5 -7.5t15 -5t14.5 -5v-7q-4 -1 -13 -3.5t-13 -4t-12 -5.5t-11.5 -9
t-9.5 -12.5t-8.5 -18.5t-6 -25.5t-4.5 -34t-1 -43.5v-117q0 -81 -35 -119.5t-99 -47.5z" />
    <glyph glyph-name="asciitilde" unicode="~" horiz-adv-x="567" 
d="M329 221l-111 43q-19 7 -47 7.5t-59 -12t-44 -39.5l-6 2q15 39 39.5 64t48 31.5t45 7.5t34.5 -3l13 -3l113 -43q19 -5 47 -6.5t59 12t42 38.5l6 -2q-15 -40 -39.5 -64.5t-48 -31t-45 -8t-34.5 2.5z" />
    <glyph glyph-name="uni007F" horiz-adv-x="0" 
 />
    <glyph glyph-name="uni00A0" unicode="&#xa0;" horiz-adv-x="242" 
 />
    <glyph glyph-name="exclamdown" unicode="&#xa1;" horiz-adv-x="263" 
d="M114 390h39l17 -565h-74zM134 569q21 0 36 -14.5t15 -35.5t-15 -35.5t-36 -14.5t-35.5 14.5t-14.5 35.5t14.5 35.5t35.5 14.5z" />
    <glyph glyph-name="cent" unicode="&#xa2;" horiz-adv-x="513" 
d="M152 237q0 -94 40 -145.5t98 -61.5v429q-22 -4 -43 -15.5t-44 -35t-37 -68t-14 -103.5zM461 128l8 -3q-9 -47 -48 -88t-112 -46v-109h-19v109q-89 2 -152 64t-63 174q0 94 59 164.5t156 77.5v122h19v-122q51 0 84.5 -15t43 -28t12.5 -26q7 -23 -8 -40
q-11 -11 -27.5 -11.5t-27.5 9.5q-12 12 -12.5 28t11.5 27q11 11 26 11q7 -1 -4 8q-31 26 -98 26v-431q58 -1 98 29.5t54 69.5z" />
    <glyph glyph-name="sterling" unicode="&#xa3;" horiz-adv-x="635" 
d="M294 89q-52 38 -95 56q-52 20 -87.5 8.5t-53.5 -37.5t-12 -49q17 -65 93 -65q52 0 93 22.5t62 64.5zM248 172q39 -18 58 -33q5 34 -4.5 65t-37.5 76q-38 59 -54 83h-97v11h91q-37 70 -48 132t1 104.5t39 73.5t63.5 45t76 14t74.5 -15q60 -26 78 -89q7 -27 -18 -47
q-15 -13 -34.5 -11t-32.5 17q-13 16 -11 35.5t17 32.5q16 13 35 10q9 -1 1 13q-13 19 -40 29q-32 11 -62 12t-54.5 -9t-43 -28.5t-25.5 -49.5t-3.5 -69.5t23.5 -90t55 -109.5h177v-11h-169l34 -49q56 -91 11 -194q23 -15 48.5 -29t39.5 -20l15 -6q39 -17 80.5 -0.5
t43.5 59.5l12 -1q0 -36 -12.5 -63.5t-31.5 -41t-35.5 -20t-30.5 -7.5q-22 -1 -50 12t-46.5 25.5t-62.5 45.5q-55 -83 -178 -83q-11 0 -27 3t-42 21.5t-36 49.5q-6 19 3 46t33 50.5t68 28.5t109 -18z" />
    <glyph glyph-name="currency" unicode="&#xa4;" horiz-adv-x="530" 
d="M137 471q-52 -52 -52 -126q0 -73 52 -125t125 -52t125 52t52 126q0 71 -52 125q-52 52 -125 52t-125 -52zM437 204l69 -70l-32 -32l-71 69q-62 -51 -141 -51q-77 0 -141 51l-70 -69l-33 32l69 70q-50 62 -50 142q0 78 50 141l-69 69l33 34l70 -70q61 50 141 50
q82 0 141 -50l71 70l32 -34l-69 -69q50 -63 50 -141q0 -80 -50 -142z" />
    <glyph glyph-name="yen" unicode="&#xa5;" horiz-adv-x="571" 
d="M366 694v10h236v-10q-25 0 -37.5 -3.5t-35 -23t-50.5 -66t-68 -126.5l-79 -159h173v-14h-175v-67h175v-14h-175v-114q0 -60 17 -78t53 -18v-11h-209v11q36 0 53 18t17 78v114h-195v14h195v58l-5 9h-190v14h183l-173 300q-21 37 -39.5 54.5t-29 20t-34.5 4.5v9h225v-9
q-14 0 -21.5 -0.5t-19 -6.5t-13.5 -17t5 -34t26 -56l149 -256l80 162q15 30 24 51.5t17.5 47.5t7.5 43.5t-8 33.5t-27 23.5t-52 7.5z" />
    <glyph glyph-name="brokenbar" unicode="&#xa6;" horiz-adv-x="198" 
d="M119 735v-375h-48v375h48zM119 186v-377h-48v377h48z" />
    <glyph glyph-name="section" unicode="&#xa7;" horiz-adv-x="517" 
d="M185 414q-53 -34 -74.5 -72t-12.5 -72.5t31 -62.5t55 -52q10 -7 57 -39t62 -43q32 -22 35 -25q53 35 74 73t11.5 72.5t-31.5 62.5t-56 52q-34 25 -124 86zM347 40q44 -37 62.5 -73t11.5 -90q-5 -37 -21.5 -64t-38 -39.5t-47 -21t-47.5 -8t-39 0.5q-37 2 -70.5 25.5
t-42.5 50.5q-9 25 9 45q12 13 30 14t32 -11t15 -30.5t-12 -31.5q-15 -15 -31 -14q-10 1 9 -13q27 -19 57 -24q53 -7 97 17.5t50 75.5q7 45 -11 76.5t-76 74.5l-129 89q-45 32 -70.5 71t-29.5 82.5t26 91t94 88.5q-44 39 -62 74.5t-12 89.5q6 45 28 75t53.5 41.5t56.5 14.5
t51 2q38 -2 71 -26t43 -51q9 -26 -7 -45q-12 -14 -30.5 -14.5t-32.5 12.5q-13 12 -14 29.5t11 31.5q14 14 28 13q10 -1 -5 13q-24 21 -54 25q-62 6 -104 -17t-49 -76q-6 -44 12.5 -75.5t77.5 -76.5l128 -88q61 -43 87.5 -97t3 -118.5t-108.5 -118.5z" />
    <glyph glyph-name="dieresis" unicode="&#xa8;" horiz-adv-x="207" 
d="M136 646q0 17 11.5 29t28.5 12t28.5 -12t11.5 -29q0 -16 -12 -27.5t-28 -11.5t-28 11.5t-12 27.5zM-9 646q0 17 11.5 29t28.5 12q16 0 28 -12t12 -29q0 -16 -12 -27.5t-28 -11.5q-17 0 -28.5 11.5t-11.5 27.5z" />
    <glyph glyph-name="copyright" unicode="&#xa9;" horiz-adv-x="792" 
d="M515 276h8l5 -86q-31 -21 -58 -28t-72 -7q-89 0 -142.5 53.5t-53.5 150.5t53.5 149.5t142.5 52.5q47 0 76 -7t54 -27l-5 -86h-8q-4 109 -117 109q-25 0 -44.5 -5.5t-43 -23t-36.5 -58.5t-13 -104q0 -52 10.5 -90t24.5 -57t34.5 -30t35 -13.5t32.5 -2.5q113 0 117 110z
M392 43q134 0 229.5 95.5t95.5 229.5t-95.5 230t-229.5 96t-229.5 -96t-95.5 -230t95.5 -229.5t229.5 -95.5zM392 730q151 0 257.5 -106t106.5 -256q0 -151 -106.5 -256.5t-257.5 -105.5t-257 105.5t-106 256.5q0 150 106 256t257 106z" />
    <glyph glyph-name="ordfeminine" unicode="&#xaa;" horiz-adv-x="283" 
d="M153 583q-50 -12 -73.5 -27t-23.5 -39q0 -19 11.5 -31.5t34.5 -12.5q39 0 51 37v73zM228 490l10 -3q-3 -34 -45 -34q-4 0 -10.5 1t-17.5 10t-11 25q-5 -16 -26 -26t-49 -10h-6t-14.5 3t-18 8t-14 16.5t-6.5 26.5q0 35 29 52t104 36v29q0 41 -18.5 58.5t-51.5 2.5
q-23 -11 -23 -17q8 0 14 -8q5 -7 4 -16t-8 -14q-16 -14 -30 3q-7 10 -2 23q6 20 40 38q10 5 22 7.5t19 2.5h7q36 0 50 -26.5t14 -78.5v-94q0 -4 0.5 -9t6.5 -13.5t16 -8.5q13 0 15 16z" />
    <glyph glyph-name="guillemotleft" unicode="&#xab;" horiz-adv-x="610" 
d="M522 505v-20l-161 -219l161 -214v-19l-231 233zM318 505v-20l-162 -219l162 -214v-19l-231 233z" />
    <glyph glyph-name="logicalnot" unicode="&#xac;" horiz-adv-x="638" 
d="M41 388h550v-302h-52v253h-498v49z" />
    <glyph glyph-name="uni00AD" unicode="&#xad;" horiz-adv-x="444" 
d="M379 227h-315v55h315v-55z" />
    <glyph glyph-name="registered" unicode="&#xae;" horiz-adv-x="802" 
d="M352 357q27 0 39 0.5t30.5 5.5t26.5 15t14.5 29t6.5 48q0 27 -7 45.5t-15.5 28t-27 14.5t-30.5 5.5t-37 0.5h-17v-192h17zM516 222q6 -41 57 -41v-11h-42h-17t-12 1.5t-9.5 3t-7 7t-5.5 9.5t-4.5 15.5t-5 20.5t-6 28t-8.5 36q-6 24 -29.5 38t-44.5 15l-21 2h-26v-118
q0 -28 7.5 -37.5t25.5 -9.5v-11h-105v11q19 0 25.5 10t6.5 47v274q0 25 -6.5 31t-25.5 6v11h89q90 0 126.5 -20t36.5 -85q0 -100 -93 -104q11 0 18.5 -1.5t20.5 -9t22 -20t18.5 -38t14.5 -60.5zM393 730q151 0 257.5 -105.5t106.5 -256.5q0 -150 -106.5 -256t-257.5 -106
t-257 106t-106 256q0 151 106 256.5t257 105.5zM393 44q134 0 229.5 95t95.5 229q0 135 -95.5 230.5t-229.5 95.5t-229.5 -95.5t-95.5 -230.5q0 -134 95.5 -229t229.5 -95z" />
    <glyph glyph-name="macron" unicode="&#xaf;" horiz-adv-x="360" 
d="M377 601h-393v42h393v-42z" />
    <glyph glyph-name="degree" unicode="&#xb0;" horiz-adv-x="381" 
d="M85 607q0 -42 30 -71.5t73 -29.5q41 0 71 29.5t30 71.5q0 41 -30 71t-71 30q-43 0 -73 -30t-30 -71zM57 607q0 54 38.5 92t91.5 38t91.5 -38t38.5 -92q0 -53 -38.5 -90.5t-91.5 -37.5t-91.5 37.5t-38.5 90.5z" />
    <glyph glyph-name="plusminus" unicode="&#xb1;" horiz-adv-x="608" 
d="M326 363h234v-52h-234v-171h-52v171h-233v52h233v173h52v-173zM41 0v52h519v-52h-519z" />
    <glyph glyph-name="twosuperior" unicode="&#xb2;" horiz-adv-x="256" 
d="M199 434h11l-15 -56h-164l100 152q54 78 20 121q-22 29 -60 21q-39 -8 -46 -48q-1 -4 -1 -7l-12 1q0 25 9 43t21 26t24 12.5t20 4.5h9q34 0 56.5 -22.5t22.5 -54.5q0 -20 -11.5 -42t-41.5 -61l-76 -115h95q24 0 39 25z" />
    <glyph glyph-name="threesuperior" unicode="&#xb3;" horiz-adv-x="257" 
d="M217 469q0 -37 -18.5 -59.5t-40 -29t-45.5 -6.5q-51 0 -74 27q-4 4 -4 11t2 11q11 18 28 9q18 -9 9 -28q-5 -8 -10 -9l8 -5q16 -6 41 -6q76 0 69 79q-7 72 -87 74v10q49 4 64.5 47t-19.5 73q-25 22 -58.5 9t-36.5 -47l-12 1q1 26 12.5 42.5t30 22.5t27.5 7.5t17 1.5
q38 0 61 -31t13.5 -69t-52.5 -54q36 -6 55.5 -29.5t19.5 -51.5z" />
    <glyph glyph-name="acute" unicode="&#xb4;" horiz-adv-x="338" 
d="M87 557l181 161l65 -19l-231 -142h-15z" />
    <glyph glyph-name="mu" unicode="&#xb5;" horiz-adv-x="497" 
d="M478 18v-10l-97 -16q-10 -2 -16 1t-7 7v5v83q-8 -35 -43 -62t-82.5 -33t-98.5 21v-189q0 -36 9.5 -47.5t41.5 -15.5v-10l-96 -16q-10 -2 -15.5 1t-5.5 7l-1 5v622q0 51 -7 60.5t-49 10.5v11l123 18v-338q4 -54 35.5 -79t77.5 -25q42 0 70.5 23.5t40.5 59.5v264
q0 47 -6 56t-41 10v11l116 18v-392q0 -35 9.5 -46t41.5 -15z" />
    <glyph glyph-name="paragraph" unicode="&#xb6;" horiz-adv-x="613" 
d="M449 588v-727q0 -115 75 -115v-11h-129v969h136v-12q-38 0 -60 -26.5t-22 -77.5zM288 704h51v-969h-157v11q43 0 74 20t31 68v466q-56 0 -97.5 8.5t-78 29t-55.5 61.5t-19 101q0 202 250 204h1z" />
    <glyph glyph-name="periodcentered" unicode="&#xb7;" horiz-adv-x="241" 
d="M118 259q-16 0 -28 11.5t-12 28.5t12 28.5t28 11.5q17 0 29 -12t12 -28t-12 -28t-29 -12z" />
    <glyph glyph-name="cedilla" unicode="&#xb8;" horiz-adv-x="261" 
d="M106 -4h12l-23 -64q65 15 99.5 -11.5t28.5 -68.5q-10 -79 -101 -79q-45 0 -63 22q-7 10 -2 22q9 19 29 10q18 -9 9 -28q-4 -7 -11 -9q-2 0 1.5 -2.5t13.5 -5.5t23 -3q28 0 46 16t18 46q0 13 -4.5 26.5t-16.5 27.5t-33.5 17.5t-54.5 -2.5z" />
    <glyph glyph-name="onesuperior" unicode="&#xb9;" horiz-adv-x="191" 
d="M117 426q0 -16 6 -24.5t11.5 -9.5t16.5 -1v-11h-102v11q12 0 18.5 1.5t12 9.5t5.5 24v212q0 33 -39 5l-7 9l63 52h15v-278z" />
    <glyph glyph-name="ordmasculine" unicode="&#xba;" horiz-adv-x="322" 
d="M160 384q86 0 86 153q0 159 -86 159t-86 -159q0 -153 86 -153zM160 707q49 0 78.5 -28t38.5 -63t9 -79q0 -43 -9 -76.5t-38.5 -60.5t-78.5 -27q-126 0 -126 164q0 170 126 170z" />
    <glyph glyph-name="guillemotright" unicode="&#xbb;" horiz-adv-x="609" 
d="M84 485v20l231 -239l-231 -233v19l161 214zM288 485v20l231 -239l-231 -233v19l162 214z" />
    <glyph glyph-name="onequarter" unicode="&#xbc;" horiz-adv-x="611" 
d="M148 674q0 38 -44 3l-7 9l69 60h17v-320q0 -27 9.5 -33.5t28.5 -6.5v-11h-112v11q13 0 20 2t13 11t6 27v248zM453 131v182l-110 -164q-6 -9 -6.5 -12.5t2.5 -4.5t12 -1h102zM493 366v-235h48v-22h-48v-47q0 -24 5 -35.5t11.5 -13.5t19.5 -2v-11h-112v11q10 0 15 1
t10.5 5.5t8 15t2.5 27.5v49h-148v6l170 252zM571 709h43l-558 -673h-42z" />
    <glyph glyph-name="onehalf" unicode="&#xbd;" horiz-adv-x="638" 
d="M587 65h7l-18 -65h-186l113 174q60 87 24 138q-23 32 -66 27q-45 -6 -58 -49l-3 -17l-9 2q1 29 11 49.5t23.5 29.5t27.5 14t23 5h10q39 0 64 -25.5t25 -61.5q0 -24 -13.5 -48.5t-47.5 -70.5l-88 -131h110q34 0 51 29zM147 674q0 11 -3 16t-9.5 4t-13.5 -5t-17 -12l-7 9
l69 60h17v-320q0 -19 6.5 -28t12.5 -10.5t18 -1.5v-11h-111v11q13 0 20 2t12.5 11t5.5 27v248zM571 709h43l-558 -673h-42z" />
    <glyph glyph-name="threequarters" unicode="&#xbe;" horiz-adv-x="606" 
d="M454 130v182l-110 -163q-8 -14 -6.5 -16.5t14.5 -2.5h102zM542 108h-48v-47q0 -23 5 -34.5t11.5 -13.5t19.5 -2v-11h-112v11q13 0 19.5 2t11.5 13t5 33v49h-148v7l170 251l18 -1v-235h48v-22zM262 481q0 -32 -11.5 -55t-31 -33.5t-37.5 -15t-38 -4.5q-59 0 -84 30
q-11 12 -2 25q12 20 31 10q20 -12 10 -32q-5 -8 -9 -8q-3 -1 2 -4t19 -6.5t33 -3.5q42 0 62 20.5t16 69.5q-3 33 -26 58.5t-73 26.5v9q36 3 57.5 27.5t20 55.5t-26.5 53q-28 24 -66 9t-41 -52l-13 2q1 23 11 40t22 25t28 12.5t23 5t13 0.5q32 0 55.5 -22t30 -50.5
t-8.5 -58.5t-51 -44q40 -6 62 -32t23 -58zM571 709h43l-558 -673h-42z" />
    <glyph glyph-name="questiondown" unicode="&#xbf;" horiz-adv-x="584" 
d="M268 419q0 22 15.5 37.5t38.5 15.5q22 0 37 -15.5t15 -37.5t-15 -37.5t-37 -15.5t-38 15.5t-16 37.5zM257 147q71 34 63 135l17 2q15 -99 -52 -156q-45 -39 -58 -56q-46 -58 -38 -153q5 -61 30 -99.5t60 -51.5t71 -11.5t71 14.5q38 14 39 36q0 11 -9 12q-16 1 -28 18
q-10 16 -7 34.5t18 29.5q15 10 33.5 6.5t29.5 -19.5q13 -16 5 -46q-4 -17 -24.5 -41.5t-51.5 -37.5q-83 -33 -154 -26t-119 55.5t-52 122.5q-7 153 156 232z" />
    <glyph glyph-name="Agrave" unicode="&#xc0;" horiz-adv-x="674" 
d="M438 233h-263l127 351zM660 11q-18 1 -27.5 5t-24 23.5t-29.5 57.5q-182 460 -243 607h-7l-165 -455q-39 -110 -66 -162.5t-42.5 -64t-41.5 -11.5v-11h212v11q-24 0 -41.5 3t-27.5 12.5t-16.5 18t-6 27t1.5 30t8.5 37.5t12 39t15.5 44h270l36 -95q50 -116 -17 -116v-11
h199v11zM263 895l181 -161h-15l-231 142z" />
    <glyph glyph-name="Aacute" unicode="&#xc1;" horiz-adv-x="674" 
d="M175 233h263l-136 351zM660 11v-11h-199v11q67 0 17 116l-36 95h-270q-11 -31 -15.5 -44t-12 -39t-8.5 -37.5t-1.5 -30t6 -27t16.5 -18t27.5 -12.5t41.5 -3v-11h-212v11q26 0 41.5 11.5t42.5 64t66 162.5l165 455h7l243 -607q15 -38 29.5 -57.5t24 -23.5t27.5 -5z
M216 734l181 161l65 -19l-231 -142h-15z" />
    <glyph glyph-name="Acircumflex" unicode="&#xc2;" horiz-adv-x="674" 
d="M438 233h-263l127 351zM660 11q-18 1 -27.5 5t-24 23.5t-29.5 57.5q-182 460 -243 607h-7l-165 -455q-39 -110 -66 -162.5t-42.5 -64t-41.5 -11.5v-11h212v11q-24 0 -41.5 3t-27.5 12.5t-16.5 18t-6 27t1.5 30t8.5 37.5t12 39t15.5 44h270l36 -95q50 -116 -17 -116v-11
h199v11zM448 735l-119 115l-119 -115h-17l136 188l136 -188h-17z" />
    <glyph glyph-name="Atilde" unicode="&#xc3;" horiz-adv-x="674" 
d="M377 775l-112 44q-19 7 -46.5 7.5t-58.5 -12t-43 -40.5l-6 2q15 40 39 64.5t47.5 31.5t45 8t34.5 -2l13 -4l112 -43q19 -5 47.5 -6.5t59 12.5t41.5 39l7 -3q-15 -40 -39.5 -65t-48 -31.5t-45 -8t-34.5 2.5zM175 233h263l-136 351zM660 11v-11h-199v11q67 0 17 116l-36 95
h-270q-11 -31 -15.5 -44t-12 -39t-8.5 -37.5t-1.5 -30t6 -27t16.5 -18t27.5 -12.5t41.5 -3v-11h-212v11q26 0 41.5 11.5t42.5 64t66 162.5l165 455h7l243 -607q15 -38 29.5 -57.5t24 -23.5t27.5 -5z" />
    <glyph glyph-name="Adieresis" unicode="&#xc4;" horiz-adv-x="674" 
d="M366 824q0 17 11.5 29t27.5 12q17 0 29 -12t12 -29q0 -16 -12 -28t-29 -12q-16 0 -27.5 11.5t-11.5 28.5zM220 824q0 17 11.5 29t28.5 12t28.5 -12t11.5 -29q0 -16 -12 -28t-28 -12t-28 12t-12 28zM175 233h263l-136 351zM660 11v-11h-199v11q67 0 17 116l-36 95h-270
q-11 -31 -15.5 -44t-12 -39t-8.5 -37.5t-1.5 -30t6 -27t16.5 -18t27.5 -12.5t41.5 -3v-11h-212v11q26 0 41.5 11.5t42.5 64t66 162.5l165 455h7l243 -607q15 -38 29.5 -57.5t24 -23.5t27.5 -5z" />
    <glyph glyph-name="Aring" unicode="&#xc5;" horiz-adv-x="674" 
d="M266 880q0 -28 19.5 -47.5t47.5 -19.5t47.5 19.5t19.5 47.5t-19.5 48t-47.5 20t-47.5 -19.5t-19.5 -48.5zM238 880q0 40 27.5 68t67.5 28t67.5 -28t27.5 -68q0 -39 -27.5 -67t-67.5 -28t-67.5 28t-27.5 67zM175 233h263l-136 351zM660 11v-11h-199v11q67 0 17 116l-36 95
h-270q-11 -31 -15.5 -44t-12 -39t-8.5 -37.5t-1.5 -30t6 -27t16.5 -18t27.5 -12.5t41.5 -3v-11h-212v11q26 0 41.5 11.5t42.5 64t66 162.5l165 455h7l243 -607q15 -38 29.5 -57.5t24 -23.5t27.5 -5z" />
    <glyph glyph-name="AE" unicode="&#xc6;" horiz-adv-x="926" 
d="M223 244h226v369q0 3 -0.5 18t-0.5 17zM839 202h11v-202h-457v11q32 0 44 19.5t12 76.5v126h-232q-38 -69 -55.5 -110t-17.5 -67t18 -35.5t57 -9.5v-11h-214v11q26 0 47 13t62 68.5t101 163.5l228 410q-6 17 -17.5 22t-36.5 5v11h448v-175h-11q-1 34 -9.5 60t-20 43.5
t-32.5 29t-38 18t-46 9.5t-48 3.5t-52 0.5h-49v-333h64q20 0 29 0.5t30 5.5t31.5 14.5t20.5 30t11 49.5h11v-210h-11q-1 29 -11 49.5t-21 30t-32 14t-29.5 5t-28.5 0.5h-64v-338h36h13q37 0 55.5 0.5t50 4t48 10.5t39 20.5t34 33.5t21 51t11.5 71z" />
    <glyph glyph-name="Ccedilla" unicode="&#xc7;" horiz-adv-x="660" 
d="M597 206h11l10 -153q-55 -37 -102.5 -49.5t-128.5 -12.5q-12 0 -26 1l-20 -56q65 15 99.5 -11.5t28.5 -68.5q-10 -79 -101 -79q-45 0 -63 22q-7 10 -2 22q9 19 29 10q18 -9 9 -28q-4 -7 -11 -9q-2 0 1.5 -2.5t13.5 -5.5t23 -3q28 0 46 16t18 46q0 13 -4.5 26.5
t-16.5 27.5t-33.5 17.5t-54.5 -2.5l26 79q-141 11 -225 104.5t-84 254.5q0 174 94.5 267.5t252.5 93.5q83 0 134.5 -12.5t96.5 -48.5l-10 -153h-11q-4 51 -21.5 90t-39.5 59.5t-51.5 33.5t-52 16.5t-45.5 3.5q-36 0 -65 -5.5t-64.5 -27t-59 -57.5t-40 -102.5t-16.5 -157.5
q0 -67 8.5 -121t22.5 -90t35 -62.5t41.5 -40.5t46.5 -22.5t46.5 -11t44.5 -2.5q28 0 58.5 8t66 28t59.5 63.5t26 104.5z" />
    <glyph glyph-name="Egrave" unicode="&#xc8;" horiz-adv-x="578" 
d="M503 203h-11q-2 -31 -8 -57t-14 -45t-22.5 -33.5t-26 -24t-33.5 -16t-35.5 -9.5t-40.5 -5t-40.5 -2h-43.5h-13h-51v339h80q17 0 28.5 -0.5t31.5 -6t32.5 -15.5t23 -30t11.5 -48h11v210h-11q-1 -28 -11 -48t-22.5 -29.5t-33 -15t-32 -6t-28.5 -0.5h-80v332h64
q34 0 53 -0.5t49 -3.5t47.5 -9.5t38.5 -18t33 -29t20.5 -43.5t9.5 -60h11v175h-459v-11q32 0 41.5 -16t9.5 -64v-506q0 -53 -10.5 -74.5t-40.5 -21.5v-11h472v203zM233 895l181 -161h-15l-231 142z" />
    <glyph glyph-name="Eacute" unicode="&#xc9;" horiz-adv-x="578" 
d="M492 203h11v-203h-472v11q30 0 40.5 21.5t10.5 74.5v506q0 48 -9.5 64t-41.5 16v11h459v-175h-11q-1 34 -9.5 60t-20.5 43.5t-33 29t-38.5 18t-47.5 9.5t-49 3.5t-53 0.5h-64v-332h80q17 0 28.5 0.5t32 6t33 15t22.5 29.5t11 48h11v-210h-11q-1 28 -11.5 48t-23 30
t-32.5 15.5t-31.5 6t-28.5 0.5h-80v-339h51h13h43.5t40.5 2t40.5 5t35.5 9.5t33 16t26.5 24t22.5 33.5t14 45t8 57zM148 734l181 161l65 -19l-231 -142h-15z" />
    <glyph glyph-name="Ecircumflex" unicode="&#xca;" horiz-adv-x="578" 
d="M503 203h-11q-2 -31 -8 -57t-14 -45t-22.5 -33.5t-26 -24t-33.5 -16t-35.5 -9.5t-40.5 -5t-40.5 -2h-43.5h-13h-51v339h80q17 0 28.5 -0.5t31.5 -6t32.5 -15.5t23 -30t11.5 -48h11v210h-11q-1 -28 -11 -48t-22.5 -29.5t-33 -15t-32 -6t-28.5 -0.5h-80v332h64
q34 0 53 -0.5t49 -3.5t47.5 -9.5t38.5 -18t33 -29t20.5 -43.5t9.5 -60h11v175h-459v-11q32 0 41.5 -16t9.5 -64v-506q0 -53 -10.5 -74.5t-40.5 -21.5v-11h472v203zM393 735l-119 115l-119 -115h-17l136 188l136 -188h-17z" />
    <glyph glyph-name="Edieresis" unicode="&#xcb;" horiz-adv-x="578" 
d="M304 824q0 17 11.5 29t28.5 12q16 0 28 -12t12 -29q0 -16 -12 -28t-28 -12q-17 0 -28.5 11.5t-11.5 28.5zM159 824q0 17 11.5 29t27.5 12q17 0 29 -12t12 -29q0 -16 -12 -28t-29 -12q-16 0 -27.5 11.5t-11.5 28.5zM492 203h11v-203h-472v11q30 0 40.5 21.5t10.5 74.5v506
q0 48 -9.5 64t-41.5 16v11h459v-175h-11q-1 34 -9.5 60t-20.5 43.5t-33 29t-38.5 18t-47.5 9.5t-49 3.5t-53 0.5h-64v-332h80q17 0 28.5 0.5t32 6t33 15t22.5 29.5t11 48h11v-210h-11q-1 28 -11.5 48t-23 30t-32.5 15.5t-31.5 6t-28.5 0.5h-80v-339h51h13h43.5t40.5 2
t40.5 5t35.5 9.5t33 16t26.5 24t22.5 33.5t14 45t8 57z" />
    <glyph glyph-name="Igrave" unicode="&#xcc;" horiz-adv-x="292" 
d="M255 704h-206v-10q35 0 49 -14.5t14 -59.5v-520q0 -50 -15 -69.5t-48 -19.5v-11h206v11q-33 0 -47.5 19.5t-14.5 69.5v520q0 44 14 59t48 15v10zM87 895l181 -161h-15l-231 142z" />
    <glyph glyph-name="Iacute" unicode="&#xcd;" horiz-adv-x="292" 
d="M49 704h206v-10q-34 0 -48 -15t-14 -59v-520q0 -50 14.5 -69.5t47.5 -19.5v-11h-206v11q33 0 48 19.5t15 69.5v520q0 45 -14 59.5t-49 14.5v10zM43 734l181 161l65 -19l-231 -142h-15z" />
    <glyph glyph-name="Icircumflex" unicode="&#xce;" horiz-adv-x="292" 
d="M255 704h-206v-10q35 0 49 -14.5t14 -59.5v-520q0 -50 -15 -69.5t-48 -19.5v-11h206v11q-33 0 -47.5 19.5t-14.5 69.5v520q0 44 14 59t48 15v10zM272 735l-119 115l-119 -115h-17l136 188l136 -188h-17z" />
    <glyph glyph-name="Idieresis" unicode="&#xcf;" horiz-adv-x="292" 
d="M225 785q-17 0 -28.5 11.5t-11.5 27.5q0 17 11.5 29t28.5 12t28.5 -12t11.5 -29q0 -16 -11.5 -27.5t-28.5 -11.5zM120 824q0 -16 -12 -27.5t-28 -11.5q-17 0 -28.5 11t-11.5 28t11.5 29t28.5 12q16 0 28 -12t12 -29zM49 694v10h207v-10q-34 0 -48.5 -15t-14.5 -59v-520
q0 -49 15 -69t48 -20v-11h-207v11q33 0 48 19.5t15 69.5v520q0 45 -14 59.5t-49 14.5z" />
    <glyph glyph-name="Eth" unicode="&#xd0;" horiz-adv-x="670" 
d="M532 351q0 68 -10.5 122.5t-26.5 89.5t-42 61t-49.5 39t-56 20.5t-55 9t-53.5 1.5h-44v-332h142v-21h-142v-330h44q27 0 40.5 0.5t41.5 3.5t44.5 8.5t41.5 17t40 28t33.5 42.5t28 59t16.5 79t7 102zM625 351q0 -89 -22 -154.5t-56 -102.5t-87 -59t-103.5 -28.5
t-117.5 -6.5h-190v11q63 0 63 99v231h-100v21h100v234q0 98 -63 98v10h190q65 0 117.5 -8.5t104 -32t86.5 -61.5t56.5 -102t21.5 -149z" />
    <glyph glyph-name="Ntilde" unicode="&#xd1;" horiz-adv-x="771" 
d="M425 775l-112 44q-19 7 -46.5 7.5t-58.5 -12t-43 -40.5l-6 2q15 40 39 64.5t47.5 31.5t45 8t34.5 -2l13 -4l112 -43q19 -5 47 -6.5t59 12.5t42 39l7 -3q-16 -40 -40 -65t-47.5 -31.5t-45 -8t-34.5 2.5zM478 704h277v-10q-23 0 -42 -4t-32.5 -9t-24 -18t-17 -21t-11 -29.5
t-7 -31t-3.5 -38.5t-1 -39.5v-45.5v-458h-21l-420 548v-300q0 -44 0.5 -65t4 -54.5t11.5 -50t22 -34.5t37 -25.5t54 -7.5v-11h-282v11q34 0 59 7t40.5 25t24.5 35t12.5 50t4.5 55t1 65v313l-42 55q-9 12 -18 21.5t-16 17t-15 13.5t-13 9.5t-12 6.5t-10 4.5t-10 3t-8.5 1.5
t-8.5 0.5t-8 0.5v10h155l447 -588v342q0 34 -0.5 50.5t-1.5 44.5t-4.5 41.5t-9.5 33t-15.5 29t-22.5 19.5t-31.5 14t-42.5 4v10z" />
    <glyph glyph-name="Ograve" unicode="&#xd2;" horiz-adv-x="726" 
d="M583 347q0 -345 -227 -345q-229 0 -229 345q0 99 18.5 170.5t52 110.5t72.5 56.5t86 17.5t85.5 -17.5t71.5 -56.5t51.5 -110.5t18.5 -170.5zM671 347q0 103 -32 183.5t-104.5 131.5t-178.5 51t-178.5 -51t-104.5 -131.5t-32 -183.5q0 -159 79 -257.5t236 -98.5t236 98.5
t79 257.5zM291 895l181 -161h-15l-231 142z" />
    <glyph glyph-name="Oacute" unicode="&#xd3;" horiz-adv-x="726" 
d="M583 347q0 99 -18.5 170.5t-51.5 110.5t-71.5 56.5t-85.5 17.5t-86 -17.5t-72.5 -56.5t-52 -110.5t-18.5 -170.5q0 -345 229 -345q227 0 227 345zM671 347q0 -159 -79 -257.5t-236 -98.5t-236 98.5t-79 257.5q0 103 32 183.5t104.5 131.5t178.5 51t178.5 -51
t104.5 -131.5t32 -183.5zM235 734l181 161l65 -19l-231 -142h-15z" />
    <glyph glyph-name="Ocircumflex" unicode="&#xd4;" horiz-adv-x="726" 
d="M583 347q0 -345 -227 -345q-229 0 -229 345q0 99 18.5 170.5t52 110.5t72.5 56.5t86 17.5t85.5 -17.5t71.5 -56.5t51.5 -110.5t18.5 -170.5zM671 347q0 103 -32 183.5t-104.5 131.5t-178.5 51t-178.5 -51t-104.5 -131.5t-32 -183.5q0 -159 79 -257.5t236 -98.5t236 98.5
t79 257.5zM472 735l-119 115l-119 -115h-17l136 188l136 -188h-17z" />
    <glyph glyph-name="Otilde" unicode="&#xd5;" horiz-adv-x="726" 
d="M292 818q-19 7 -47 8t-58.5 -11.5t-43.5 -40.5l-6 2q15 40 39.5 64.5t47.5 31.5t44.5 8t34.5 -2l13 -4l113 -44q19 -5 47 -6t59 13t42 39l6 -3q-15 -40 -39.5 -65t-48 -31.5t-45 -8t-34.5 2.5l-13 4zM583 347q0 -345 -227 -345q-229 0 -229 345q0 99 18.5 170.5t52 110.5
t72.5 56.5t86 17.5t85.5 -17.5t71.5 -56.5t51.5 -110.5t18.5 -170.5zM671 347q0 103 -32 183.5t-104.5 131.5t-178.5 51t-178.5 -51t-104.5 -131.5t-32 -183.5q0 -159 79 -257.5t236 -98.5t236 98.5t79 257.5z" />
    <glyph glyph-name="Odieresis" unicode="&#xd6;" horiz-adv-x="726" 
d="M390 824q0 17 11.5 29t27.5 12q17 0 29 -12t12 -29q0 -16 -12 -28t-29 -12q-16 0 -27.5 11.5t-11.5 28.5zM245 824q0 17 11.5 29t27.5 12q17 0 28.5 -12t11.5 -29q0 -16 -12 -28t-28 -12t-27.5 11.5t-11.5 28.5zM583 347q0 99 -18.5 170.5t-51.5 110.5t-71.5 56.5
t-85.5 17.5t-86 -17.5t-72.5 -56.5t-52 -110.5t-18.5 -170.5q0 -345 229 -345q227 0 227 345zM671 347q0 -159 -79 -257.5t-236 -98.5t-236 98.5t-79 257.5q0 103 32 183.5t104.5 131.5t178.5 51t178.5 -51t104.5 -131.5t32 -183.5z" />
    <glyph glyph-name="multiply" unicode="&#xd7;" horiz-adv-x="600" 
d="M343 254l198 -198l-43 -44l-198 199l-197 -199l-44 44l198 198l-198 198l44 44l197 -198l198 197l43 -43z" />
    <glyph glyph-name="Oslash" unicode="&#xd8;" horiz-adv-x="727" 
d="M357 2q227 0 227 346q0 166 -57 258l-320 -541q55 -63 150 -63zM128 348q0 -180 67 -267l322 543q-56 78 -160 78q-38 0 -70 -10t-62 -35.5t-51 -65t-33.5 -101.5t-12.5 -142zM553 650q119 -96 119 -302q0 -159 -79 -258t-236 -99q-99 0 -169 42l-40 -68h-21l46 78
q-131 89 -131 305q0 103 32 183.5t104.5 131t178.5 50.5q109 0 182 -51l50 83h21z" />
    <glyph glyph-name="Ugrave" unicode="&#xd9;" horiz-adv-x="684" 
d="M265 895l181 -161h-15l-231 142zM308 -9q110 0 176 62.5t65 180.5v259v13v46.5t1.5 38t4.5 33.5t8.5 25t14 20.5t21 12.5t29 9t38.5 2v11h-238v-11q32 0 52.5 -8t32 -20.5t17 -41t7 -54.5t1.5 -76v-259q0 -97 -50.5 -151.5t-137.5 -54.5q-88 0 -139 52.5t-51 147.5v377
q0 56 17.5 72t55.5 16v11h-215v-11q35 0 50.5 -17.5t15.5 -68.5v-370q0 -118 62.5 -182t161.5 -64z" />
    <glyph glyph-name="Uacute" unicode="&#xda;" horiz-adv-x="684" 
d="M308 -9q-99 0 -161.5 64t-62.5 182v370q0 51 -15.5 68.5t-50.5 17.5v11h215v-11q-38 0 -55.5 -16t-17.5 -72v-377q0 -95 51 -147.5t139 -52.5q87 0 137.5 54.5t50.5 151.5v259q0 50 -1.5 76t-7 54.5t-17 41t-32 20.5t-52.5 8v11h238v-11q-22 0 -38.5 -2t-29 -9t-21 -12.5
t-14 -20.5t-8.5 -25t-4.5 -33.5t-1.5 -37.5v-47v-13v-259q1 -118 -65 -180.5t-176 -62.5zM225 734l181 161l65 -19l-231 -142h-15z" />
    <glyph glyph-name="Ucircumflex" unicode="&#xdb;" horiz-adv-x="684" 
d="M456 735l-119 115l-119 -115h-17l136 188l136 -188h-17zM308 -9q110 0 176 62.5t65 180.5v259v13v46.5t1.5 38t4.5 33.5t8.5 25t14 20.5t21 12.5t29 9t38.5 2v11h-238v-11q32 0 52.5 -8t32 -20.5t17 -41t7 -54.5t1.5 -76v-259q0 -97 -50.5 -151.5t-137.5 -54.5
q-88 0 -139 52.5t-51 147.5v377q0 56 17.5 72t55.5 16v11h-215v-11q35 0 50.5 -17.5t15.5 -68.5v-370q0 -118 62.5 -182t161.5 -64z" />
    <glyph glyph-name="Udieresis" unicode="&#xdc;" horiz-adv-x="684" 
d="M373 824q0 17 11.5 29t27.5 12q17 0 29 -12t12 -29q0 -16 -12 -28t-29 -12q-16 0 -27.5 11.5t-11.5 28.5zM228 824q0 17 11.5 29t27.5 12q17 0 28.5 -12t11.5 -29q0 -16 -11.5 -28t-28.5 -12q-16 0 -27.5 11.5t-11.5 28.5zM308 -9q-99 0 -161.5 64t-62.5 182v370
q0 51 -15.5 68.5t-50.5 17.5v11h215v-11q-38 0 -55.5 -16t-17.5 -72v-377q0 -95 51 -147.5t139 -52.5q87 0 137.5 54.5t50.5 151.5v259q0 50 -1.5 76t-7 54.5t-17 41t-32 20.5t-52.5 8v11h238v-11q-22 0 -38.5 -2t-29 -9t-21 -12.5t-14 -20.5t-8.5 -25t-4.5 -33.5
t-1.5 -37.5v-47v-13v-259q1 -118 -65 -180.5t-176 -62.5z" />
    <glyph glyph-name="Yacute" unicode="&#xdd;" horiz-adv-x="652" 
d="M402 704h236v-11q-20 0 -29.5 -2t-27 -12.5t-34 -33.5t-41.5 -65t-58 -107l-83 -166v-199q0 -60 17 -78t54 -18v-12h-208v12q37 0 53.5 17.5t16.5 78.5v186l-186 322q-16 28 -28.5 44t-27 23t-21 8t-26.5 3v10h225v-10q-14 0 -21.5 -0.5t-19 -6.5t-13.5 -16.5t5 -33.5
t26 -56l149 -255l81 164q13 27 20.5 44.5t16 41t10.5 38.5t0 31.5t-12 26t-28.5 15.5t-45.5 6v11zM222 734l181 161l65 -19l-231 -142h-15z" />
    <glyph glyph-name="Thorn" unicode="&#xde;" horiz-adv-x="525" 
d="M169 569v-380h9q34 0 49.5 0.5t44.5 2.5t43 7t35 13.5t31.5 22t21.5 33t15.5 47t4.5 62.5q0 40 -7.5 71t-17.5 51t-30.5 34t-36 21t-45.5 10.5t-47.5 4t-53.5 0.5h-7h-9zM178 178h-9v-63q0 -104 59 -104v-11h-190v11q58 0 58 104v490q0 48 -13 68.5t-45 20.5v10h190v-10
q-32 0 -45.5 -21t-13.5 -68v-26h9q67 0 111 -3.5t89 -15t70 -33t41 -59t16 -91.5q0 -53 -16 -90.5t-41 -58.5t-70 -32.5t-88.5 -14.5t-111.5 -3z" />
    <glyph glyph-name="germandbls" unicode="&#xdf;" horiz-adv-x="566" 
d="M541 201q0 -97 -53.5 -153.5t-162.5 -56.5q-38 0 -62.5 16.5t-29.5 36.5q-8 25 6 42q9 12 25.5 14t28.5 -7t13 -27t-8 -28q-6 -9 -24 -14q-9 -1 2 -9q18 -13 49 -13q128 0 124 205q-1 62 -21 105.5t-52.5 63t-62.5 27.5t-64 8v10q130 0 130 155q0 47 -13 80t-28 48
t-39.5 23t-32.5 8.5t-22 0.5q-29 0 -50.5 -17.5t-31 -43t-15 -51t-5.5 -42.5l-1 -18v-564h-112v10q26 8 33 33t7 72v395q0 237 175 237q93 0 151 -40.5t58 -133.5q0 -43 -19 -75.5t-45.5 -48.5t-47 -23.5t-31.5 -7.5q25 0 52.5 -5.5t60.5 -21t58.5 -38.5t42.5 -62.5
t17 -89.5z" />
    <glyph glyph-name="agrave" unicode="&#xe0;" horiz-adv-x="466" 
d="M295 251q-185 -44 -185 -138q0 -35 22 -60t64 -25q68 0 99 68v155zM410 31q25 0 32 31l10 -4q-5 -26 -26.5 -46.5t-53.5 -20.5q-3 0 -8 0.5t-18 4.5t-23 12t-18.5 26t-9.5 43q-11 -38 -50 -62t-91 -24q-5 0 -12.5 0.5t-27 6t-34.5 15.5t-27 31.5t-12 50.5q0 66 55.5 98
t198.5 69v56q0 80 -36 117t-98 9q-20 -9 -32 -19.5t-12.5 -15.5t0.5 -7q18 -4 27 -15q11 -14 9 -31t-16 -28q-13 -11 -30 -9t-27 16q-16 21 -6 43q18 41 78 74q19 9 41.5 14t35.5 5h13q69 0 97 -51.5t28 -148.5v-180q0 -7 1 -17t11.5 -26.5t30.5 -16.5zM169 701l181 -161
h-15l-231 142z" />
    <glyph glyph-name="aacute" unicode="&#xe1;" horiz-adv-x="466" 
d="M295 251q-185 -44 -185 -138q0 -35 22 -60t64 -25q68 0 99 68v155zM410 31q25 0 32 31l10 -4q-5 -26 -26.5 -46.5t-53.5 -20.5q-3 0 -8 0.5t-18 4.5t-23 12t-18.5 26t-9.5 43q-11 -38 -50 -62t-91 -24q-5 0 -12.5 0.5t-27 6t-34.5 15.5t-27 31.5t-12 50.5q0 66 55.5 98
t198.5 69v56q0 80 -36 117t-98 9q-20 -9 -32 -19.5t-12.5 -15.5t0.5 -7q18 -4 27 -15q11 -14 9 -31t-16 -28q-13 -11 -30 -9t-27 16q-16 21 -6 43q18 41 78 74q19 9 41.5 14t35.5 5h13q69 0 97 -51.5t28 -148.5v-180q0 -7 1 -17t11.5 -26.5t30.5 -16.5zM115 540l181 161
l65 -19l-231 -142h-15z" />
    <glyph glyph-name="acircumflex" unicode="&#xe2;" horiz-adv-x="466" 
d="M295 251q-185 -44 -185 -138q0 -35 22 -60t64 -25q68 0 99 68v155zM410 31q25 0 32 31l10 -4q-5 -26 -26.5 -46.5t-53.5 -20.5q-3 0 -8 0.5t-18 4.5t-23 12t-18.5 26t-9.5 43q-11 -38 -50 -62t-91 -24q-5 0 -12.5 0.5t-27 6t-34.5 15.5t-27 31.5t-12 50.5q0 66 55.5 98
t198.5 69v56q0 80 -36 117t-98 9q-20 -9 -32 -19.5t-12.5 -15.5t0.5 -7q18 -4 27 -15q11 -14 9 -31t-16 -28q-13 -11 -30 -9t-27 16q-16 21 -6 43q18 41 78 74q19 9 41.5 14t35.5 5h13q69 0 97 -51.5t28 -148.5v-180q0 -7 1 -17t11.5 -26.5t30.5 -16.5zM360 517l-119 115
l-119 -115h-17l136 188l136 -188h-17z" />
    <glyph glyph-name="atilde" unicode="&#xe3;" horiz-adv-x="466" 
d="M290 569l-111 43q-19 7 -47 8t-58.5 -11.5t-43.5 -40.5l-6 2q15 39 39.5 64t47.5 32t44.5 8t34.5 -2l13 -4l113 -44q19 -5 47 -6t59 12.5t42 38.5l6 -2q-15 -40 -39.5 -65t-48 -31.5t-45 -8t-34.5 2.5zM295 251q-185 -44 -185 -138q0 -35 22 -60t64 -25q68 0 99 68v155z
M410 31q25 0 32 31l10 -4q-5 -26 -26.5 -46.5t-53.5 -20.5q-3 0 -8 0.5t-18 4.5t-23 12t-18.5 26t-9.5 43q-11 -38 -50 -62t-91 -24q-5 0 -12.5 0.5t-27 6t-34.5 15.5t-27 31.5t-12 50.5q0 66 55.5 98t198.5 69v56q0 80 -36 117t-98 9q-20 -9 -32 -19.5t-12.5 -15.5t0.5 -7
q18 -4 27 -15q11 -14 9 -31t-16 -28q-13 -11 -30 -9t-27 16q-16 21 -6 43q18 41 78 74q19 9 41.5 14t35.5 5h13q69 0 97 -51.5t28 -148.5v-180q0 -7 1 -17t11.5 -26.5t30.5 -16.5z" />
    <glyph glyph-name="adieresis" unicode="&#xe4;" horiz-adv-x="466" 
d="M302 576q-16 0 -27.5 11.5t-11.5 28.5t11.5 29t27.5 12q17 0 28.5 -12t11.5 -29q0 -16 -12 -28t-28 -12zM117 616q0 17 11.5 29t28.5 12t28.5 -12t11.5 -29q0 -16 -11.5 -28t-28.5 -12t-28.5 11.5t-11.5 28.5zM295 251q-185 -44 -185 -138q0 -35 22 -60t64 -25
q68 0 99 68v155zM410 31q25 0 32 31l10 -4q-5 -26 -26.5 -46.5t-53.5 -20.5q-3 0 -8 0.5t-18 4.5t-23 12t-18.5 26t-9.5 43q-11 -38 -50 -62t-91 -24q-5 0 -12.5 0.5t-27 6t-34.5 15.5t-27 31.5t-12 50.5q0 66 55.5 98t198.5 69v56q0 80 -36 117t-98 9q-20 -9 -32 -19.5
t-12.5 -15.5t0.5 -7q18 -4 27 -15q11 -14 9 -31t-16 -28q-13 -11 -30 -9t-27 16q-16 21 -6 43q18 41 78 74q19 9 41.5 14t35.5 5h13q69 0 97 -51.5t28 -148.5v-180q0 -7 1 -17t11.5 -26.5t30.5 -16.5z" />
    <glyph glyph-name="aring" unicode="&#xe5;" horiz-adv-x="466" 
d="M229 705q-28 0 -47.5 -19.5t-19.5 -47.5t19.5 -47.5t47.5 -19.5q27 0 46.5 19.5t19.5 47.5t-19.5 47.5t-46.5 19.5zM229 543q-40 0 -68 28t-28 67q0 40 28 68t68 28q39 0 67 -28t28 -68q0 -39 -28 -67t-67 -28zM295 251q-185 -44 -185 -138q0 -35 22 -60t64 -25
q68 0 99 68v155zM410 31q25 0 32 31l10 -4q-5 -26 -26.5 -46.5t-53.5 -20.5q-3 0 -8 0.5t-18 4.5t-23 12t-18.5 26t-9.5 43q-11 -38 -50 -62t-91 -24q-5 0 -12.5 0.5t-27 6t-34.5 15.5t-27 31.5t-12 50.5q0 66 55.5 98t198.5 69v56q0 80 -36 117t-98 9q-20 -9 -32 -19.5
t-12.5 -15.5t0.5 -7q18 -4 27 -15q11 -14 9 -31t-16 -28q-13 -11 -30 -9t-27 16q-16 21 -6 43q18 41 78 74q19 9 41.5 14t35.5 5h13q69 0 97 -51.5t28 -148.5v-180q0 -7 1 -17t11.5 -26.5t30.5 -16.5z" />
    <glyph glyph-name="ae" unicode="&#xe6;" horiz-adv-x="689" 
d="M472 460q-49 0 -83.5 -53.5t-34.5 -158.5h227q0 112 -33.5 162t-75.5 50zM196 28q37 0 63 23.5t36 56.5q-12 38 -14 108v30l-12 -4q-12 -3 -18 -5t-20.5 -7.5t-23.5 -9.5t-23 -11t-23 -14t-19.5 -16t-16.5 -18.5t-10 -21.5t-4 -25q0 -37 21.5 -61.5t63.5 -24.5zM489 29
q46 -2 82 27t49 66l9 -6q-4 -18 -14 -37t-28 -40t-50 -34.5t-72 -13.5q-59 0 -101.5 28t-62.5 78q-11 -50 -50.5 -78t-95.5 -28q-5 0 -12.5 0.5t-27 6t-34.5 15.5t-27.5 31.5t-12.5 50.5q0 62 53 93.5t187 68.5v61q0 81 -31.5 117t-92.5 9q-40 -19 -45 -37q-1 -4 2 -4
q16 -3 27 -16t8.5 -30.5t-15.5 -28.5t-30 -9t-27 16q-17 22 -6 43q18 42 76 73q19 9 39 14t31 5l11 1q74 0 102 -76q60 76 142 76q176 0 176 -234h-295q1 -106 33 -155.5t103 -52.5z" />
    <glyph glyph-name="ccedilla" unicode="&#xe7;" 
d="M431 127l8 -3q-9 -48 -53 -90.5t-125 -42.5q-7 0 -13 1l-20 -56q65 15 99.5 -11.5t28.5 -68.5q-10 -79 -101 -79q-45 0 -63 22q-7 10 -2 22q9 19 29 10q18 -9 9 -28q-4 -7 -11 -9q-2 0 1.5 -2.5t13.5 -5.5t23 -3q28 0 46 16t18 46q0 13 -4.5 26.5t-16.5 27.5t-33.5 17.5
t-54.5 -2.5l26 79q-78 8 -134.5 69.5t-56.5 166.5q0 99 65.5 170.5t169.5 71.5q39 0 68 -8t43 -20.5t20 -22t8 -18.5q8 -24 -8 -40q-11 -11 -27.5 -11.5t-27.5 9.5q-12 12 -12.5 28t11.5 27q14 14 26 11l2 1q-2 10 -32 21q-30 12 -71 12q-20 0 -43 -8.5t-51 -30t-46 -69.5
t-18 -115q0 -101 46.5 -152.5t108.5 -54.5q58 -3 99 27.5t55 69.5z" />
    <glyph glyph-name="egrave" unicode="&#xe8;" 
d="M365 252h-252q0 97 41 152.5t90 55.5q42 0 81.5 -52t39.5 -156zM409 120q-12 -39 -55 -67t-90 -26q-148 7 -151 213h320q0 113 -53 172t-135 59q-89 0 -149 -67t-60 -178q0 -104 59.5 -169.5t150.5 -65.5q74 0 119 41.5t52 84.5zM189 701l181 -161h-15l-231 142z" />
    <glyph glyph-name="eacute" unicode="&#xe9;" 
d="M113 252h252q0 104 -39.5 156t-81.5 52q-49 0 -90 -55.5t-41 -152.5zM409 120l8 -3q-7 -43 -52 -84.5t-119 -41.5q-91 0 -150.5 65.5t-59.5 169.5q0 111 60 178t149 67q82 0 135 -59t53 -172h-320q3 -206 151 -213q47 -2 90 26t55 67zM113 540l181 161l65 -19l-231 -142
h-15z" />
    <glyph glyph-name="ecircumflex" unicode="&#xea;" 
d="M365 252h-252q0 97 41 152.5t90 55.5q42 0 81.5 -52t39.5 -156zM409 120q-12 -39 -55 -67t-90 -26q-148 7 -151 213h320q0 113 -53 172t-135 59q-89 0 -149 -67t-60 -178q0 -104 59.5 -169.5t150.5 -65.5q74 0 119 41.5t52 84.5zM355 517l-119 115l-119 -115h-17l136 188
l136 -188h-17z" />
    <glyph glyph-name="edieresis" unicode="&#xeb;" 
d="M315 576q-16 0 -27.5 11.5t-11.5 28.5t11.5 29t27.5 12q17 0 29 -12t12 -29q0 -16 -12 -28t-29 -12zM170 576q-16 0 -28 12t-12 28q0 17 11.5 29t28.5 12t28.5 -12t11.5 -29q0 -16 -12 -28t-28 -12zM113 252h252q0 104 -39.5 156t-81.5 52q-49 0 -90 -55.5t-41 -152.5z
M409 120l8 -3q-7 -43 -52 -84.5t-119 -41.5q-91 0 -150.5 65.5t-59.5 169.5q0 111 60 178t149 67q82 0 135 -59t53 -172h-320q3 -206 151 -213q47 -2 90 26t55 67z" />
    <glyph glyph-name="igrave" unicode="&#xec;" horiz-adv-x="226" 
d="M188 11q-28 7 -34.5 17t-6.5 50v393l-118 -23v-10q30 -4 40 -15.5t10 -38.5v-306q0 -39 -6 -49t-34 -18v-11h149v11zM44 701l181 -161h-15l-231 142z" />
    <glyph glyph-name="iacute" unicode="&#xed;" horiz-adv-x="226" 
d="M188 11v-11h-149v11q28 8 34 18t6 49v306q0 27 -10 38.5t-40 15.5v10l118 23v-393q0 -40 6.5 -50t34.5 -17zM-9 540l181 161l65 -19l-231 -142h-15z" />
    <glyph glyph-name="icircumflex" unicode="&#xee;" horiz-adv-x="226" 
d="M188 11q-28 7 -34.5 17t-6.5 50v393l-118 -23v-10q30 -4 40 -15.5t10 -38.5v-306q0 -39 -6 -49t-34 -18v-11h149v11zM233 517l-119 115l-119 -115h-17l136 188l136 -188h-17z" />
    <glyph glyph-name="idieresis" unicode="&#xef;" horiz-adv-x="226" 
d="M180 576q-17 0 -28.5 11.5t-11.5 28.5t11.5 29t28.5 12t28.5 -12t11.5 -29q0 -16 -12 -28t-28 -12zM35 576q-17 0 -28.5 11.5t-11.5 28.5t11.5 29t28.5 12q16 0 28 -12t12 -29q0 -16 -12 -28t-28 -12zM188 11v-11h-149v11q28 8 34 18t6 49v306q0 26 -10 38t-40 16v10
l118 23v-393q0 -40 6.5 -50t34.5 -17z" />
    <glyph glyph-name="eth" unicode="&#xf0;" horiz-adv-x="513" 
d="M397 331v2q-22 40 -58.5 60t-71.5 20q-65 0 -101.5 -54t-40.5 -153q-5 -107 26.5 -155.5t83.5 -48.5q86 0 124 77.5t38 251.5zM360 634q48 -52 82 -132.5t34 -167.5q0 -158 -59 -250.5t-182 -92.5q-82 0 -142 57.5t-54 164.5q6 95 59.5 159.5t147.5 64.5q45 0 86.5 -19.5
t64.5 -64.5q-1 68 -22 143t-52 119l-153 -78l-14 9l159 84q-60 72 -153 72v11q103 0 186 -67l100 53l14 -10z" />
    <glyph glyph-name="ntilde" unicode="&#xf1;" horiz-adv-x="486" 
d="M296 569l-111 43q-19 7 -47 8t-58.5 -11.5t-43.5 -40.5l-6 2q15 39 39.5 64t47.5 32t44.5 8t34.5 -2l13 -4l113 -44q19 -5 47 -6t59 12.5t42 38.5l6 -2q-15 -40 -39.5 -65t-48 -31.5t-45 -8t-34.5 2.5zM462 10v-10h-149v10q28 8 34 18.5t6 49.5v226q0 60 -29.5 94.5
t-84.5 34.5q-39 0 -69 -28.5t-41 -59.5v-267q0 -40 6.5 -50t34.5 -17v-11h-150v11q28 8 34 18t6 49v305q0 27 -10 39t-40 16v10l119 23v-103q15 42 58 72.5t90 30.5q66 0 105 -39t39 -124v-230q0 -40 6.5 -50.5t34.5 -17.5z" />
    <glyph glyph-name="ograve" unicode="&#xf2;" horiz-adv-x="534" 
d="M414 231q0 -229 -146 -229q-147 0 -147 229t147 229q146 0 146 -229zM495 231q0 105 -58.5 172.5t-168.5 67.5q-109 0 -168 -68t-59 -172t59 -172t168 -68q110 0 168.5 68t58.5 172zM215 701l181 -161h-15l-231 142z" />
    <glyph glyph-name="oacute" unicode="&#xf3;" horiz-adv-x="534" 
d="M414 231q0 229 -146 229q-147 0 -147 -229t147 -229q146 0 146 229zM495 231q0 -104 -58.5 -172t-168.5 -68q-109 0 -168 68t-59 172t59 172t168 68q110 0 168.5 -67.5t58.5 -172.5zM138 540l181 161l65 -19l-231 -142h-15z" />
    <glyph glyph-name="ocircumflex" unicode="&#xf4;" horiz-adv-x="534" 
d="M414 231q0 -229 -146 -229q-147 0 -147 229t147 229q146 0 146 -229zM495 231q0 105 -58.5 172.5t-168.5 67.5q-109 0 -168 -68t-59 -172t59 -172t168 -68q110 0 168.5 68t58.5 172zM384 517l-119 115l-119 -115h-17l136 188l136 -188h-17z" />
    <glyph glyph-name="otilde" unicode="&#xf5;" horiz-adv-x="534" 
d="M210 612q-19 7 -46.5 8t-58.5 -11.5t-43 -40.5l-6 2q15 39 39 64t47.5 32t45 8t34.5 -2l13 -4l112 -44q19 -5 47 -6t59 12.5t42 38.5l7 -2q-16 -40 -40 -65t-47.5 -31.5t-45 -8t-34.5 2.5l-13 4zM414 231q0 -229 -146 -229q-147 0 -147 229t147 229q146 0 146 -229z
M495 231q0 105 -58.5 172.5t-168.5 67.5q-109 0 -168 -68t-59 -172t59 -172t168 -68q110 0 168.5 68t58.5 172z" />
    <glyph glyph-name="odieresis" unicode="&#xf6;" horiz-adv-x="534" 
d="M343 576q-16 0 -27.5 11.5t-11.5 28.5t11.5 29t27.5 12q17 0 29 -12t12 -29q0 -16 -12 -28t-29 -12zM198 576q-16 0 -28 12t-12 28q0 17 11.5 29t28.5 12t28.5 -12t11.5 -29q0 -16 -12 -28t-28 -12zM414 231q0 229 -146 229q-147 0 -147 -229t147 -229q146 0 146 229z
M495 231q0 -104 -58.5 -172t-168.5 -68q-109 0 -168 68t-59 172t59 172t168 68q110 0 168.5 -67.5t58.5 -172.5z" />
    <glyph glyph-name="divide" unicode="&#xf7;" horiz-adv-x="625" 
d="M313 445q-20 0 -34.5 14.5t-14.5 34.5t14.5 34.5t34.5 14.5t34 -14.5t14 -34.5t-14 -34.5t-34 -14.5zM581 251h-536v52h536v-52zM313 12q-20 0 -34.5 14.5t-14.5 34.5t14.5 34.5t34.5 14.5t34 -14.5t14 -34.5t-14 -34.5t-34 -14.5z" />
    <glyph glyph-name="oslash" unicode="&#xf8;" horiz-adv-x="534" 
d="M414 229q0 115 -43 172l-199 -354q32 -45 96 -45q146 0 146 227zM90 -67l52 91q-101 61 -101 205q0 105 59 173.5t168 68.5q64 0 114 -26l45 80h16l-49 -86q50 -30 75.5 -85.5t25.5 -124.5q0 -104 -58.5 -171t-168.5 -67q-64 0 -114 26l-48 -84h-16zM163 59l199 355
q-32 46 -94 46q-147 0 -147 -231q0 -115 42 -170z" />
    <glyph glyph-name="ugrave" unicode="&#xf9;" horiz-adv-x="501" 
d="M484 18q-32 4 -41.5 15t-9.5 46v392l-116 -18v-11q35 -1 41 -10t6 -56v-264q-12 -36 -40.5 -59.5t-70.5 -23.5q-49 0 -81 28t-32 87v327l-123 -18v-11q41 0 48.5 -10t7.5 -61v-230q0 -150 151 -150q50 0 89.5 28.5t50.5 68.5v-83q0 -2 0.5 -5t6.5 -6.5t16 -1.5l97 16v10z
M199 701l181 -161h-15l-231 142z" />
    <glyph glyph-name="uacute" unicode="&#xfa;" horiz-adv-x="501" 
d="M484 18v-10l-97 -16q-10 -2 -16 1t-7 7v5v83q-11 -40 -50.5 -68.5t-89.5 -28.5q-151 0 -151 150v230q0 51 -7.5 61t-48.5 10v11l123 18v-327q0 -59 32 -87t81 -28q42 0 70.5 23.5t40.5 59.5v264q0 47 -6 56t-41 10v11l116 18v-392q0 -35 9.5 -46t41.5 -15zM128 540
l181 161l65 -19l-231 -142h-15z" />
    <glyph glyph-name="ucircumflex" unicode="&#xfb;" horiz-adv-x="501" 
d="M484 18q-32 4 -41.5 15t-9.5 46v392l-116 -18v-11q35 -1 41 -10t6 -56v-264q-12 -36 -40.5 -59.5t-70.5 -23.5q-49 0 -81 28t-32 87v327l-123 -18v-11q41 0 48.5 -10t7.5 -61v-230q0 -150 151 -150q50 0 89.5 28.5t50.5 68.5v-83q0 -2 0.5 -5t6.5 -6.5t16 -1.5l97 16v10z
M364 517l-119 115l-119 -115h-17l136 188l136 -188h-17z" />
    <glyph glyph-name="udieresis" unicode="&#xfc;" horiz-adv-x="501" 
d="M319 576q-17 0 -28.5 11.5t-11.5 28.5t11.5 29t28.5 12q16 0 28 -12t12 -29q0 -16 -12 -28t-28 -12zM173 576q-16 0 -27.5 11.5t-11.5 28.5t11.5 29t27.5 12q17 0 29 -12t12 -29q0 -16 -12 -28t-29 -12zM484 18v-10l-97 -16q-10 -2 -16 1t-7 7v5v83q-11 -40 -50.5 -68.5
t-89.5 -28.5q-151 0 -151 150v230q0 51 -7.5 61t-48.5 10v11l123 18v-327q0 -59 32 -87t81 -28q42 0 70.5 23.5t40.5 59.5v264q0 47 -6 56t-41 10v11l116 18v-392q0 -35 9.5 -46t41.5 -15z" />
    <glyph glyph-name="yacute" unicode="&#xfd;" horiz-adv-x="531" 
d="M323 462h192v-11q-24 0 -39.5 -8.5t-37.5 -44.5t-48 -109l-158 -433q-17 -52 -54 -83q-9 -8 -24 -10t-27 4q-17 7 -24 25t1 34q7 17 25 23.5t34 -0.5q17 -7 23 -27q3 -14 18 8q8 12 15 30l50 137l-184 398q-24 53 -74 56v11h193v-11q-20 0 -30.5 -8t-11.5 -19.5t1 -23
t5 -19.5l4 -8l131 -284l75 204q2 7 5.5 17.5t8 38t1.5 48.5t-20.5 38t-49.5 16v11zM149 543l181 161l65 -19l-231 -142h-15z" />
    <glyph glyph-name="thorn" unicode="&#xfe;" horiz-adv-x="541" 
d="M404 210q0 115 -40.5 174.5t-109.5 59.5q-53 0 -85 -32.5t-35 -87.5v-191q3 -61 36.5 -96t86.5 -35q59 0 103 48.5t44 159.5zM489 227q0 -112 -63.5 -174t-164.5 -62q-75 0 -127 41v-221q0 -40 6.5 -49t34.5 -16v-11h-150v11q29 8 34.5 17.5t5.5 47.5v835q0 27 -10 38
t-40 13v11l119 23v-336q21 36 62.5 56t83.5 20q102 0 155.5 -70t53.5 -174z" />
    <glyph glyph-name="ydieresis" unicode="&#xff;" horiz-adv-x="531" 
d="M340 576q-16 0 -27.5 11.5t-11.5 28.5t11.5 29t27.5 12q17 0 28.5 -12t11.5 -29q0 -16 -12 -28t-28 -12zM323 462h192v-11q-24 0 -39.5 -8.5t-37.5 -44.5t-48 -109l-158 -433q-17 -52 -54 -83q-9 -8 -24 -10t-27 4q-17 7 -24 25t1 34q7 17 24.5 23.5t34.5 -0.5t23 -27
q3 -14 18 8q8 12 15 30l50 137l-184 398q-24 53 -74 56v11h193v-11q-20 0 -30.5 -8t-11.5 -19.5t1 -23t5 -19.5l4 -8l131 -284l75 204q2 7 5.5 17.5t8 38t1.5 48.5t-20.5 38t-49.5 16v11zM195 576q-17 0 -28.5 11.5t-11.5 28.5t11.5 29t28.5 12t28.5 -12t11.5 -29
q0 -16 -11.5 -28t-28.5 -12z" />
    <glyph glyph-name="Abreve" unicode="&#x102;" horiz-adv-x="674" 
d="M175 233h263l-136 351zM660 11v-11h-199v11q67 0 17 116l-36 95h-270q-11 -31 -15.5 -44t-12 -39t-8.5 -37.5t-1.5 -30t6 -27t16.5 -18t27.5 -12.5t41.5 -3v-11h-212v11q26 0 41.5 11.5t42.5 64t66 162.5l165 455h7l243 -607q15 -38 29.5 -57.5t24 -23.5t27.5 -5z
M452 903h6q0 -137 -125 -137q-129 0 -129 137h7q0 -36 27 -62t95 -26q66 0 92.5 26.5t26.5 61.5z" />
    <glyph glyph-name="abreve" unicode="&#x103;" horiz-adv-x="466" 
d="M295 251q-185 -44 -185 -138q0 -35 22 -60t64 -25q68 0 99 68v155zM410 31q25 0 32 31l10 -4q-5 -26 -26.5 -46.5t-53.5 -20.5q-3 0 -8 0.5t-18 4.5t-23 12t-18.5 26t-9.5 43q-11 -38 -50 -62t-91 -24q-5 0 -12.5 0.5t-27 6t-34.5 15.5t-27 31.5t-12 50.5q0 66 55.5 98
t198.5 69v56q0 80 -36 117t-98 9q-20 -9 -32 -19.5t-12.5 -15.5t0.5 -7q18 -4 27 -15q11 -14 9 -31t-16 -28q-13 -11 -30 -9t-27 16q-16 21 -6 43q18 41 78 74q19 9 41.5 14t35.5 5h13q69 0 97 -51.5t28 -148.5v-180q0 -7 1 -17t11.5 -26.5t30.5 -16.5zM364 704h6
q0 -137 -125 -137q-129 0 -129 137h7q0 -36 27 -62t95 -26q66 0 92.5 26.5t26.5 61.5z" />
    <glyph glyph-name="Aogonek" unicode="&#x104;" horiz-adv-x="674" 
d="M660 11v-11h-45q-42 -19 -69.5 -58t-19.5 -68q5 -20 21 -30.5t29 -11.5h13q21 0 34 18t13 37h10q0 -80 -69 -80q-31 0 -53 10.5t-28 20.5l-7 10q-37 95 104 152h-132v11q67 0 17 116l-36 95h-270q-11 -31 -15.5 -44t-12 -39t-8.5 -37.5t-1.5 -30t6 -27t16.5 -18
t27.5 -12.5t41.5 -3v-11h-212v11q26 0 41.5 11.5t42.5 64t66 162.5l165 455h7l243 -607q15 -38 29.5 -57.5t24 -23.5t27.5 -5zM175 233h263l-136 351z" />
    <glyph glyph-name="aogonek" unicode="&#x105;" horiz-adv-x="466" 
d="M382 -168q21 0 34 18t13 37h10q0 -80 -69 -80q-31 0 -53 10.5t-29 20.5l-6 10q-33 88 84 143q-14 2 -27 6.5t-28 25.5t-16 54q-11 -38 -50 -62t-91 -24q-5 0 -12.5 0.5t-27 6t-34.5 15.5t-27 31.5t-12 50.5q0 66 55.5 98t198.5 69v56q0 80 -36 117t-98 9
q-20 -9 -32 -19.5t-12.5 -15.5t0.5 -7q18 -4 27 -15q11 -14 9 -31t-16 -28q-13 -11 -30 -9t-27 16q-16 21 -6 43q18 41 78 74q19 9 41.5 14t35.5 5h13q69 0 97 -51.5t28 -148.5v-180q0 -7 1 -17t11.5 -26.5t30.5 -16.5q25 0 32 31l10 -4q-4 -20 -18 -37.5t-35 -24.5
q-39 -21 -63 -58t-17 -64q5 -20 21 -30.5t29 -11.5h13zM295 96v155q-185 -44 -185 -138q0 -35 22 -60t64 -25q68 0 99 68z" />
    <glyph glyph-name="Cacute" unicode="&#x106;" horiz-adv-x="660" 
d="M597 206h11l10 -153q-55 -37 -102.5 -49.5t-128.5 -12.5q-157 0 -252 94.5t-95 266.5q0 174 94.5 267.5t252.5 93.5q83 0 134.5 -12.5t96.5 -48.5l-10 -153h-11q-4 51 -21.5 90t-39.5 59.5t-51.5 33.5t-52 16.5t-45.5 3.5q-36 0 -65 -5.5t-64.5 -27t-59 -57.5t-40 -102.5
t-16.5 -157.5q0 -67 8.5 -121t22.5 -90t35 -62.5t41.5 -40.5t46.5 -22.5t46.5 -11t44.5 -2.5q28 0 58.5 8t66 28t59.5 63.5t26 104.5zM223 734l181 161l65 -19l-231 -142h-15z" />
    <glyph glyph-name="cacute" unicode="&#x107;" 
d="M431 127l8 -3q-9 -48 -53 -90.5t-125 -42.5q-84 0 -150 62.5t-66 175.5q0 99 65.5 170.5t169.5 71.5q39 0 68 -8t43 -20.5t20 -22t8 -18.5q8 -24 -8 -40q-11 -11 -27.5 -11.5t-27.5 9.5q-12 12 -12.5 28t11.5 27q14 14 26 11l2 1q-2 10 -32 21q-30 12 -71 12
q-20 0 -43 -8.5t-51 -30t-46 -69.5t-18 -115q0 -101 46.5 -152.5t108.5 -54.5q58 -3 99 27.5t55 69.5zM133 540l181 161l65 -19l-231 -142h-15z" />
    <glyph glyph-name="Ccaron" unicode="&#x10c;" horiz-adv-x="660" 
d="M597 206h11l10 -153q-55 -37 -102.5 -49.5t-128.5 -12.5q-157 0 -252 94.5t-95 266.5q0 174 94.5 267.5t252.5 93.5q83 0 134.5 -12.5t96.5 -48.5l-10 -153h-11q-4 51 -21.5 90t-39.5 59.5t-51.5 33.5t-52 16.5t-45.5 3.5q-36 0 -65 -5.5t-64.5 -27t-59 -57.5t-40 -102.5
t-16.5 -157.5q0 -67 8.5 -121t22.5 -90t35 -62.5t41.5 -40.5t46.5 -22.5t46.5 -11t44.5 -2.5q28 0 58.5 8t66 28t59.5 63.5t26 104.5zM362 807l119 115h17l-136 -188l-136 188h17z" />
    <glyph glyph-name="ccaron" unicode="&#x10d;" 
d="M431 127l8 -3q-9 -48 -53 -90.5t-125 -42.5q-84 0 -150 62.5t-66 175.5q0 99 65.5 170.5t169.5 71.5q39 0 68 -8t43 -20.5t20 -22t8 -18.5q8 -24 -8 -40q-11 -11 -27.5 -11.5t-27.5 9.5q-12 12 -12.5 28t11.5 27q14 14 26 11l2 1q-2 10 -32 21q-30 12 -71 12
q-20 0 -43 -8.5t-51 -30t-46 -69.5t-18 -115q0 -101 46.5 -152.5t108.5 -54.5q58 -3 99 27.5t55 69.5zM263 589l119 115h17l-136 -188l-136 188h17z" />
    <glyph glyph-name="Dcaron" unicode="&#x10e;" horiz-adv-x="670" 
d="M526 351q0 68 -10.5 122.5t-26.5 89.5t-42 60.5t-49 38.5t-56 20.5t-55 9t-53 1.5h-44v-682h44q27 0 40 0.5t41.5 3.5t44.5 8.5t41 17t40.5 28t33.5 42.5t27.5 59t16.5 79t7 102zM620 351q0 -89 -22 -154.5t-56 -102.5t-87 -59t-103.5 -28.5t-117.5 -6.5h-191v11
q64 0 64 99v486q0 97 -64 97v11h191q65 0 117.5 -8.5t104 -32t86.5 -61.5t56.5 -102t21.5 -149zM280 807l119 115h17l-136 -188l-136 188h17z" />
    <glyph glyph-name="dcaron" unicode="&#x10f;" horiz-adv-x="628" 
d="M521 704h59q0 -34 -10 -65t-24 -51t-27.5 -35.5t-23.5 -22.5l-10 -7l-6 9q2 1 4.5 4.5t10 17t13 31t10 49.5t4.5 70zM510 19v-10l-91 -17q-12 -2 -19 2.5t-8 9.5l-1 6v51q-21 -33 -62 -51.5t-82 -18.5q-102 0 -155.5 70t-53.5 175q0 111 64 173t165 62q71 0 124 -40v216
q0 27 -10.5 39t-40.5 15v11l119 22v-665q0 -35 9.5 -43.5t41.5 -6.5zM391 134v192q0 59 -36 96.5t-85 37.5q-26 0 -50 -9.5t-47 -31.5t-36.5 -64.5t-13.5 -101.5q0 -115 40 -175.5t109 -60.5q50 0 84.5 33t34.5 84z" />
    <glyph glyph-name="Dcroat" unicode="&#x110;" horiz-adv-x="673" 
d="M532 351q0 68 -10.5 122.5t-26.5 89.5t-42 61t-49.5 39t-56 20.5t-55 9t-53.5 1.5h-44v-332h142v-21h-142v-330h44q27 0 40.5 0.5t41.5 3.5t44.5 8.5t41.5 17t40 28t33.5 42.5t28 59t16.5 79t7 102zM625 351q0 -89 -22 -154.5t-56 -102.5t-87 -59t-103.5 -28.5
t-117.5 -6.5h-190v11q63 0 63 99v231h-100v21h100v234q0 98 -63 98v10h190q65 0 117.5 -8.5t104 -32t86.5 -61.5t56.5 -102t21.5 -149z" />
    <glyph glyph-name="dcroat" unicode="&#x111;" horiz-adv-x="547" 
d="M391 134v192q0 59 -36 96.5t-85 37.5q-26 0 -50 -9.5t-47 -31.5t-36.5 -64.5t-13.5 -101.5q0 -115 40 -175.5t109 -60.5q50 0 84.5 33t34.5 84zM265 556v20h126v71q0 27 -10.5 39t-40.5 15v11l119 22v-158h121v-20h-121v-487q0 -35 9.5 -43.5t41.5 -6.5v-10l-91 -17
q-12 -2 -19 2.5t-8 9.5l-1 6v51q-21 -33 -62 -51.5t-82 -18.5q-102 0 -155.5 70t-53.5 175q0 111 64 173t165 62q71 0 124 -40v125h-126z" />
    <glyph glyph-name="Eogonek" unicode="&#x118;" horiz-adv-x="578" 
d="M492 203h11v-203h-12q-42 -19 -69.5 -58t-19.5 -68q5 -20 21 -30.5t29 -11.5h13q21 0 34 18t13 37h10q0 -80 -69 -80q-31 0 -53 10.5t-28 20.5l-7 10q-37 95 104 152h-438v11q30 0 40.5 21.5t10.5 74.5v506q0 48 -9.5 64t-41.5 16v11h459v-175h-11q-1 34 -9.5 60
t-20.5 43.5t-33 29t-38.5 18t-47.5 9.5t-49 3.5t-53 0.5h-64v-332h80q17 0 28.5 0.5t32 6t33 15t22.5 29.5t11 48h11v-210h-11q-1 28 -11.5 48t-23 30t-32.5 15.5t-31.5 6t-28.5 0.5h-80v-339h51h13h43.5t40.5 2t40.5 5t35.5 9.5t33 16t26.5 24t22.5 33.5t14 45t8 57z" />
    <glyph glyph-name="eogonek" unicode="&#x119;" 
d="M214 -126q5 -20 21 -30.5t29 -11.5h13q21 0 34 18t13 37h10q0 -80 -69 -80q-31 0 -53 10.5t-28 20.5l-7 10q-35 88 84 144q-5 -1 -15 -1q-91 0 -150.5 65.5t-59.5 169.5q0 111 60 178t149 67q82 0 135 -59t53 -172h-320q3 -206 151 -213q47 -2 90 26t55 67l8 -3
q-5 -33 -36.5 -69t-82.5 -50q-40 -20 -66 -58t-18 -66zM113 252h252q0 104 -39.5 156t-81.5 52q-49 0 -90 -55.5t-41 -152.5z" />
    <glyph glyph-name="Ecaron" unicode="&#x11a;" horiz-adv-x="578" 
d="M492 203h11v-203h-472v11q30 0 40.5 21.5t10.5 74.5v506q0 48 -9.5 64t-41.5 16v11h459v-175h-11q-1 34 -9.5 60t-20.5 43.5t-33 29t-38.5 18t-47.5 9.5t-49 3.5t-53 0.5h-64v-332h80q17 0 28.5 0.5t32 6t33 15t22.5 29.5t11 48h11v-210h-11q-1 28 -11.5 48t-23 30
t-32.5 15.5t-31.5 6t-28.5 0.5h-80v-339h51h13h43.5t40.5 2t40.5 5t35.5 9.5t33 16t26.5 24t22.5 33.5t14 45t8 57zM288 807l119 115h17l-136 -188l-136 188h17z" />
    <glyph glyph-name="ecaron" unicode="&#x11b;" 
d="M113 252h252q0 104 -39.5 156t-81.5 52q-49 0 -90 -55.5t-41 -152.5zM409 120l8 -3q-7 -43 -52 -84.5t-119 -41.5q-91 0 -150.5 65.5t-59.5 169.5q0 111 60 178t149 67q82 0 135 -59t53 -172h-320q3 -206 151 -213q47 -2 90 26t55 67zM237 589l119 115h17l-136 -188
l-136 188h17z" />
    <glyph glyph-name="dotlessi" unicode="&#x131;" horiz-adv-x="227" 
d="M189 11v-11h-150v11q28 8 34 18t6 49v306q0 27 -10 38.5t-40 15.5v10l119 23v-393q0 -40 6.5 -50t34.5 -17z" />
    <glyph glyph-name="Lacute" unicode="&#x139;" horiz-adv-x="592" 
d="M502 217h10v-217h-464v11q30 0 38.5 23t8.5 80v497q0 47 -11.5 65t-43.5 18v10h198v-10q-34 0 -49 -18.5t-15 -70.5v-594h36q44 0 67 0.5t59 4t54.5 11t42.5 22.5t36 37t21.5 55t11.5 76zM143 734l181 161l65 -19l-231 -142h-15z" />
    <glyph glyph-name="lacute" unicode="&#x13a;" horiz-adv-x="211" 
d="M183 11v-11h-150v11q28 8 34 18t6 49v570q0 27 -10 38.5t-40 14.5v11l119 22v-656q0 -40 6.5 -50t34.5 -17zM-19 763l181 161l65 -19l-231 -142h-15z" />
    <glyph glyph-name="Lcaron" unicode="&#x13d;" horiz-adv-x="553" 
d="M277 704h59q0 -34 -10 -65t-24 -51t-27.5 -35.5t-23.5 -22.5l-10 -7l-7 9q5 4 12 13.5t19 53.5t12 105zM502 217h10v-217h-464v11q30 0 38.5 23t8.5 80v497q0 47 -11.5 65t-43.5 18v10h198v-10q-34 0 -49 -18.5t-15 -70.5v-594h36q44 0 67 0.5t59 4t54.5 11t42.5 22.5
t36 37t21.5 55t11.5 76z" />
    <glyph glyph-name="lcaron" unicode="&#x13e;" horiz-adv-x="331" 
d="M218 704h59q0 -34 -10 -65t-23.5 -51t-27.5 -35.5t-24 -22.5l-10 -7l-7 9q5 4 12 13.5t19 53.5t12 105zM183 11v-11h-150v11q28 8 34 18t6 49v570q0 27 -10 38.5t-40 14.5v11l119 22v-656q0 -40 6.5 -50t34.5 -17z" />
    <glyph glyph-name="Lslash" unicode="&#x141;" horiz-adv-x="606" 
d="M539 217h11v-217h-464v11q29 0 38 24t9 81v179l-125 -70v17l125 70v299q0 47 -11.5 65t-43.5 18v10h198v-10q-35 0 -49.5 -18.5t-14.5 -70.5v-247l208 116v-17l-208 -117v-329h36q170 -1 230.5 43.5t60.5 162.5z" />
    <glyph glyph-name="lslash" unicode="&#x142;" horiz-adv-x="272" 
d="M12 259v17l89 52v325q0 28 -10 39.5t-40 13.5v10l119 30v-377l82 50v-17l-82 -50v-274q0 -40 6.5 -50t34.5 -17v-11h-150v11q28 8 34 18t6 49v233z" />
    <glyph glyph-name="Nacute" unicode="&#x143;" horiz-adv-x="771" 
d="M478 704h277v-10q-23 0 -42 -4t-32.5 -9t-24 -18t-17 -21t-11 -29.5t-7 -31t-3.5 -38.5t-1 -39.5v-45.5v-458h-21l-420 548v-300q0 -44 0.5 -65t4 -54.5t11.5 -50t22 -34.5t37 -25.5t54 -7.5v-11h-282v11q34 0 59 7t40.5 25t24.5 35t12.5 50t4.5 55t1 65v313l-42 55
q-9 12 -18 21.5t-16 17t-15 13.5t-13 9.5t-12 6.5t-10 4.5t-10 3t-8.5 1.5t-8.5 0.5t-8 0.5v10h155l447 -588v342q0 34 -0.5 50.5t-1.5 44.5t-4.5 41.5t-9.5 33t-15.5 29t-22.5 19.5t-31.5 14t-42.5 4v10zM244 734l181 161l65 -19l-231 -142h-15z" />
    <glyph glyph-name="nacute" unicode="&#x144;" horiz-adv-x="486" 
d="M462 10v-10h-149v10q28 8 34 18.5t6 49.5v226q0 60 -29.5 94.5t-84.5 34.5q-39 0 -69 -28.5t-41 -59.5v-267q0 -40 6.5 -50t34.5 -17v-11h-150v11q28 8 34 18t6 49v305q0 27 -10 39t-40 16v10l119 23v-103q15 42 58 72.5t90 30.5q66 0 105 -39t39 -124v-230
q0 -40 6.5 -50.5t34.5 -17.5zM125 540l181 161l65 -19l-231 -142h-15z" />
    <glyph glyph-name="Ncaron" unicode="&#x147;" horiz-adv-x="771" 
d="M478 704h277v-10q-23 0 -42 -4t-32.5 -9t-24 -18t-17 -21t-11 -29.5t-7 -31t-3.5 -38.5t-1 -39.5v-45.5v-458h-21l-420 548v-300q0 -44 0.5 -65t4 -54.5t11.5 -50t22 -34.5t37 -25.5t54 -7.5v-11h-282v11q34 0 59 7t40.5 25t24.5 35t12.5 50t4.5 55t1 65v313l-42 55
q-9 12 -18 21.5t-16 17t-15 13.5t-13 9.5t-12 6.5t-10 4.5t-10 3t-8.5 1.5t-8.5 0.5t-8 0.5v10h155l447 -588v342q0 34 -0.5 50.5t-1.5 44.5t-4.5 41.5t-9.5 33t-15.5 29t-22.5 19.5t-31.5 14t-42.5 4v10zM358 807l119 115h17l-136 -188l-136 188h17z" />
    <glyph glyph-name="ncaron" unicode="&#x148;" horiz-adv-x="486" 
d="M462 10v-10h-149v10q28 8 34 18.5t6 49.5v226q0 60 -29.5 94.5t-84.5 34.5q-39 0 -69 -28.5t-41 -59.5v-267q0 -40 6.5 -50t34.5 -17v-11h-150v11q28 8 34 18t6 49v305q0 27 -10 39t-40 16v10l119 23v-103q15 42 58 72.5t90 30.5q66 0 105 -39t39 -124v-230
q0 -40 6.5 -50.5t34.5 -17.5zM253 589l119 115h17l-136 -188l-136 188h17z" />
    <glyph glyph-name="Ohungarumlaut" unicode="&#x150;" horiz-adv-x="716" 
d="M583 347q0 99 -18.5 170.5t-51.5 110.5t-71.5 56.5t-85.5 17.5t-86 -17.5t-72.5 -56.5t-52 -110.5t-18.5 -170.5q0 -345 229 -345q227 0 227 345zM671 347q0 -159 -79 -257.5t-236 -98.5t-236 98.5t-79 257.5q0 103 32 183.5t104.5 131.5t178.5 51t178.5 -51
t104.5 -131.5t32 -183.5zM387 735l173 161l72 -20l-230 -141h-15zM222 735l173 161l72 -20l-230 -141h-15z" />
    <glyph glyph-name="ohungarumlaut" unicode="&#x151;" horiz-adv-x="534" 
d="M414 231q0 229 -146 229q-147 0 -147 -229t147 -229q146 0 146 229zM495 231q0 -104 -58.5 -172t-168.5 -68q-109 0 -168 68t-59 172t59 172t168 68q110 0 168.5 -67.5t58.5 -172.5zM269 541l173 161l72 -20l-230 -141h-15zM104 541l173 161l72 -20l-230 -141h-15z" />
    <glyph glyph-name="OE" unicode="&#x152;" horiz-adv-x="889" 
d="M432 81v532q0 88 -95 88q-98 0 -153.5 -81t-55.5 -274q0 -100 15.5 -169.5t45 -106.5t65 -53t83.5 -16q95 0 95 80zM814 203h11v-203h-422q-37 -9 -66 -9q-80 0 -138.5 27t-92 76.5t-49 111.5t-15.5 140t15.5 141.5t49 115t92 80.5t138.5 29q24 0 64 -8h411v-175h-11
q-2 34 -10.5 60.5t-19 43.5t-30.5 29t-36 18.5t-44.5 9.5t-47 3.5t-51.5 0.5h-48v-332h49q18 0 23.5 0.5t23.5 2.5t26.5 8t20 16t17 28.5t6.5 42.5h11v-210h-11q-1 21 -6.5 38t-11 27t-19 17.5t-19 10.5t-23 4.5t-19.5 1.5h-19h-49v-338h36h13q36 0 54.5 0.5t49 4t46.5 10.5
t37.5 20.5t32.5 34t20 51.5t11 71z" />
    <glyph glyph-name="oe" unicode="&#x153;" horiz-adv-x="789" 
d="M456 244h226q0 112 -34 164t-75 52q-49 0 -83 -55t-34 -161zM723 122l9 -4q-4 -19 -13 -38t-26.5 -40.5t-48 -35t-69.5 -13.5q-100 0 -159 96q-29 -48 -67 -72t-101 -24q-107 0 -157 66t-50 173q0 108 50 174.5t157 66.5q63 0 102.5 -26.5t67.5 -76.5q60 103 155 103
q81 0 128.5 -59t47.5 -180h-293q1 -104 34 -152t100 -51q46 -2 84.5 28.5t48.5 64.5zM248 460q-62 0 -94.5 -51t-32.5 -179t32 -178t95 -50q62 0 94 50t32 178t-32 179t-94 51z" />
    <glyph glyph-name="Racute" unicode="&#x154;" horiz-adv-x="585" 
d="M395 513q0 38 -6 67t-14 48t-25 32t-29.5 19.5t-38 9.5t-40.5 3.5t-45 0.5h-12h-31v-358h31h2h39t35.5 1.5t33.5 5t28 9.5t25.5 14.5t19 22t15.5 31t8.5 41.5t3.5 53zM584 11v-11h-68q-34 0 -47.5 1.5t-28.5 9t-21.5 26t-15 48t-20.5 80.5q-7 34 -12 53q-25 106 -170 106
h-47v-228q0 -50 13.5 -67.5t46.5 -17.5v-11h-191v11q34 0 45.5 19t11.5 86v507q0 45 -11.5 57.5t-45.5 12.5v11h162q65 0 108 -4t81.5 -15.5t60 -32.5t33.5 -55t12 -84q0 -99 -48.5 -140t-133.5 -44q53 -6 69 -13q61 -27 101 -168q6 -24 13 -53q17 -77 103 -84zM145 734
l181 161l65 -19l-231 -142h-15z" />
    <glyph glyph-name="racute" unicode="&#x155;" horiz-adv-x="336" 
d="M276 469q29 0 45 -22q11 -16 6.5 -35t-20.5 -29q-16 -11 -35 -6.5t-30 20.5q-10 16 -5 33q1 6 -6 6q-22 1 -57 -30q-28 -26 -41 -57v-271q0 -40 6.5 -50t34.5 -17v-11h-150v11q28 8 34 18t6 49v306q0 27 -10 38.5t-40 15.5v10l119 23v-100q21 43 63 70.5t80 27.5zM48 540
l181 161l65 -19l-231 -142h-15z" />
    <glyph glyph-name="Rcaron" unicode="&#x158;" horiz-adv-x="585" 
d="M395 513q0 38 -6 67t-14 48t-25 32t-29.5 19.5t-38 9.5t-40.5 3.5t-45 0.5h-12h-31v-358h31h2h39t35.5 1.5t33.5 5t28 9.5t25.5 14.5t19 22t15.5 31t8.5 41.5t3.5 53zM584 11v-11h-68q-34 0 -47.5 1.5t-28.5 9t-21.5 26t-15 48t-20.5 80.5q-7 34 -12 53q-25 106 -170 106
h-47v-228q0 -50 13.5 -67.5t46.5 -17.5v-11h-191v11q34 0 45.5 19t11.5 86v507q0 45 -11.5 57.5t-45.5 12.5v11h162q65 0 108 -4t81.5 -15.5t60 -32.5t33.5 -55t12 -84q0 -99 -48.5 -140t-133.5 -44q53 -6 69 -13q61 -27 101 -168q6 -24 13 -53q17 -77 103 -84zM241 807
l119 115h17l-136 -188l-136 188h17z" />
    <glyph glyph-name="rcaron" unicode="&#x159;" horiz-adv-x="336" 
d="M276 469q29 0 45 -22q11 -16 6.5 -35t-20.5 -29q-16 -11 -35 -6.5t-30 20.5q-10 16 -5 33q1 6 -6 6q-22 1 -57 -30q-28 -26 -41 -57v-271q0 -40 6.5 -50t34.5 -17v-11h-150v11q28 8 34 18t6 49v306q0 27 -10 38.5t-40 15.5v10l119 23v-100q21 43 63 70.5t80 27.5z
M161 590l119 115h17l-136 -188l-136 188h17z" />
    <glyph glyph-name="Sacute" unicode="&#x15a;" horiz-adv-x="544" 
d="M459 73q-2 -3 -5.5 -8.5t-19 -20t-35 -25t-55 -19.5t-78.5 -9q-65 0 -120 13.5t-78 27.5l-22 13v192h10q4 -123 48 -179t162 -56q62 0 100 29.5t45.5 70.5t-11.5 86.5t-61 74.5l-171 113q-28 19 -47 34.5t-42.5 42.5t-34 52t-8 60t23.5 70q2 3 6 8.5t19.5 19t34 23.5
t51 18.5t68.5 8.5q59 0 112.5 -11.5t77.5 -23.5l24 -12v-168h-12q-2 51 -10 84.5t-28.5 62.5t-61 43t-102.5 14q-40 0 -75.5 -24.5t-51.5 -60t1.5 -80.5t74.5 -82l171 -112q48 -32 78 -69.5t38.5 -73.5t4 -68t-20.5 -59zM138 734l181 161l65 -19l-231 -142h-15z" />
    <glyph glyph-name="sacute" unicode="&#x15b;" horiz-adv-x="417" 
d="M338 38q-4 -5 -11.5 -13t-38.5 -21t-70 -13q-54 0 -97 9.5t-59 18.5l-16 9v141h10q2 -35 8.5 -60.5t22.5 -52t49 -40.5t82 -14q58 0 76.5 31t1 70t-56.5 64l-101 61q-71 49 -89 91t7 91q1 2 3.5 6.5t12.5 15t23 18.5t36.5 14.5t52.5 6.5q51 0 92 -8t56 -16l15 -8v-127
h-10q-8 148 -153 148q-52 0 -72.5 -27.5t-5 -65t58.5 -64.5l101 -63q68 -42 87.5 -97t-15.5 -105zM71 540l181 161l65 -19l-231 -142h-15z" />
    <glyph glyph-name="Scedilla" unicode="&#x15e;" horiz-adv-x="544" 
d="M459 73q-2 -3 -5.5 -8.5t-19 -20t-35 -25t-55 -19.5t-78.5 -9q-4 0 -10.5 0.5t-9.5 0.5l-20 -56q65 15 99.5 -11.5t28.5 -68.5q-10 -79 -101 -79q-45 0 -63 22q-7 10 -2 22q9 19 29 10q18 -9 9 -28q-4 -7 -11 -9q-2 0 1.5 -2.5t13.5 -5.5t23 -3q28 0 46 16t18 46
q0 13 -4.5 26.5t-16.5 27.5t-33.5 17.5t-54.5 -2.5l26 78q-56 3 -103 16.5t-66 25.5l-19 11v192h10q4 -123 48 -179t162 -56q62 0 100 29.5t45.5 70.5t-11.5 86.5t-61 74.5l-171 113q-28 19 -47 34.5t-42.5 42.5t-34 52t-8 60t23.5 70q2 3 6 8.5t19.5 19t34 23.5t51 18.5
t68.5 8.5q59 0 112.5 -11.5t77.5 -23.5l24 -12v-168h-12q-2 51 -10 84.5t-28.5 62.5t-61 43t-102.5 14q-40 0 -75.5 -24.5t-51.5 -60t1.5 -80.5t74.5 -82l171 -112q48 -32 78 -69.5t38.5 -73.5t4 -68t-20.5 -59z" />
    <glyph glyph-name="scedilla" unicode="&#x15f;" horiz-adv-x="417" 
d="M338 38q-4 -5 -11.5 -13t-38.5 -21t-70 -13q-25 0 -36 1l-20 -56q65 15 99.5 -11.5t28.5 -68.5q-10 -79 -101 -79q-45 0 -63 22q-7 10 -2 22q9 19 29 10q18 -9 9 -28q-4 -7 -11 -9q-2 0 1.5 -2.5t13.5 -5.5t23 -3q28 0 46 16t18 46q0 13 -4.5 26.5t-16.5 27.5t-33.5 17.5
t-54.5 -2.5l26 79q-38 4 -69 12.5t-43 15.5l-12 7v141h10q2 -35 8.5 -60.5t22.5 -52t49 -40.5t82 -14q58 0 76.5 31t1 70t-56.5 64l-101 61q-71 49 -89 91t7 91q1 2 3.5 6.5t12.5 15t23 18.5t36.5 14.5t52.5 6.5q51 0 92 -8t56 -16l15 -8v-127h-10q-8 148 -153 148
q-52 0 -72.5 -27.5t-5 -65t58.5 -64.5l101 -63q68 -42 87.5 -97t-15.5 -105z" />
    <glyph glyph-name="Scaron" unicode="&#x160;" horiz-adv-x="544" 
d="M459 73q-2 -3 -5.5 -8.5t-19 -20t-35 -25t-55 -19.5t-78.5 -9q-65 0 -120 13.5t-78 27.5l-22 13v192h10q4 -123 48 -179t162 -56q62 0 100 29.5t45.5 70.5t-11.5 86.5t-61 74.5l-171 113q-28 19 -47 34.5t-42.5 42.5t-34 52t-8 60t23.5 70q2 3 6 8.5t19.5 19t34 23.5
t51 18.5t68.5 8.5q59 0 112.5 -11.5t77.5 -23.5l24 -12v-168h-12q-2 51 -10 84.5t-28.5 62.5t-61 43t-102.5 14q-40 0 -75.5 -24.5t-51.5 -60t1.5 -80.5t74.5 -82l171 -112q48 -32 78 -69.5t38.5 -73.5t4 -68t-20.5 -59zM247 807l119 115h17l-136 -188l-136 188h17z" />
    <glyph glyph-name="scaron" unicode="&#x161;" horiz-adv-x="417" 
d="M191 567l119 115h17l-136 -188l-136 188h17zM338 38q-4 -5 -11.5 -13t-38.5 -21t-70 -13q-54 0 -97 9.5t-59 18.5l-16 9v141h10q2 -35 8.5 -60.5t22.5 -52t49 -40.5t82 -14q58 0 76.5 31t1 70t-56.5 64l-101 61q-71 49 -89 91t7 91q1 2 3.5 6.5t12.5 15t23 18.5
t36.5 14.5t52.5 6.5q51 0 92 -8t56 -16l15 -8v-127h-10q-8 148 -153 148q-52 0 -72.5 -27.5t-5 -65t58.5 -64.5l101 -63q68 -42 87.5 -97t-15.5 -105z" />
    <glyph glyph-name="uni0162" unicode="&#x162;" horiz-adv-x="627" 
d="M19 704h589v-164h-11q-1 43 -17 74.5t-36 46t-47.5 23t-40.5 9.5t-26 1h-79v-609q0 -45 15.5 -59.5t50.5 -14.5v-11h-114l-23 -64q65 15 99.5 -11.5t28.5 -68.5q-10 -79 -101 -79q-45 0 -63 22q-7 10 -2 22q9 19 29 10q18 -9 9 -28q-4 -7 -11 -9q-2 0 1.5 -2.5t13.5 -5.5
t23 -3q28 0 46 16t18 46q0 13 -4.5 26.5t-16.5 27.5t-33.5 17.5t-54.5 -2.5l29 86h-82v11q35 0 50.5 14.5t15.5 59.5v609h-79q-21 0 -35.5 -1t-41.5 -9.5t-44.5 -23t-31 -46t-14.5 -74.5h-10v164z" />
    <glyph glyph-name="uni0163" unicode="&#x163;" horiz-adv-x="297" 
d="M279 74l6 -2q-9 -34 -37.5 -57.5t-66.5 -23.5q-9 0 -27 2l-20 -57q65 15 99.5 -11.5t28.5 -68.5q-10 -79 -101 -79q-45 0 -63 22q-7 10 -2 22q9 19 29 10q18 -9 9 -28q-4 -7 -11 -9q-2 0 1.5 -2.5t13.5 -5.5t23 -3q28 0 46 16t18 46q0 13 -4.5 26.5t-16.5 27.5
t-33.5 17.5t-54.5 -2.5l27 81q-74 19 -74 149v305h-51l-2 13h53v145l68 10v-155h119l-3 -13h-116v-302q0 -65 20.5 -91.5t59.5 -26.5q21 0 38.5 13.5t23.5 31.5z" />
    <glyph glyph-name="Tcaron" unicode="&#x164;" horiz-adv-x="627" 
d="M19 704h589v-164h-11q-1 43 -17 74.5t-36 46t-47.5 23t-40.5 9.5t-26 1h-79v-609q0 -45 15.5 -59.5t50.5 -14.5v-11h-208v11q35 0 50.5 14.5t15.5 59.5v609h-79q-21 0 -35.5 -1t-41.5 -9.5t-44.5 -23t-31 -46t-14.5 -74.5h-10v164zM313 807l119 115h17l-136 -188
l-136 188h17z" />
    <glyph glyph-name="tcaron" unicode="&#x165;" horiz-adv-x="299" 
d="M276 75l8 -4q-9 -33 -36.5 -56.5t-65.5 -23.5q-56 0 -84.5 33.5t-28.5 119.5v307h-50l-2 11h52v147l69 9v-156h118l-2 -11h-116v-304q0 -65 20 -91.5t57 -26.5q21 0 38 13.5t23 32.5zM207 704h58q0 -34 -10 -65t-23.5 -51t-27.5 -35.5t-24 -22.5l-10 -7l-6 9q5 4 12 13.5
t19 53.5t12 105z" />
    <glyph glyph-name="Uring" unicode="&#x16e;" horiz-adv-x="684" 
d="M308 -9q-99 0 -161.5 64t-62.5 182v370q0 51 -15.5 68.5t-50.5 17.5v11h215v-11q-38 0 -55.5 -16t-17.5 -72v-377q0 -95 51 -147.5t139 -52.5q87 0 137.5 54.5t50.5 151.5v259q0 50 -1.5 76t-7 54.5t-17 41t-32 20.5t-52.5 8v11h238v-11q-22 0 -38.5 -2t-29 -9t-21 -12.5
t-14 -20.5t-8.5 -25t-4.5 -33.5t-1.5 -37.5v-47v-13v-259q1 -118 -65 -180.5t-176 -62.5zM266 880q0 -27 19 -46.5t46 -19.5t46.5 19.5t19.5 46.5q0 28 -19.5 47t-46.5 19q-28 0 -46.5 -19t-18.5 -47zM238 880q0 38 27.5 65.5t65.5 27.5q39 0 66 -27.5t27 -65.5t-27 -65.5
t-66 -27.5q-38 0 -65.5 27.5t-27.5 65.5z" />
    <glyph glyph-name="uring" unicode="&#x16f;" horiz-adv-x="501" 
d="M484 18v-10l-97 -16q-10 -2 -16 1t-7 7v5v83q-11 -40 -50.5 -68.5t-89.5 -28.5q-151 0 -151 150v230q0 51 -7.5 61t-48.5 10v11l123 18v-327q0 -59 32 -87t81 -28q42 0 70.5 23.5t40.5 59.5v264q0 47 -6 56t-41 10v11l116 18v-392q0 -35 9.5 -46t41.5 -15zM189 615
q0 -27 19 -46.5t46 -19.5t46.5 19.5t19.5 46.5q0 28 -19.5 47t-46.5 19q-28 0 -46.5 -19t-18.5 -47zM161 615q0 38 27.5 65.5t65.5 27.5q39 0 66 -27.5t27 -65.5t-27 -65.5t-66 -27.5q-38 0 -65.5 27.5t-27.5 65.5z" />
    <glyph glyph-name="Uhungarumlaut" unicode="&#x170;" horiz-adv-x="684" 
d="M308 -9q-99 0 -161.5 64t-62.5 182v370q0 51 -15.5 68.5t-50.5 17.5v11h215v-11q-38 0 -55.5 -16t-17.5 -72v-377q0 -95 51 -147.5t139 -52.5q87 0 137.5 54.5t50.5 151.5v259q0 50 -1.5 76t-7 54.5t-17 41t-32 20.5t-52.5 8v11h238v-11q-22 0 -38.5 -2t-29 -9t-21 -12.5
t-14 -20.5t-8.5 -25t-4.5 -33.5t-1.5 -37.5v-47v-13v-259q1 -118 -65 -180.5t-176 -62.5zM355 735l173 161l72 -20l-230 -141h-15zM190 735l173 161l72 -20l-230 -141h-15z" />
    <glyph glyph-name="uhungarumlaut" unicode="&#x171;" horiz-adv-x="501" 
d="M484 18v-10l-97 -16q-10 -2 -16 1t-7 7v5v83q-11 -40 -50.5 -68.5t-89.5 -28.5q-151 0 -151 150v230q0 51 -7.5 61t-48.5 10v11l123 18v-327q0 -59 32 -87t81 -28q42 0 70.5 23.5t40.5 59.5v264q0 47 -6 56t-41 10v11l116 18v-392q0 -35 9.5 -46t41.5 -15zM271 541
l173 161l72 -20l-230 -141h-15zM106 541l173 161l72 -20l-230 -141h-15z" />
    <glyph glyph-name="Ydieresis" unicode="&#x178;" horiz-adv-x="652" 
d="M364 825q0 17 11.5 29t28.5 12t28.5 -12t11.5 -29t-12 -28.5t-28 -11.5t-28 11.5t-12 28.5zM402 705h236v-10q-24 0 -37 -4t-35 -24.5t-49.5 -66.5t-68.5 -127l-83 -166v-199q0 -60 17 -78t54 -18v-12h-208v12q37 0 53.5 17.5t16.5 78.5v186l-186 322q-21 36 -39.5 54
t-29 20.5t-34.5 4.5v10h225v-10q-14 0 -21.5 -0.5t-19 -6.5t-13.5 -17t5 -34t26 -56l149 -255l79 164q13 27 21 44.5t16.5 41.5t10.5 39t0 31.5t-11.5 26t-28 16t-45.5 6.5v10zM219 825q0 17 11.5 29t28.5 12q16 0 28 -12t12 -29q0 -16 -12 -28t-28 -12q-17 0 -28.5 11.5
t-11.5 28.5z" />
    <glyph glyph-name="Zacute" unicode="&#x179;" horiz-adv-x="504" 
d="M126 12h12q122 0 185 19t94 64.5t45 138.5h15l-24 -234h-429l371 693h-50q-164 0 -221 -35t-76 -156h-16l17 202h427zM149 734l181 161l65 -19l-231 -142h-15z" />
    <glyph glyph-name="zacute" unicode="&#x17a;" horiz-adv-x="397" 
d="M368 462l-249 -452q117 0 170 29.5t62 112.5h12l-9 -152h-325l258 452q-45 0 -76 -2.5t-62.5 -9.5t-51 -20t-33 -35.5t-17.5 -54.5h-12l5 132h328zM80 540l181 161l65 -19l-231 -142h-15z" />
    <glyph glyph-name="Zdotaccent" unicode="&#x17b;" horiz-adv-x="504" 
d="M126 12h12q122 0 185 19t94 64.5t45 138.5h15l-24 -234h-429l371 693h-50q-164 0 -221 -35t-76 -156h-16l17 202h427zM278 797q-22 0 -36.5 14.5t-14.5 35.5t14.5 35.5t36.5 14.5q20 0 35 -14.5t15 -35.5t-15 -35.5t-35 -14.5z" />
    <glyph glyph-name="zdotaccent" unicode="&#x17c;" horiz-adv-x="397" 
d="M368 462l-249 -452q117 0 170 29.5t62 112.5h12l-9 -152h-325l258 452q-45 0 -76 -2.5t-62.5 -9.5t-51 -20t-33 -35.5t-17.5 -54.5h-12l5 132h328zM211 577q-22 0 -36.5 14.5t-14.5 35.5t14.5 35.5t36.5 14.5q20 0 35 -14.5t15 -35.5t-15 -35.5t-35 -14.5z" />
    <glyph glyph-name="Zcaron" unicode="&#x17d;" horiz-adv-x="504" 
d="M126 12h12q122 0 185 19t94 64.5t45 138.5h15l-24 -234h-429l371 693h-50q-164 0 -221 -35t-76 -156h-16l17 202h427zM264 807l119 115h17l-136 -188l-136 188h17z" />
    <glyph glyph-name="zcaron" unicode="&#x17e;" horiz-adv-x="397" 
d="M204 567l119 115h17l-136 -188l-136 188h17zM368 462l-249 -452q117 0 170 29.5t62 112.5h12l-9 -152h-325l258 452q-45 0 -76 -2.5t-62.5 -9.5t-51 -20t-33 -35.5t-17.5 -54.5h-12l5 132h328z" />
    <glyph glyph-name="florin" unicode="&#x192;" horiz-adv-x="589" 
d="M544 645q-7 -15 -23 -20t-30 2q-16 7 -21.5 23t2.5 31q6 15 23 20q0 1 0.5 6.5t-10.5 11.5t-30 6q-27 0 -47.5 -34.5t-27.5 -68.5l-7 -35l-29 -207h105l-5 -14h-101l-37 -268q-8 -61 -13.5 -96t-13.5 -76.5t-17 -63t-22 -44.5t-29.5 -33.5t-39 -17t-51.5 -6.5
q-60 0 -89 44q-14 24 -3 45q7 16 23.5 21.5t31.5 -2.5q14 -7 19.5 -23t-1.5 -31q-7 -14 -22 -20q-6 -1 -1 -10q8 -14 43 -14q28 0 49.5 37.5t28.5 75.5l7 38l64 444h-76l1 14h75q7 57 13 94.5t16 82.5t23 73.5t31 54.5t44 38t58 12q35 0 57 -14.5t30 -28.5q13 -24 2 -47z
" />
    <glyph glyph-name="uni0218" unicode="&#x218;" horiz-adv-x="544" 
d="M226 -238l-5 6q33 22 46 48.5t9 43t-13 18.5q-21 4 -32 14q-14 14 -14 32.5t13 32.5q14 14 33 14t33 -14q20 -23 18 -60.5t-22 -70.5q-24 -42 -66 -64zM459 73q-2 -3 -5.5 -8.5t-19 -20t-35 -25t-55 -19.5t-78.5 -9q-65 0 -120 13.5t-78 27.5l-22 13v192h10
q4 -123 48 -179t162 -56q62 0 100 29.5t45.5 70.5t-11.5 86.5t-61 74.5l-171 113q-28 19 -47 34.5t-42.5 42.5t-34 52t-8 60t23.5 70q2 3 6 8.5t19.5 19t34 23.5t51 18.5t68.5 8.5q59 0 112.5 -11.5t77.5 -23.5l24 -12v-168h-12q-2 51 -10 84.5t-28.5 62.5t-61 43t-102.5 14
q-40 0 -75.5 -24.5t-51.5 -60t1.5 -80.5t74.5 -82l171 -112q48 -32 78 -69.5t38.5 -73.5t4 -68t-20.5 -59z" />
    <glyph glyph-name="uni0219" unicode="&#x219;" horiz-adv-x="417" 
d="M177 -238l-5 6q33 22 46 48.5t9 43t-13 18.5q-21 4 -32 14q-14 14 -14 32.5t13 32.5q14 14 33.5 14t32.5 -14q20 -23 18 -60.5t-22 -70.5q-24 -42 -66 -64zM338 38q-4 -5 -11.5 -13t-38.5 -21t-70 -13q-54 0 -97 9.5t-59 18.5l-16 9v141h10q2 -35 8.5 -60.5t22.5 -52
t49 -40.5t82 -14q58 0 76.5 31t1 70t-56.5 64l-101 61q-71 49 -89 91t7 91q1 2 3.5 6.5t12.5 15t23 18.5t36.5 14.5t52.5 6.5q51 0 92 -8t56 -16l15 -8v-127h-10q-8 148 -153 148q-52 0 -72.5 -27.5t-5 -65t58.5 -64.5l101 -63q68 -42 87.5 -97t-15.5 -105z" />
    <glyph glyph-name="uni021A" unicode="&#x21a;" horiz-adv-x="627" 
d="M281 -238l-5 6q33 22 46 48.5t9 43t-13 18.5q-21 4 -32 14q-14 14 -14 32.5t13 32.5q14 14 33.5 14t32.5 -14q20 -23 18 -60.5t-22 -70.5q-24 -42 -66 -64zM19 704h589v-164h-11q-1 43 -17 74.5t-36 46t-47.5 23t-40.5 9.5t-26 1h-79v-609q0 -45 15.5 -59.5t50.5 -14.5
v-11h-208v11q35 0 50.5 14.5t15.5 59.5v609h-79q-21 0 -35.5 -1t-41.5 -9.5t-44.5 -23t-31 -46t-14.5 -74.5h-10v164z" />
    <glyph glyph-name="uni021B" unicode="&#x21b;" horiz-adv-x="298" 
d="M133 -238l-5 6q33 22 46 48.5t9 43t-13 18.5q-21 4 -32 14q-14 14 -14 32.5t13 32.5q14 14 33.5 14t32.5 -14q20 -23 18 -60.5t-22 -70.5q-24 -42 -66 -64zM276 75l8 -4q-9 -33 -36.5 -56.5t-65.5 -23.5q-56 0 -84.5 33.5t-28.5 119.5v307h-50l-2 11h52v147l69 9v-156
h118l-2 -11h-116v-304q0 -65 20 -91.5t57 -26.5q21 0 38 13.5t23 32.5z" />
    <glyph glyph-name="circumflex" unicode="&#x2c6;" horiz-adv-x="272" 
d="M136 645l-119 -114h-17l136 188l136 -188h-17z" />
    <glyph glyph-name="caron" unicode="&#x2c7;" horiz-adv-x="274" 
d="M136 605l119 115h17l-136 -188l-136 188h17z" />
    <glyph glyph-name="uni02C9" unicode="&#x2c9;" horiz-adv-x="305" 
d="M330 598h-355v46h355v-46z" />
    <glyph glyph-name="breve" unicode="&#x2d8;" horiz-adv-x="252" 
d="M247 704h6q0 -137 -125 -137q-129 0 -129 137h7q0 -36 27 -62t95 -26q66 0 92.5 26.5t26.5 61.5z" />
    <glyph glyph-name="dotaccent" unicode="&#x2d9;" horiz-adv-x="258" 
d="M131 596q-22 0 -36.5 14.5t-14.5 35.5t14.5 35.5t36.5 14.5q20 0 35 -14.5t15 -35.5t-15 -35.5t-35 -14.5z" />
    <glyph glyph-name="ring" unicode="&#x2da;" horiz-adv-x="271" 
d="M73 637q0 -27 19 -46.5t46 -19.5t46.5 19.5t19.5 46.5q0 28 -19.5 47t-46.5 19q-28 0 -46.5 -19t-18.5 -47zM45 637q0 38 27.5 65.5t65.5 27.5q39 0 66 -27.5t27 -65.5t-27 -65.5t-66 -27.5q-38 0 -65.5 27.5t-27.5 65.5z" />
    <glyph glyph-name="ogonek" unicode="&#x2db;" horiz-adv-x="267" 
d="M147 -134q5 -20 21 -30.5t29 -11.5h13q21 0 34 18t13 37h10q0 -80 -69 -80q-31 0 -53 10.5t-29 20.5l-6 10q-21 53 15.5 94t110.5 66v-8q-42 -19 -69.5 -58t-19.5 -68z" />
    <glyph glyph-name="tilde" unicode="&#x2dc;" horiz-adv-x="412" 
d="M248 573l-111 43q-19 7 -47 7.5t-58.5 -12t-43.5 -39.5l-6 2q15 39 39.5 64t47.5 31.5t44.5 7.5t34.5 -3l13 -3l113 -43q19 -5 47 -6.5t59 12.5t42 39l6 -3q-15 -40 -39.5 -64.5t-48 -31t-45 -8t-34.5 2.5z" />
    <glyph glyph-name="hungarumlaut" unicode="&#x2dd;" horiz-adv-x="501" 
d="M252 557l173 161l72 -20l-230 -141h-15zM87 557l173 161l72 -20l-230 -141h-15z" />
    <glyph glyph-name="uni03A9" unicode="&#x3a9;" horiz-adv-x="690" 
d="M618 120h11l-24 -120h-235q7 35 26 70.5t40 68t42 72t34.5 100t13.5 134.5q0 280 -196 280t-196 -280q0 -74 13.5 -134.5t34 -100t42 -72t40.5 -68t26 -70.5h-235l-24 120h10q14 -34 35 -45t63 -11h110q-5 17 -16.5 33t-38 41.5t-32.5 31.5q-111 118 -111 280
q0 124 72.5 205t206.5 81t206.5 -81t72.5 -205q0 -161 -112 -280q-8 -9 -25.5 -26t-27.5 -27t-20 -25t-13 -28h110q42 0 62.5 11t34.5 45z" />
    <glyph glyph-name="uni03BC" unicode="&#x3bc;" horiz-adv-x="497" 
d="M478 18v-10l-97 -16q-10 -2 -16 1t-7 7v5v83q-8 -35 -43 -62t-82.5 -33t-98.5 21v-189q0 -36 9.5 -47.5t41.5 -15.5v-10l-96 -16q-10 -2 -15.5 1t-5.5 7l-1 5v622q0 51 -7 60.5t-49 10.5v11l123 18v-338q4 -54 35.5 -79t77.5 -25q42 0 70.5 23.5t40.5 59.5v264
q0 47 -6 56t-41 10v11l116 18v-392q0 -35 9.5 -46t41.5 -15z" />
    <glyph glyph-name="pi" unicode="&#x3c0;" horiz-adv-x="575" 
d="M500 44l9 -2q-14 -51 -75 -51q-36 0 -56 18t-22 36l-2 18v338h-134l-10 -226q-2 -44 -16.5 -82.5t-34.5 -62t-39 -41t-32 -24.5l-14 -7l-5 7q93 72 101 216l9 220h-13q-108 -3 -147 -61l-7 5q2 4 5.5 11.5t18 26.5t32 34t48 27t65.5 12h241q48 0 72.5 3.5t40.5 17
t17 40.5h7q0 -64 -28.5 -90t-95.5 -26h-21v-313q0 -63 54 -63q11 0 19 4.5t11 9.5z" />
    <glyph glyph-name="uni2010" unicode="&#x2010;" horiz-adv-x="447" 
d="M64 281h315v-50h-315v50z" />
    <glyph glyph-name="endash" unicode="&#x2013;" horiz-adv-x="561" 
d="M0 274h561v-43h-561v43z" />
    <glyph glyph-name="emdash" unicode="&#x2014;" horiz-adv-x="1055" 
d="M0 274h1055v-43h-1055v43z" />
    <glyph glyph-name="quoteleft" unicode="&#x2018;" horiz-adv-x="204" 
d="M148 689l5 -5q-33 -23 -46 -49.5t-9 -43t13 -18.5q21 -4 32 -14q14 -14 14 -32.5t-13 -32.5q-14 -14 -33 -14t-33 14q-20 22 -18 60t22 71q7 13 13 21t19.5 20.5t33.5 22.5z" />
    <glyph glyph-name="quoteright" unicode="&#x2019;" horiz-adv-x="207" 
d="M65 477l-5 5q33 23 46 49.5t9 43t-13 18.5q-21 4 -32 14q-14 14 -14 32.5t13 32.5q14 14 33 14t33 -14q20 -22 18 -60t-22 -71q-7 -13 -13 -21t-19.5 -20.5t-33.5 -22.5z" />
    <glyph glyph-name="quotesinglbase" unicode="&#x201a;" horiz-adv-x="204" 
d="M64 -122l-5 5q33 23 46 49.5t9 43t-13 18.5q-21 4 -32 14q-14 14 -14 32.5t13 32.5q14 14 33 14t33 -14q20 -22 18 -60t-22 -71q-7 -13 -13 -21t-19.5 -20.5t-33.5 -22.5z" />
    <glyph glyph-name="quotedblleft" unicode="&#x201c;" horiz-adv-x="383" 
d="M314 693l5 -5q-33 -23 -46 -49.5t-9 -43t13 -18.5q21 -4 32 -14q14 -14 14 -32.5t-13 -32.5q-14 -14 -33 -14t-33 14q-20 22 -18 60t22 71q7 13 13 21t19.5 20.5t33.5 22.5zM141 693l4 -5q-33 -23 -45.5 -49.5t-8.5 -43t13 -18.5q21 -4 31 -14q14 -13 14.5 -32.5
t-13.5 -32.5q-14 -14 -33 -14t-33 14q-20 23 -18 60.5t22 70.5q25 42 67 64z" />
    <glyph glyph-name="quotedblright" unicode="&#x201d;" horiz-adv-x="378" 
d="M64 485l-5 5q33 23 46 49.5t9 43t-13 18.5q-21 4 -32 14q-14 14 -14 32.5t13 32.5q14 14 33 14t33 -14q20 -22 18 -60t-22 -71q-7 -13 -13 -21t-19.5 -20.5t-33.5 -22.5zM237 485l-4 5q33 23 45.5 49.5t8.5 43t-13 18.5q-21 4 -31 14q-14 13 -14.5 32.5t13.5 32.5
q14 14 33 14t33 -14q20 -23 18 -60.5t-22 -70.5q-25 -42 -67 -64z" />
    <glyph glyph-name="quotedblbase" unicode="&#x201e;" horiz-adv-x="378" 
d="M64 -121l-5 5q33 23 46 49.5t9 43t-13 18.5q-21 4 -32 14q-14 14 -14 32.5t13 32.5q14 14 33 14t33 -14q20 -22 18 -60t-22 -71q-7 -13 -13 -21t-19.5 -20.5t-33.5 -22.5zM237 -121l-4 5q33 23 45.5 49.5t8.5 43t-13 18.5q-21 4 -31 14q-14 13 -14.5 32.5t13.5 32.5
q14 14 33 14t33 -14q20 -23 18 -60.5t-22 -70.5q-25 -42 -67 -64z" />
    <glyph glyph-name="dagger" unicode="&#x2020;" horiz-adv-x="374" 
d="M186 645q-16 0 -27.5 11.5t-11.5 27.5q0 17 11.5 28.5t27.5 11.5t28 -12t12 -28t-12 -27.5t-28 -11.5zM103 445q17 -12 31 -36l-4 -3q-8 10 -19.5 16.5t-18 7t-8.5 -1.5q-2 -16 -10 -23q-10 -10 -24 -10.5t-24 9.5t-10 24t10 24q26 27 77 -7zM194 403q-3 -51 33 -111
q-38 -240 -38 -557h-6q0 317 -37 557q16 27 24 55t8 42v14q0 34 -8.5 78.5t-8.5 63.5q1 2 -0.5 15.5t5 29.5t20.5 16t20.5 -15t5.5 -31l-1 -15q0 -19 -8.5 -63t-8.5 -79zM346 452q10 -10 10 -24t-10 -24t-24 -9.5t-24 10.5q-8 7 -10 23q-2 2 -8.5 1.5t-18 -7t-19.5 -16.5
l-4 3q12 21 32 36q11 8 24 13t28 4.5t24 -10.5z" />
    <glyph glyph-name="daggerdbl" unicode="&#x2021;" horiz-adv-x="426" 
d="M221 357q0 -75 57 -112q-56 -36 -56 -110q0 -37 10 -81t10 -64q-1 -2 0.5 -16.5t-5.5 -31.5t-22 -17q-16 0 -23 16.5t-6 32.5l1 16q0 20 9.5 64t9.5 81q0 80 -57 110q56 37 56 112q0 37 -9 80.5t-9 64.5q0 3 -0.5 7t0 15.5t2.5 20t8 15.5t16 7q16 0 23 -16.5t6 -32.5
l-1 -16q0 -21 -10 -64.5t-10 -80.5zM324 393q-2 2 -9 1.5t-20 -7.5t-21 -18l-5 3q14 25 35 39q53 38 83 8q11 -11 11 -26t-11 -26t-27 -10.5t-26 11.5q-8 8 -10 25zM213 609q-17 0 -30 13t-13 30q0 18 13 31t30 13q18 0 30.5 -13t12.5 -31t-12.5 -30.5t-30.5 -12.5z
M215 -117q17 0 29.5 -13t12.5 -30q0 -18 -12.5 -30.5t-29.5 -12.5q-19 0 -31.5 12.5t-12.5 30.5t12.5 30.5t31.5 12.5zM93 368q-11 -11 -26.5 -11.5t-26.5 10.5q-10 11 -10 26t10 26q20 15 41.5 11t41.5 -19q21 -14 35 -39l-5 -3q-8 11 -20.5 18t-19.5 7.5t-9 -1.5
q-2 -16 -11 -25zM335 125q10 11 25.5 11.5t27.5 -10.5q10 -12 10 -27t-10 -26q-21 -14 -42.5 -10t-41.5 18q-22 19 -34 40l4 3q9 -11 21.5 -18t19.5 -7.5t9 1.5q2 17 11 25zM104 100q2 -2 9 -1.5t19.5 7.5t21.5 18l4 -3q-12 -20 -34 -40q-20 -14 -41.5 -18t-42.5 10
q-10 11 -10 26t10 27q12 11 27.5 10.5t25.5 -11.5q9 -9 11 -25z" />
    <glyph glyph-name="bullet" unicode="&#x2022;" horiz-adv-x="410" 
d="M195 255q-36 0 -62 25.5t-26 60.5q0 37 26 62.5t62 25.5t61.5 -25.5t25.5 -62.5q0 -35 -25.5 -60.5t-61.5 -25.5z" />
    <glyph glyph-name="ellipsis" unicode="&#x2026;" horiz-adv-x="625" 
d="M530 38q0 -19 -14 -32.5t-33 -13.5t-32.5 13t-13.5 33t13.5 33.5t32.5 13.5t33 -14t14 -33zM353 38q0 -19 -13.5 -32.5t-32.5 -13.5t-32.5 13t-13.5 33t13.5 33.5t32.5 13.5t32.5 -14t13.5 -33zM178 38q0 -19 -13.5 -32.5t-33.5 -13.5q-19 0 -32 13.5t-13 32.5
q0 20 13 33.5t32 13.5t33 -13.5t14 -33.5z" />
    <glyph glyph-name="perthousand" unicode="&#x2030;" horiz-adv-x="1050" 
d="M69 495q0 -97 21 -131t59 -34q40 0 60.5 34t20.5 131q0 173 -81 173q-38 0 -59 -37.5t-21 -135.5zM281 495q0 -176 -132 -176t-132 176q0 34 5.5 63t19 58t41 46t66.5 17t66.5 -17t41 -46t19 -58t5.5 -63zM569 36q39 0 59.5 33.5t20.5 131.5t-21.5 135t-58.5 37
q-38 0 -59.5 -37t-21.5 -135t21 -131.5t60 -33.5zM569 384q39 0 66.5 -17t41 -45.5t19 -58t5.5 -62.5t-5.5 -61.5t-19 -55.5t-41 -43t-66.5 -16q-132 0 -132 176q0 33 5.5 62.5t19 58t41 45.5t66.5 17zM107 0l456 704h47l-456 -704h-47zM881 36q40 0 60.5 33.5t20.5 131.5
t-22 135t-59 37q-38 0 -59 -37t-21 -135q0 -97 21 -131t59 -34zM881 384q39 0 66.5 -17t41 -45.5t19 -58t5.5 -62.5q0 -176 -132 -176q-131 0 -131 176q0 34 5.5 63t18.5 57.5t40.5 45.5t66.5 17z" />
    <glyph glyph-name="guilsinglleft" unicode="&#x2039;" horiz-adv-x="339" 
d="M281 505v-20l-162 -219l162 -214v-19l-231 233z" />
    <glyph glyph-name="guilsinglright" unicode="&#x203a;" horiz-adv-x="339" 
d="M48 485v20l231 -239l-231 -233v19l161 214z" />
    <glyph glyph-name="fraction" unicode="&#x2044;" horiz-adv-x="324" 
d="M457 734h35l-605 -734h-34z" />
    <glyph glyph-name="Euro" unicode="&#x20ac;" horiz-adv-x="583" 
d="M201 412h216l-8 -14h-209q0 -5 -0.5 -22.5t-0.5 -23.5t0.5 -22t0.5 -21h201l-8 -13h-193q13 -294 161 -294q14 0 28.5 2t38.5 12t41.5 27.5t31 52.5t13.5 83h11v-132q-53 -35 -81.5 -45.5t-83.5 -10.5q-108 0 -168.5 78t-70.5 227h-107l9 13h97q0 7 -0.5 21.5t-0.5 21.5
t0.5 22.5t0.5 23.5h-106l9 14h98q21 301 240 301q57 0 89 -11t75 -45v-132h-11q0 48 -13 83t-30 52.5t-41 27.5t-39 12t-30 2q-19 0 -36 -5t-39 -23t-38.5 -47.5t-30 -85t-16.5 -129.5z" />
    <glyph glyph-name="afii61289" unicode="&#x2113;" horiz-adv-x="332" 
d="M156 549l-1 -244l52 49q45 44 64 115.5t11.5 133t-31.5 92.5q-14 18 -37 19q-58 -3 -58 -165zM293 99l9 -4q-7 -46 -35.5 -75t-63.5 -29q-60 0 -89 49.5t-29 164.5v29l-63 -48v27l63 50v272q0 61 12.5 105.5t32 65.5t43 28.5t46 -1.5t40.5 -30q33 -38 41 -108.5
t-14.5 -145t-71.5 -117.5l-60 -56l-1 -108q-2 -67 17.5 -107.5t55.5 -34.5q46 7 67 73z" />
    <glyph glyph-name="trademark" unicode="&#x2122;" horiz-adv-x="649" 
d="M589 470q0 -42 33 -42v-11h-95v11q29 0 29 42v200l-91 -257h-6l-108 241v-130q0 -56 8.5 -76t36.5 -20v-11h-110v11q32 0 43 21t11 75v148q-14 21 -45 21v11h71l107 -236l83 236h64v-11q-31 0 -31 -36v-187zM13 704h241v-82h-11q0 25 -8 41t-20.5 21.5t-19.5 7t-14 1.5
h-32v-235q0 -18 6.5 -24t19.5 -6v-11h-84v11q14 0 20.5 6t6.5 24v235h-32q-11 0 -18.5 -1.5t-19 -7t-18 -21.5t-6.5 -41h-11v82z" />
    <glyph glyph-name="Omega" unicode="&#x2126;" horiz-adv-x="690" 
d="M618 120h11l-24 -120h-235q7 35 26 70.5t40 68t42 72t34.5 100t13.5 134.5q0 280 -196 280t-196 -280q0 -74 13.5 -134.5t34 -100t42 -72t40.5 -68t26 -70.5h-235l-24 120h10q14 -34 35 -45t63 -11h110q-5 17 -16.5 33t-38 41.5t-32.5 31.5q-111 118 -111 280
q0 124 72.5 205t206.5 81t206.5 -81t72.5 -205q0 -161 -112 -280q-8 -9 -25.5 -26t-27.5 -27t-20 -25t-13 -28h110q42 0 62.5 11t34.5 45z" />
    <glyph glyph-name="estimated" unicode="&#x212e;" horiz-adv-x="892" 
d="M167 613v-225h560v222q-116 105 -282 105q-163 0 -278 -102zM445 735q171 0 292 -108t121 -260h-691v-245q115 -102 278 -102q180 0 297 120h27q-58 -65 -142.5 -102.5t-181.5 -37.5q-171 0 -292 107.5t-121 259.5t121 260t292 108z" />
    <glyph glyph-name="partialdiff" unicode="&#x2202;" horiz-adv-x="472" 
d="M214 2q52 0 89.5 85t52.5 253q-10 36 -35 59t-56 23q-50 0 -93 -49.5t-55 -160.5q-13 -121 13 -165.5t84 -44.5zM241 743q214 0 189 -406q-10 -146 -65 -246t-151 -100q-93 0 -137.5 61t-35.5 171q8 88 65.5 158t129.5 70q35 0 71.5 -22t49.5 -69q13 141 0 224
t-40.5 115.5t-75.5 32.5q-54 0 -103 -50.5t-35 -108.5l-9 -3l-24 74q16 42 67 70.5t104 28.5z" />
    <glyph glyph-name="Delta" unicode="&#x2206;" horiz-adv-x="714" 
d="M63 32h514l-256 613zM375 738l294 -706l-15 -32h-616l-6 26l1 2l287 692z" />
    <glyph glyph-name="product" unicode="&#x220f;" horiz-adv-x="604" 
d="M506 594v-551q0 -61 13 -89t47 -28v-11h-201v11q34 0 47 28t13 89v547q0 55 -12.5 78.5t-47.5 23.5h-138q-34 0 -43.5 -22t-9.5 -80v-547q0 -64 10 -90.5t43 -26.5v-11h-195v11q35 0 49 28.5t14 88.5v551q0 54 -13.5 76.5t-49.5 22.5v11h534v-11q-35 0 -47.5 -22.5
t-12.5 -76.5z" />
    <glyph glyph-name="summation" unicode="&#x2211;" horiz-adv-x="655" 
d="M132 693l224 -388l-239 -391h159q61 0 108 6t79.5 14.5t56.5 26.5t37 31.5t23 41t14 44t10 50.5h16l-27 -226h-517l202 338l-257 464h560l19 -191h-18q-20 102 -92.5 141t-194.5 39h-163z" />
    <glyph glyph-name="minus" unicode="&#x2212;" horiz-adv-x="626" 
d="M581 233h-533v47h533v-47z" />
    <glyph glyph-name="uni2215" unicode="&#x2215;" horiz-adv-x="329" 
d="M458 734h41l-605 -734h-40z" />
    <glyph glyph-name="uni2219" unicode="&#x2219;" horiz-adv-x="238" 
d="M120 256q-18 0 -30 12.5t-12 29.5t12 29.5t30 12.5q17 0 29.5 -12.5t12.5 -29.5t-12.5 -29.5t-29.5 -12.5z" />
    <glyph glyph-name="radical" unicode="&#x221a;" horiz-adv-x="565" 
d="M362 -50l155 909l25 -7l-180 -1031l-18 -7l-200 469q-16 39 -41.5 54t-54.5 4l-3 9l125 52z" />
    <glyph glyph-name="infinity" unicode="&#x221e;" horiz-adv-x="755" 
d="M607 220q28 30 28 72q0 41 -28 72q-27 29 -67 29t-66 -29l-62 -73q58 -66 62 -71q27 -29 66 -29q38 0 67 29zM271 220l61 72l-62 72q-27 29 -67 29t-67 -29q-28 -30 -28 -72q2 -45 29 -72q26 -29 66 -29q37 0 68 29zM650 404q44 -46 44 -112t-44 -113q-45 -47 -110 -47
q-64 0 -109 47l-59 68q-57 -65 -60 -68q-45 -47 -109 -47q-63 0 -110 47q-43 46 -43 112.5t43 113.5q47 47 110 47q64 0 109 -48l60 -67q56 64 59 67q45 48 109 48q65 0 110 -48z" />
    <glyph glyph-name="integral" unicode="&#x222b;" horiz-adv-x="327" 
d="M305 756q-6 -14 -19 -20t-27 -1q-14 6 -20.5 19.5t-0.5 27.5t19 19q5 1 -2 8t-26 7q-4 0 -8.5 -1.5t-16.5 -11.5t-17.5 -31.5t-11 -61t2.5 -100.5l35 -441q17 -198 -6.5 -288.5t-104.5 -90.5q-51 0 -72 30q-13 20 -6 41q5 14 19 20t28 0t19.5 -19.5t0.5 -27.5
q-4 -13 -19 -18q-6 -3 5 -10q10 -7 26 -7q4 0 8.5 1.5t17 11.5t18 31.5t11.5 61t-3 100.5l-35 440q-10 126 -5.5 210.5t32.5 127t82 42.5q48 0 71 -29q14 -18 5 -40z" />
    <glyph glyph-name="approxequal" unicode="&#x2248;" horiz-adv-x="505" 
d="M293 326l-111 43q-19 7 -47 8t-58.5 -11.5t-43.5 -40.5l-6 2q15 39 39.5 64t47.5 32t44.5 8t34.5 -3l13 -3l113 -44q19 -5 47 -6t59 12.5t42 38.5l6 -2q-15 -40 -39.5 -65t-48 -31.5t-45 -8t-34.5 2.5zM293 149l-111 43q-19 7 -47 7.5t-58.5 -12t-43.5 -39.5l-6 2
q15 39 39.5 64t47.5 31.5t44.5 7.5t34.5 -3l13 -3l113 -43q19 -5 47 -6.5t59 12.5t42 39l6 -3q-15 -40 -39.5 -64.5t-48 -31t-45 -8t-34.5 2.5z" />
    <glyph glyph-name="notequal" unicode="&#x2260;" horiz-adv-x="527" 
d="M480 352h-149l-66 -140h215v-55h-241l-61 -129l-49 23l50 106h-133v55h159l66 140h-225v54h250l66 139l49 -23l-54 -116h123v-54z" />
    <glyph glyph-name="lessequal" unicode="&#x2264;" horiz-adv-x="532" 
d="M133 345l346 -180v-59l-423 217v44l423 217v-61zM47 40h432v-44h-432v44z" />
    <glyph glyph-name="greaterequal" unicode="&#x2265;" horiz-adv-x="532" 
d="M55 165l346 180l-346 178v61l423 -217v-44l-423 -217v59zM55 40h432v-44h-432v44z" />
    <glyph glyph-name="lozenge" unicode="&#x25ca;" horiz-adv-x="559" 
d="M448 327l-170 334l-171 -334l171 -335zM301 733l208 -406l-208 -406h-45l-208 406l208 406h45z" />
    <glyph glyph-name="zero.taboldstyle" unicode="&#xf643;" horiz-adv-x="536" 
d="M409 229q0 72 -12 121t-33.5 71.5t-42.5 30.5t-48 8t-48 -8t-43 -30.5t-34 -71.5t-12 -121q0 -58 8.5 -100.5t21.5 -66.5t32.5 -38t36.5 -18t38 -4t38 4t36 18t32 38t21.5 66.5t8.5 100.5zM490 229q0 -119 -57 -178.5t-160 -59.5q-102 0 -159.5 60.5t-57.5 177.5
q0 116 58 179t159 63q103 0 160 -61t57 -181z" />
    <glyph glyph-name="one.taboldstyle" unicode="&#xf644;" horiz-adv-x="436" 
d="M194 88v274q0 42 -19.5 48t-70.5 -26l-4 10l140 77h22v-383q0 -27 6 -44t18.5 -24t22.5 -8.5t27 -1.5v-10h-218v10q19 0 30 2t23 9t17.5 23.5t5.5 43.5z" />
    <glyph glyph-name="two.taboldstyle" unicode="&#xf645;" horiz-adv-x="462" 
d="M370 110h10l-32 -110h-276l99 109q153 157 108 271q-20 49 -62 64.5t-76 -3.5q-30 -15 -33 -30l1 -3q15 4 28 -5t15.5 -24t-6.5 -27q-10 -13 -25.5 -15t-27.5 7q-19 12 -15 35q3 32 59 69q18 12 49.5 18t67.5 4t66.5 -25t41.5 -66q2 -21 4 -35t-4.5 -31.5t-12.5 -30.5
t-20 -30.5t-26.5 -31t-32 -33l-36.5 -36.5l-41 -41t-44 -47l155 1q25 0 38 9t28 37z" />
    <glyph glyph-name="three.taboldstyle" unicode="&#xf646;" horiz-adv-x="515" 
d="M78 -203q-15 22 -2 48q8 16 26.5 21.5t34.5 -3.5q17 -9 22 -27t-4 -35q-10 -16 -27 -19q-4 -1 7.5 -9.5t40 -17.5t64.5 -9q79 0 119.5 47t33.5 143q-2 29 -12.5 56t-31.5 53t-59.5 42t-89.5 18v14q53 5 91 36t52 72t3.5 86.5t-47.5 77.5q-26 23 -63.5 27t-70.5 -8.5
t-57.5 -40.5t-27.5 -64l-13 1q2 46 20 79.5t39 49.5t51 25t45 10t31 1q49 0 89.5 -27t58 -69.5t17.5 -88t-31.5 -88t-88.5 -64.5q79 -14 124.5 -67t46.5 -116q1 -49 -14.5 -88t-39.5 -62.5t-56 -39t-61 -21t-58 -5.5q-60 0 -102 18.5t-60 43.5z" />
    <glyph glyph-name="four.taboldstyle" unicode="&#xf647;" horiz-adv-x="561" 
d="M334 -5v384l-235 -349q-16 -26 -13 -30.5t27 -4.5h221zM502 -48h-92v-108q0 -46 10 -68t22 -26t38 -4v-11h-216v11q19 0 29 2t21 11t15.5 28.5t4.5 51.5v113h-292v13l337 499l31 -2v-467h92v-43z" />
    <glyph glyph-name="five.taboldstyle" unicode="&#xf648;" horiz-adv-x="553" 
d="M501 4q9 -69 -11.5 -123t-61 -84.5t-87.5 -46t-96 -15.5q-46 0 -85.5 14t-56 26.5t-24.5 22.5q-19 25 -7 51q8 17 26 24t36 -1q17 -7 24 -26t-1 -36t-28 -22q-6 -2 6.5 -12t43 -20t66.5 -10q60 0 111 30t75 86.5t3 123.5q-16 52 -61.5 85t-120.5 43t-178 -18l53 366h346
l-18 -73h-325l-31 -219q162 45 275 -8t127 -158z" />
    <glyph glyph-name="six.taboldstyle" unicode="&#xf649;" horiz-adv-x="546" 
d="M409 223q0 110 -38 163.5t-89 53.5q-71 0 -114.5 -52t-43.5 -108q0 -278 146 -278q61 0 100 55.5t39 165.5zM484 239q0 -117 -55.5 -182.5t-158.5 -65.5q-121 0 -173 84t-52 242q0 105 29.5 194t88 145.5t134.5 56.5q26 0 47.5 -3.5t35 -11t22 -12t15 -15t7.5 -12t4 -9.5
q11 -25 -9 -47q-13 -13 -32 -13.5t-32 12.5t-13 31.5t13 31.5q14 14 30 13l2 1q-2 10 -36 18l-32 4q-92 6 -143 -84t-52 -295q21 67 64 108t109 41q51 0 89 -22t58.5 -57.5t30 -74t9.5 -78.5z" />
    <glyph glyph-name="seven.taboldstyle" unicode="&#xf64a;" horiz-adv-x="550" 
d="M75 462h451l-40 -66q-106 -189 -148 -332.5t-42 -326.5h-86q5 104 20 181t50 156t76 145.5t117 176.5h-321q-39 0 -54 -12t-29 -46h-11z" />
    <glyph glyph-name="eight.taboldstyle" unicode="&#xf64b;" horiz-adv-x="542" 
d="M403 550q-4 152 -133 152q-50 0 -89 -32t-39 -84q0 -71 38 -110t122 -73q32 8 67 50t34 97zM280 -9q-235 0 -235 172q0 62 49.5 115t125.5 80q-78 45 -106.5 85t-28.5 102q0 79 53.5 123.5t131.5 44.5q88 0 135.5 -44t47.5 -117q0 -44 -42.5 -93.5t-95.5 -63.5
q89 -45 138.5 -93.5t49.5 -118.5q0 -97 -61 -144.5t-162 -47.5zM266 332q-14 7 -35 20q-125 -56 -125 -187q0 -86 50 -124.5t124 -38.5q23 0 48 7t51 22t42 47t15 75q-1 53 -37.5 91t-132.5 88z" />
    <glyph glyph-name="nine.taboldstyle" unicode="&#xf64c;" horiz-adv-x="512" 
d="M114 238q0 -110 38 -163t89 -53q71 0 114 50.5t43 106.5q0 132 -37.5 206.5t-108.5 74.5q-60 0 -99 -56t-39 -166zM38 221q0 120 55 185t159 65q121 0 173 -84.5t52 -243.5q0 -408 -244 -408q-17 0 -32 2t-26.5 4.5t-22 7t-18 9t-14 10.5t-10.5 10t-8 10t-5 8.5l-3 7.5
l-3 5q-11 28 10 49q13 14 32.5 14.5t33.5 -12.5q13 -13 13.5 -32.5t-12.5 -32.5q-15 -15 -32 -14q-4 1 1 -6q21 -25 73 -28q68 -5 107.5 27t60 119.5t20.5 243.5q-20 -65 -63.5 -105.5t-109.5 -40.5q-41 0 -74 14.5t-53.5 38t-34.5 54.5t-19.5 61.5t-5.5 61.5z" />
    <glyph glyph-name="dollar.taboldstyle" unicode="&#xf653;" horiz-adv-x="512" 
d="M269 2q62 3 98.5 34t41.5 71.5t-14 84t-59 71.5l-67 44v-305zM235 422v280q-32 -1 -62 -16.5t-47.5 -41.5t-22.5 -57t16 -66.5t66 -65.5zM356 343q48 -32 78 -69.5t38.5 -73.5t4 -68t-20.5 -59q-1 -1 -6 -7t-9 -10.5t-13 -12.5t-18.5 -14t-24.5 -13t-31 -12t-38 -8.5
t-47 -4.5v-122h-34v122q-57 3 -105 16.5t-68 25.5l-19 12v192h8q4 -116 43 -171.5t141 -63.5v327l-70 47q-27 19 -46.5 34.5t-43 42.5t-34 52.5t-8 60t23.5 69.5q2 3 6 8.5t19.5 18.5t34.5 23.5t50.5 19t67.5 8.5v122h34v-122q50 -3 95.5 -14.5t65.5 -21.5l20 -10v-168h-9
q-4 95 -39.5 145.5t-132.5 56.5v-301z" />
    <glyph glyph-name="cent.taboldstyle" unicode="&#xf654;" horiz-adv-x="513" 
d="M152 237q0 -94 40 -145.5t98 -61.5v429q-22 -4 -43 -15.5t-44 -35t-37 -68t-14 -103.5zM461 128l8 -3q-9 -47 -48 -88t-112 -46v-109h-19v109q-89 2 -152 64t-63 174q0 94 59 164.5t156 77.5v122h19v-122q51 0 84.5 -15t43 -28t12.5 -26q7 -23 -8 -40
q-11 -11 -27.5 -11.5t-27.5 9.5q-12 12 -12.5 28t11.5 27q11 11 26 11q7 -1 -4 8q-31 26 -98 26v-431q58 -1 98 29.5t54 69.5z" />
    <glyph glyph-name="dollar.oldstyle" unicode="&#xf724;" horiz-adv-x="512" 
d="M269 2q62 3 98.5 34t41.5 71.5t-14 84t-59 71.5l-67 44v-305zM235 422v280q-32 -1 -62 -16.5t-47.5 -41.5t-22.5 -57t16 -66.5t66 -65.5zM356 343q48 -32 78 -69.5t38.5 -73.5t4 -68t-20.5 -59q-1 -1 -6 -7t-9 -10.5t-13 -12.5t-18.5 -14t-24.5 -13t-31 -12t-38 -8.5
t-47 -4.5v-122h-34v122q-57 3 -105 16.5t-68 25.5l-19 12v192h8q4 -116 43 -171.5t141 -63.5v327l-70 47q-27 19 -46.5 34.5t-43 42.5t-34 52.5t-8 60t23.5 69.5q2 3 6 8.5t19.5 18.5t34.5 23.5t50.5 19t67.5 8.5v122h34v-122q50 -3 95.5 -14.5t65.5 -21.5l20 -10v-168h-9
q-4 95 -39.5 145.5t-132.5 56.5v-301z" />
    <glyph glyph-name="zero.oldstyle" unicode="&#xf730;" horiz-adv-x="536" 
d="M409 229q0 72 -12 121t-33.5 71.5t-42.5 30.5t-48 8t-48 -8t-43 -30.5t-34 -71.5t-12 -121q0 -58 8.5 -100.5t21.5 -66.5t32.5 -38t36.5 -18t38 -4t38 4t36 18t32 38t21.5 66.5t8.5 100.5zM490 229q0 -119 -57 -178.5t-160 -59.5q-102 0 -159.5 60.5t-57.5 177.5
q0 116 58 179t159 63q103 0 160 -61t57 -181z" />
    <glyph glyph-name="one.oldstyle" unicode="&#xf731;" horiz-adv-x="436" 
d="M194 88v274q0 42 -19.5 48t-70.5 -26l-4 10l140 77h22v-383q0 -27 6 -44t18.5 -24t22.5 -8.5t27 -1.5v-10h-218v10q19 0 30 2t23 9t17.5 23.5t5.5 43.5z" />
    <glyph glyph-name="two.oldstyle" unicode="&#xf732;" horiz-adv-x="462" 
d="M370 110h10l-32 -110h-276l99 109q153 157 108 271q-20 49 -62 64.5t-76 -3.5q-30 -15 -33 -30l1 -3q15 4 28 -5t15.5 -24t-6.5 -27q-10 -13 -25.5 -15t-27.5 7q-19 12 -15 35q3 32 59 69q18 12 49.5 18t67.5 4t66.5 -25t41.5 -66q2 -21 4 -35t-4.5 -31.5t-12.5 -30.5
t-20 -30.5t-26.5 -31t-32 -33l-36.5 -36.5l-41 -41t-44 -47l155 1q25 0 38 9t28 37z" />
    <glyph glyph-name="three.oldstyle" unicode="&#xf733;" horiz-adv-x="515" 
d="M78 -203q-15 22 -2 48q8 16 26.5 21.5t34.5 -3.5q17 -9 22 -27t-4 -35q-10 -16 -27 -19q-4 -1 7.5 -9.5t40 -17.5t64.5 -9q79 0 119.5 47t33.5 143q-2 29 -12.5 56t-31.5 53t-59.5 42t-89.5 18v14q53 5 91 36t52 72t3.5 86.5t-47.5 77.5q-26 23 -63.5 27t-70.5 -8.5
t-57.5 -40.5t-27.5 -64l-13 1q2 46 20 79.5t39 49.5t51 25t45 10t31 1q49 0 89.5 -27t58 -69.5t17.5 -88t-31.5 -88t-88.5 -64.5q79 -14 124.5 -67t46.5 -116q1 -49 -14.5 -88t-39.5 -62.5t-56 -39t-61 -21t-58 -5.5q-60 0 -102 18.5t-60 43.5z" />
    <glyph glyph-name="four.oldstyle" unicode="&#xf734;" horiz-adv-x="561" 
d="M334 -5v384l-235 -349q-16 -26 -13 -30.5t27 -4.5h221zM502 -48h-92v-108q0 -46 10 -68t22 -26t38 -4v-11h-216v11q19 0 29 2t21 11t15.5 28.5t4.5 51.5v113h-292v13l337 499l31 -2v-467h92v-43z" />
    <glyph glyph-name="five.oldstyle" unicode="&#xf735;" horiz-adv-x="553" 
d="M501 4q9 -69 -11.5 -123t-61 -84.5t-87.5 -46t-96 -15.5q-46 0 -85.5 14t-56 26.5t-24.5 22.5q-19 25 -7 51q8 17 26 24t36 -1q17 -7 24 -26t-1 -36t-28 -22q-6 -2 6.5 -12t43 -20t66.5 -10q60 0 111 30t75 86.5t3 123.5q-16 52 -61.5 85t-120.5 43t-178 -18l53 366h346
l-18 -73h-325l-31 -219q162 45 275 -8t127 -158z" />
    <glyph glyph-name="six.oldstyle" unicode="&#xf736;" horiz-adv-x="546" 
d="M409 223q0 110 -38 163.5t-89 53.5q-71 0 -114.5 -52t-43.5 -108q0 -278 146 -278q61 0 100 55.5t39 165.5zM484 239q0 -117 -55.5 -182.5t-158.5 -65.5q-121 0 -173 84t-52 242q0 105 29.5 194t88 145.5t134.5 56.5q26 0 47.5 -3.5t35 -11t22 -12t15 -15t7.5 -12t4 -9.5
q11 -25 -9 -47q-13 -13 -32 -13.5t-32 12.5t-13 31.5t13 31.5q14 14 30 13l2 1q-2 10 -36 18l-32 4q-92 6 -143 -84t-52 -295q21 67 64 108t109 41q51 0 89 -22t58.5 -57.5t30 -74t9.5 -78.5z" />
    <glyph glyph-name="seven.oldstyle" unicode="&#xf737;" horiz-adv-x="550" 
d="M75 462h451l-40 -66q-106 -189 -148 -332.5t-42 -326.5h-86q5 104 20 181t50 156t76 145.5t117 176.5h-321q-39 0 -54 -12t-29 -46h-11z" />
    <glyph glyph-name="eight.oldstyle" unicode="&#xf738;" horiz-adv-x="542" 
d="M403 550q-4 152 -133 152q-50 0 -89 -32t-39 -84q0 -71 38 -110t122 -73q32 8 67 50t34 97zM280 -9q-235 0 -235 172q0 62 49.5 115t125.5 80q-78 45 -106.5 85t-28.5 102q0 79 53.5 123.5t131.5 44.5q88 0 135.5 -44t47.5 -117q0 -44 -42.5 -93.5t-95.5 -63.5
q89 -45 138.5 -93.5t49.5 -118.5q0 -97 -61 -144.5t-162 -47.5zM266 332q-14 7 -35 20q-125 -56 -125 -187q0 -86 50 -124.5t124 -38.5q23 0 48 7t51 22t42 47t15 75q-1 53 -37.5 91t-132.5 88z" />
    <glyph glyph-name="nine.oldstyle" unicode="&#xf739;" horiz-adv-x="512" 
d="M114 238q0 -110 38 -163t89 -53q71 0 114 50.5t43 106.5q0 132 -37.5 206.5t-108.5 74.5q-60 0 -99 -56t-39 -166zM38 221q0 120 55 185t159 65q121 0 173 -84.5t52 -243.5q0 -408 -244 -408q-17 0 -32 2t-26.5 4.5t-22 7t-18 9t-14 10.5t-10.5 10t-8 10t-5 8.5l-3 7.5
l-3 5q-11 28 10 49q13 14 32.5 14.5t33.5 -12.5q13 -13 13.5 -32.5t-12.5 -32.5q-15 -15 -32 -14q-4 1 1 -6q21 -25 73 -28q68 -5 107.5 27t60 119.5t20.5 243.5q-20 -65 -63.5 -105.5t-109.5 -40.5q-41 0 -74 14.5t-53.5 38t-34.5 54.5t-19.5 61.5t-5.5 61.5z" />
    <glyph glyph-name="cent.oldstyle" unicode="&#xf7a2;" horiz-adv-x="513" 
d="M152 237q0 -94 40 -145.5t98 -61.5v429q-22 -4 -43 -15.5t-44 -35t-37 -68t-14 -103.5zM461 128l8 -3q-9 -47 -48 -88t-112 -46v-109h-19v109q-89 2 -152 64t-63 174q0 94 59 164.5t156 77.5v122h19v-122q51 0 84.5 -15t43 -28t12.5 -26q7 -23 -8 -40
q-11 -11 -27.5 -11.5t-27.5 9.5q-12 12 -12.5 28t11.5 27q11 11 26 11q7 -1 -4 8q-31 26 -98 26v-431q58 -1 98 29.5t54 69.5z" />
    <glyph glyph-name="fi" unicode="&#xfb01;" horiz-adv-x="491" 
d="M453 9v-9h-149v9q28 8 34 18t6 49v318q0 28 -11 42.5t-39 14.5h-142v-379q0 -38 11 -49t41 -15v-8h-160v8q28 5 33.5 15t5.5 49v379h-64l-1 11h65v6q0 156 51 216.5t152 60.5q46 0 82 -22.5t41 -69.5q2 -32 -15 -48q-14 -13 -32.5 -12t-30.5 14q-13 14 -12 32t15 31
q14 14 31 11q9 -1 9 7q-2 18 -30 34q-25 13 -58 13q-19 0 -33.5 -3t-35 -18t-33.5 -41t-22.5 -77t-9.5 -122v-12h142h118v-386q0 -40 6.5 -50t34.5 -17z" />
    <glyph glyph-name="fl" unicode="&#xfb02;" horiz-adv-x="475" 
d="M464 11v-11h-150v11q29 8 34.5 17.5t5.5 47.5v578q0 66 -86 73q-18 1 -33 -2.5t-33 -18.5t-30 -41.5t-20.5 -76t-8.5 -116.5v-10h107l-2 -11h-105v-379q0 -38 10.5 -48t41.5 -14v-10h-160v10q28 5 33.5 14t5.5 48v379h-64l-1 11h65v20q0 263 166 263q61 0 96 -22l87 23
v-670q0 -40 6.5 -49t34.5 -16z" />
    <glyph glyph-name="NULL" horiz-adv-x="0" 
 />
    <glyph glyph-name="CR" horiz-adv-x="278" 
 />
    <glyph glyph-name="two.superior" horiz-adv-x="256" 
d="M199 434h11l-15 -56h-164l100 152q54 78 20 121q-22 29 -60 21q-39 -8 -46 -48q-1 -4 -1 -7l-12 1q0 25 9 43t21 26t24 12.5t20 4.5h9q34 0 56.5 -22.5t22.5 -54.5q0 -20 -11.5 -42t-41.5 -61l-76 -115h95q24 0 39 25z" />
    <glyph glyph-name="one.superior" horiz-adv-x="192" 
d="M117 426q0 -16 6 -24.5t11.5 -9.5t16.5 -1v-11h-102v11q12 0 18.5 1.5t12 9.5t5.5 24v212q0 33 -39 5l-7 9l63 52h15v-278z" />
    <glyph glyph-name="a.superior" horiz-adv-x="283" 
d="M153 583q-50 -12 -73.5 -27t-23.5 -39q0 -19 11.5 -31.5t34.5 -12.5q39 0 51 37v73zM228 490l10 -3q-3 -34 -45 -34q-4 0 -10.5 1t-17.5 10t-11 25q-5 -16 -26 -26t-49 -10h-6t-14.5 3t-18 8t-14 16.5t-6.5 26.5q0 35 29 52t104 36v29q0 41 -18.5 58.5t-51.5 2.5
q-23 -11 -23 -17q8 0 14 -8q5 -7 4 -16t-8 -14q-16 -14 -30 3q-7 10 -2 23q6 20 40 38q10 5 22 7.5t19 2.5h7q36 0 50 -26.5t14 -78.5v-94q0 -4 0.5 -9t6.5 -13.5t16 -8.5q13 0 15 16z" />
    <glyph glyph-name="three.superior" horiz-adv-x="257" 
d="M217 469q0 -37 -18.5 -59.5t-40 -29t-45.5 -6.5q-51 0 -74 27q-4 4 -4 11t2 11q11 18 28 9q18 -9 9 -28q-5 -8 -10 -9l8 -5q16 -6 41 -6q76 0 69 79q-7 72 -87 74v10q49 4 64.5 47t-19.5 73q-25 22 -58.5 9t-36.5 -47l-12 1q1 26 12.5 42.5t30 22.5t27.5 7.5t17 1.5
q38 0 61 -31t13.5 -69t-52.5 -54q36 -6 55.5 -29.5t19.5 -51.5z" />
    <glyph glyph-name="o.superior" horiz-adv-x="306" 
d="M136 464q16 0 27 3t23 13t18.5 34t6.5 61q0 38 -6.5 63.5t-19 36.5t-23.5 14.5t-26 3.5t-26 -3.5t-23 -14.5t-18.5 -36t-6.5 -64q0 -37 6.5 -61t19 -34t23 -13t25.5 -3zM136 704q109 0 109 -129q0 -122 -109 -122q-108 0 -108 122q0 129 108 129z" />
    </font>
</defs>
</svg>
